Mirza-Regular.ufo
<glyph name="uni0600" format="1">
  <advance width="450"/>
  <unicode hex="0600"/>
  <outline>
    <contour>
      <point x="621" y="-56" type="line"/>
      <point x="573" y="-36"/>
      <point x="535" y="7"/>
      <point x="528" y="48" type="curve"/>
      <point x="557" y="71"/>
      <point x="591" y="82"/>
      <point x="639" y="82" type="curve" smooth="yes"/>
      <point x="681" y="82"/>
      <point x="714" y="70"/>
      <point x="726" y="65" type="curve"/>
      <point x="746" y="83" type="line"/>
      <point x="741" y="91"/>
      <point x="686" y="148"/>
      <point x="630" y="148" type="curve" smooth="yes"/>
      <point x="596" y="148"/>
      <point x="555" y="126"/>
      <point x="529" y="102" type="curve" smooth="yes"/>
      <point x="499" y="75"/>
      <point x="476" y="34"/>
      <point x="476" y="-4" type="curve"/>
      <point x="476" y="-30"/>
      <point x="483" y="-40"/>
      <point x="507" y="-56" type="curve"/>
      <point x="-34" y="-56" type="line" smooth="yes"/>
      <point x="-34" y="-56"/>
      <point x="-139" y="-51"/>
      <point x="-180" y="-46" type="curve"/>
      <point x="-151" y="-96"/>
      <point x="-122" y="-132"/>
      <point x="-89" y="-157" type="curve"/>
      <point x="-65" y="-156"/>
      <point x="-43" y="-154"/>
      <point x="-17" y="-154" type="curve"/>
      <point x="731" y="-154" type="line"/>
      <point x="746" y="-123"/>
      <point x="760" y="-91"/>
      <point x="770" y="-56" type="curve"/>
    </contour>
  </outline>
</glyph>
<glyph name="uni060C" format="1">
  <advance width="191"/>
  <unicode hex="060C"/>
  <outline>
    <contour>
      <point x="78" y="163"/>
      <point x="37" y="90"/>
      <point x="30" y="11" type="curve"/>
      <point x="55" y="-15" type="line"/>
      <point x="82" y="-15"/>
      <point x="121" y="-4"/>
      <point x="145" y="11" type="curve"/>
      <point x="134" y="36"/>
      <point x="128" y="66"/>
      <point x="128" y="100" type="curve" smooth="yes"/>
      <point x="128" y="138"/>
      <point x="140" y="177"/>
      <point x="161" y="204" type="curve"/>
      <point x="147" y="219" type="line"/>
    </contour>
  </outline>
</glyph>
<glyph name="uni060E" format="1">
  <advance width="718"/>
  <unicode hex="060E"/>
  <outline>
    <contour>
      <point x="678" y="86"/>
      <point x="662" y="103"/>
      <point x="640" y="103" type="curve"/>
      <point x="628" y="103"/>
      <point x="620" y="99"/>
      <point x="614" y="94" type="curve" smooth="yes"/>
      <point x="582" y="136"/>
      <point x="547" y="180"/>
      <point x="544" y="188" type="curve" smooth="yes"/>
      <point x="557" y="188"/>
      <point x="569" y="194"/>
      <point x="575" y="205" type="curve"/>
      <point x="580" y="214"/>
      <point x="582" y="221"/>
      <point x="574" y="238" type="curve"/>
      <point x="565" y="253"/>
      <point x="555" y="271"/>
      <point x="565" y="290" type="curve" smooth="yes"/>
      <point x="553" y="290"/>
      <point x="543" y="288"/>
      <point x="534" y="280" type="curve"/>
      <point x="518" y="264"/>
      <point x="514" y="240"/>
      <point x="530" y="213" type="curve" smooth="yes"/>
      <point x="490" y="238"/>
      <point x="457" y="244"/>
      <point x="412" y="234" type="curve"/>
      <point x="332" y="218"/>
      <point x="325" y="249"/>
      <point x="324" y="253" type="curve" smooth="yes"/>
      <point x="314" y="244"/>
      <point x="309" y="234"/>
      <point x="309" y="224" type="curve"/>
      <point x="309" y="213"/>
      <point x="315" y="201"/>
      <point x="330" y="196" type="curve" smooth="yes"/>
      <point x="302" y="171"/>
      <point x="272" y="128"/>
      <point x="240" y="83" type="curve"/>
      <point x="230" y="68"/>
      <point x="189" y="18"/>
      <point x="140" y="18" type="curve"/>
      <point x="118" y="18"/>
      <point x="99" y="25"/>
      <point x="82" y="39" type="curve" smooth="yes"/>
      <point x="102" y="39"/>
      <point x="132" y="46"/>
      <point x="132" y="78" type="curve"/>
      <point x="132" y="100"/>
      <point x="114" y="118"/>
      <point x="94" y="118" type="curve"/>
      <point x="67" y="118"/>
      <point x="49" y="94"/>
      <point x="50" y="68" type="curve"/>
      <point x="50" y="29"/>
      <point x="72" y="-1"/>
      <point x="134" y="-1" type="curve"/>
      <point x="208" y="-1"/>
      <point x="242" y="46"/>
      <point x="285" y="95" type="curve"/>
      <point x="329" y="145"/>
      <point x="370" y="194"/>
      <point x="439" y="194" type="curve"/>
      <point x="489" y="194"/>
      <point x="530" y="164"/>
      <point x="568" y="118" type="curve" smooth="yes"/>
      <point x="562" y="108"/>
      <point x="540" y="84"/>
      <point x="524" y="68" type="curve" smooth="yes"/>
      <point x="508" y="86"/>
      <point x="489" y="101"/>
      <point x="468" y="113" type="curve" smooth="yes"/>
      <point x="468" y="131"/>
      <point x="458" y="151"/>
      <point x="432" y="153" type="curve" smooth="yes"/>
      <point x="428" y="139"/>
      <point x="422" y="126"/>
      <point x="407" y="119" type="curve"/>
      <point x="375" y="103"/>
      <point x="362" y="84"/>
      <point x="362" y="58" type="curve"/>
      <point x="362" y="24"/>
      <point x="387" y="0"/>
      <point x="427" y="0" type="curve"/>
      <point x="462" y="0"/>
      <point x="490" y="13"/>
      <point x="527" y="39" type="curve" smooth="yes"/>
      <point x="547" y="19"/>
      <point x="574" y="1"/>
      <point x="603" y="1" type="curve"/>
      <point x="655" y="1"/>
      <point x="678" y="43"/>
      <point x="678" y="65" type="curve"/>
    </contour>
    <contour>
      <point x="493" y="36"/>
      <point x="465" y="19"/>
      <point x="437" y="19" type="curve"/>
      <point x="408" y="19"/>
      <point x="374" y="36"/>
      <point x="380" y="71" type="curve" smooth="yes"/>
      <point x="383" y="84"/>
      <point x="393" y="103"/>
      <point x="425" y="103" type="curve"/>
      <point x="457" y="103"/>
      <point x="483" y="86"/>
      <point x="514" y="56" type="curve"/>
    </contour>
    <contour>
      <point x="590" y="5"/>
      <point x="559" y="31"/>
      <point x="537" y="51" type="curve"/>
      <point x="549" y="64"/>
      <point x="570" y="89"/>
      <point x="580" y="105" type="curve" smooth="yes"/>
      <point x="588" y="95"/>
      <point x="595" y="88"/>
      <point x="603" y="78" type="curve" smooth="yes"/>
      <point x="590" y="51"/>
      <point x="607" y="28"/>
      <point x="637" y="24" type="curve" smooth="yes"/>
    </contour>
  </outline>
</glyph>
<glyph name="uni0612" format="1">
  <advance width="0"/>
  <unicode hex="0612"/>
  <outline>
    <contour>
      <point x="91" y="840"/>
      <point x="87" y="845"/>
      <point x="85" y="847" type="curve"/>
      <point x="78" y="840"/>
      <point x="73" y="833"/>
      <point x="68" y="824" type="curve"/>
      <point x="73" y="818"/>
      <point x="79" y="811"/>
      <point x="83" y="805" type="curve" smooth="yes"/>
      <point x="88" y="797"/>
      <point x="91" y="791"/>
      <point x="91" y="781" type="curve" smooth="yes"/>
      <point x="91" y="769"/>
      <point x="86" y="758"/>
      <point x="78" y="749" type="curve" smooth="yes"/>
      <point x="69" y="741"/>
      <point x="56" y="733"/>
      <point x="47" y="728" type="curve" smooth="yes"/>
      <point x="36" y="722"/>
      <point x="25" y="716"/>
      <point x="3" y="704" type="curve"/>
      <point x="6" y="700" type="line"/>
      <point x="13" y="701"/>
      <point x="20" y="702"/>
      <point x="26" y="702" type="curve" smooth="yes"/>
      <point x="33" y="702"/>
      <point x="43" y="701"/>
      <point x="49" y="701" type="curve" smooth="yes"/>
      <point x="59" y="701"/>
      <point x="66" y="703"/>
      <point x="73" y="709" type="curve" smooth="yes"/>
      <point x="81" y="713"/>
      <point x="87" y="720"/>
      <point x="91" y="729" type="curve" smooth="yes"/>
      <point x="103" y="749"/>
      <point x="105" y="775"/>
      <point x="105" y="789" type="curve" smooth="yes"/>
      <point x="105" y="811"/>
      <point x="100" y="824"/>
      <point x="94" y="834" type="curve" smooth="yes"/>
    </contour>
    <contour>
      <point x="36" y="791"/>
      <point x="38" y="801"/>
      <point x="40" y="809" type="curve"/>
      <point x="38" y="809"/>
      <point x="35" y="809"/>
      <point x="32" y="809" type="curve" smooth="yes"/>
      <point x="-5" y="807"/>
      <point x="-39" y="818"/>
      <point x="-42" y="820" type="curve" smooth="yes"/>
      <point x="-50" y="822"/>
      <point x="-57" y="825"/>
      <point x="-66" y="825" type="curve" smooth="yes"/>
      <point x="-73" y="825"/>
      <point x="-80" y="823"/>
      <point x="-85" y="818" type="curve" smooth="yes"/>
      <point x="-89" y="813"/>
      <point x="-95" y="807"/>
      <point x="-101" y="791" type="curve"/>
      <point x="-96" y="787" type="line"/>
      <point x="-93" y="793"/>
      <point x="-86" y="801"/>
      <point x="-68" y="801" type="curve" smooth="yes"/>
      <point x="-52" y="801"/>
      <point x="-33" y="794"/>
      <point x="-27" y="792" type="curve"/>
      <point x="-37" y="790"/>
      <point x="-47" y="786"/>
      <point x="-56" y="781" type="curve" smooth="yes"/>
      <point x="-70" y="772"/>
      <point x="-83" y="762"/>
      <point x="-92" y="749" type="curve" smooth="yes"/>
      <point x="-98" y="739"/>
      <point x="-103" y="729"/>
      <point x="-106" y="716" type="curve"/>
      <point x="-96" y="716" type="line"/>
      <point x="-72" y="772"/>
      <point x="-8" y="786"/>
      <point x="32" y="781" type="curve"/>
    </contour>
    <contour>
      <point x="-1" y="847" type="move" name="top"/>
    </contour>
    <contour>
      <point x="-1" y="680" type="move" name="_top"/>
    </contour>
  </outline>
</glyph>
<glyph name="uni0615" format="1">
  <advance width="0"/>
  <unicode hex="0615"/>
  <outline>
    <contour>
      <point x="-49" y="837" type="line"/>
      <point x="-45" y="830"/>
      <point x="-31" y="797"/>
      <point x="-27" y="747" type="curve"/>
      <point x="-37" y="729" type="line"/>
      <point x="-63" y="729" type="line"/>
      <point x="-54" y="700" type="line"/>
      <point x="-16" y="700" type="line" smooth="yes"/>
      <point x="3" y="700"/>
      <point x="24" y="708"/>
      <point x="41" y="720" type="curve" smooth="yes"/>
      <point x="57" y="734"/>
      <point x="67" y="750"/>
      <point x="67" y="767" type="curve" smooth="yes"/>
      <point x="67" y="781"/>
      <point x="48" y="794"/>
      <point x="35" y="794" type="curve" smooth="yes"/>
      <point x="23" y="794"/>
      <point x="3" y="786"/>
      <point x="-18" y="756" type="curve"/>
      <point x="-17" y="775"/>
      <point x="-18" y="782"/>
      <point x="-24" y="809" type="curve"/>
      <point x="-25" y="826"/>
      <point x="-22" y="829"/>
      <point x="-15" y="835" type="curve"/>
      <point x="-23" y="843"/>
      <point x="-30" y="852"/>
      <point x="-34" y="859" type="curve"/>
    </contour>
    <contour>
      <point x="44" y="738"/>
      <point x="25" y="729"/>
      <point x="3" y="729" type="curve" smooth="yes"/>
      <point x="-21" y="729" type="line"/>
      <point x="-12" y="749"/>
      <point x="1" y="770"/>
      <point x="22" y="771" type="curve"/>
      <point x="41" y="771"/>
      <point x="48" y="759"/>
      <point x="53" y="750" type="curve"/>
    </contour>
    <contour>
      <point x="2" y="861" type="move" name="top"/>
    </contour>
    <contour>
      <point x="2" y="670" type="move" name="_top"/>
    </contour>
  </outline>
</glyph>
<glyph name="uni0617" format="1">
  <advance width="0"/>
  <unicode hex="0617"/>
  <outline>
    <contour>
      <point x="58" y="821"/>
      <point x="52" y="835"/>
      <point x="46" y="846" type="curve" smooth="yes"/>
      <point x="42" y="854"/>
      <point x="37" y="859"/>
      <point x="35" y="862" type="curve"/>
      <point x="27" y="853"/>
      <point x="23" y="845"/>
      <point x="16" y="835" type="curve"/>
      <point x="29" y="823"/>
      <point x="42" y="807"/>
      <point x="42" y="788" type="curve" smooth="yes"/>
      <point x="42" y="775"/>
      <point x="37" y="763"/>
      <point x="27" y="753" type="curve"/>
      <point x="19" y="745"/>
      <point x="3" y="735"/>
      <point x="-7" y="730" type="curve" smooth="yes"/>
      <point x="-22" y="721"/>
      <point x="-39" y="712"/>
      <point x="-55" y="703" type="curve"/>
      <point x="-52" y="699" type="line"/>
      <point x="-43" y="701"/>
      <point x="-37" y="701"/>
      <point x="-30" y="701" type="curve" smooth="yes"/>
      <point x="-21" y="701"/>
      <point x="-10" y="700"/>
      <point x="-3" y="700" type="curve" smooth="yes"/>
      <point x="6" y="700"/>
      <point x="14" y="702"/>
      <point x="23" y="709" type="curve"/>
      <point x="31" y="714"/>
      <point x="37" y="722"/>
      <point x="43" y="731" type="curve" smooth="yes"/>
      <point x="55" y="753"/>
      <point x="58" y="783"/>
      <point x="58" y="797" type="curve" smooth="yes"/>
    </contour>
    <contour>
      <point x="51" y="906"/>
      <point x="42" y="914"/>
      <point x="34" y="919" type="curve"/>
      <point x="29" y="914"/>
      <point x="21" y="906"/>
      <point x="15" y="899" type="curve"/>
      <point x="23" y="894"/>
      <point x="29" y="887"/>
      <point x="35" y="880" type="curve"/>
      <point x="44" y="887"/>
      <point x="49" y="893"/>
      <point x="55" y="899" type="curve"/>
    </contour>
    <contour>
      <point x="2" y="919" type="move" name="top"/>
    </contour>
    <contour>
      <point x="2" y="679" type="move" name="_top"/>
    </contour>
  </outline>
</glyph>
<glyph name="uni062F" format="1">
  <advance width="443"/>
  <unicode hex="062F"/>
  <outline>
    <contour>
      <point x="383" y="242"/>
      <point x="342" y="288"/>
      <point x="308" y="319" type="curve" smooth="yes"/>
      <point x="274" y="349"/>
      <point x="237" y="370"/>
      <point x="219" y="378" type="curve"/>
      <point x="208" y="348"/>
      <point x="200" y="324"/>
      <point x="195" y="294" type="curve"/>
      <point x="292" y="255"/>
      <point x="342" y="164"/>
      <point x="342" y="164" type="curve" smooth="yes"/>
      <point x="342" y="164"/>
      <point x="320" y="90"/>
      <point x="222" y="90" type="curve" smooth="yes"/>
      <point x="181" y="90" type="line" smooth="yes"/>
      <point x="148" y="90"/>
      <point x="129" y="99"/>
      <point x="113" y="117" type="curve" smooth="yes"/>
      <point x="100" y="130"/>
      <point x="93" y="147"/>
      <point x="91" y="168" type="curve"/>
      <point x="74" y="164" type="line"/>
      <point x="70" y="143"/>
      <point x="61" y="79"/>
      <point x="95" y="35" type="curve" smooth="yes"/>
      <point x="117" y="7"/>
      <point x="153" y="-6"/>
      <point x="201" y="-6" type="curve" smooth="yes"/>
      <point x="256" y="-6"/>
      <point x="302" y="11"/>
      <point x="334" y="44" type="curve" smooth="yes"/>
      <point x="366" y="77"/>
      <point x="383" y="126"/>
      <point x="383" y="171" type="curve" smooth="yes"/>
    </contour>
    <contour>
      <point x="219" y="408" type="move" name="top"/>
    </contour>
    <contour>
      <point x="205" y="-35" type="move" name="bottom"/>
    </contour>
  </outline>
</glyph>
<glyph name="uni0631" format="1">
  <advance width="305"/>
  <unicode hex="0631"/>
  <outline>
    <contour>
      <point x="163" y="186"/>
      <point x="150" y="166"/>
      <point x="134" y="137" type="curve"/>
      <point x="150" y="122"/>
      <point x="167" y="100"/>
      <point x="179" y="81" type="curve" smooth="yes"/>
      <point x="193" y="59"/>
      <point x="202" y="38"/>
      <point x="202" y="8" type="curve" smooth="yes"/>
      <point x="202" y="-27"/>
      <point x="189" y="-58"/>
      <point x="162" y="-85" type="curve" smooth="yes"/>
      <point x="139" y="-108"/>
      <point x="98" y="-134"/>
      <point x="70" y="-150" type="curve" smooth="yes"/>
      <point x="38" y="-168"/>
      <point x="5" y="-186"/>
      <point x="-60" y="-221" type="curve"/>
      <point x="-51" y="-234" type="line"/>
      <point x="-29" y="-229"/>
      <point x="-11" y="-227"/>
      <point x="7" y="-227" type="curve" smooth="yes"/>
      <point x="30" y="-227"/>
      <point x="59" y="-230"/>
      <point x="78" y="-230" type="curve" smooth="yes"/>
      <point x="106" y="-230"/>
      <point x="126" y="-224"/>
      <point x="150" y="-207" type="curve" smooth="yes"/>
      <point x="172" y="-192"/>
      <point x="190" y="-171"/>
      <point x="203" y="-148" type="curve" smooth="yes"/>
      <point x="238" y="-87"/>
      <point x="245" y="-8"/>
      <point x="245" y="34" type="curve" smooth="yes"/>
      <point x="245" y="99"/>
      <point x="228" y="139"/>
      <point x="212" y="168" type="curve" smooth="yes"/>
      <point x="201" y="188"/>
      <point x="190" y="202"/>
      <point x="183" y="209" type="curve"/>
    </contour>
    <contour>
      <point x="133" y="233" type="move" name="top"/>
    </contour>
    <contour>
      <point x="49" y="-268" type="move" name="bottom"/>
    </contour>
  </outline>
</glyph>
<glyph name="uni0645" format="1">
  <advance width="408"/>
  <unicode hex="0645"/>
  <outline>
    <contour>
      <point x="341" y="235"/>
      <point x="319" y="263"/>
      <point x="287" y="284" type="curve" smooth="yes"/>
      <point x="269" y="296"/>
      <point x="245" y="306"/>
      <point x="221" y="306" type="curve" smooth="yes"/>
      <point x="188" y="306"/>
      <point x="165" y="289"/>
      <point x="151" y="253" type="curve" smooth="yes"/>
      <point x="145" y="239"/>
      <point x="142" y="225"/>
      <point x="141" y="214" type="curve"/>
      <point x="182" y="233"/>
      <point x="219" y="227"/>
      <point x="261" y="196" type="curve"/>
      <point x="200" y="195"/>
      <point x="154" y="186"/>
      <point x="115" y="150" type="curve" smooth="yes"/>
      <point x="90" y="128"/>
      <point x="62" y="76"/>
      <point x="72" y="-5" type="curve" smooth="yes"/>
      <point x="77" y="-44"/>
      <point x="84" y="-88"/>
      <point x="91" y="-134" type="curve" smooth="yes"/>
      <point x="101" y="-194"/>
      <point x="113" y="-264"/>
      <point x="121" y="-337" type="curve"/>
      <point x="149" y="-328" type="line"/>
      <point x="151" y="-272"/>
      <point x="141" y="-171"/>
      <point x="122" y="-24" type="curve" smooth="yes"/>
      <point x="118" y="9"/>
      <point x="126" y="38"/>
      <point x="148" y="61" type="curve" smooth="yes"/>
      <point x="168" y="84"/>
      <point x="201" y="102"/>
      <point x="247" y="112" type="curve" smooth="yes"/>
      <point x="285" y="120"/>
      <point x="316" y="120"/>
      <point x="335" y="120" type="curve"/>
      <point x="341" y="161"/>
      <point x="346" y="194"/>
      <point x="348" y="227" type="curve"/>
    </contour>
    <contour>
      <point x="218" y="336" type="move" name="top"/>
    </contour>
    <contour>
      <point x="137" y="-362" type="move" name="bottom"/>
    </contour>
  </outline>
</glyph>
<glyph name="uni064F" format="1">
  <advance width="0"/>
  <unicode hex="064F"/>
  <outline>
    <contour>
      <point x="64" y="791" type="line" smooth="yes"/>
      <point x="90" y="834"/>
      <point x="89" y="874"/>
      <point x="67" y="886" type="curve" smooth="yes"/>
      <point x="48" y="896"/>
      <point x="23" y="886"/>
      <point x="0" y="858" type="curve" smooth="yes"/>
      <point x="-13" y="842"/>
      <point x="-17" y="828"/>
      <point x="-14" y="815" type="curve" smooth="yes"/>
      <point x="-10" y="798"/>
      <point x="4" y="786"/>
      <point x="33" y="775" type="curve"/>
      <point x="3" y="743"/>
      <point x="-25" y="730"/>
      <point x="-79" y="732" type="curve" smooth="yes"/>
      <point x="-80" y="730"/>
      <point x="-86" y="720"/>
      <point x="-90" y="706" type="curve"/>
      <point x="-50" y="701"/>
      <point x="-14" y="709"/>
      <point x="15" y="730" type="curve" smooth="yes"/>
      <point x="32" y="743"/>
      <point x="40" y="751"/>
      <point x="52" y="769" type="curve"/>
      <point x="83" y="756" type="line" smooth="yes"/>
      <point x="83" y="767"/>
      <point x="82" y="774"/>
      <point x="79" y="783" type="curve" smooth="yes"/>
    </contour>
    <contour>
      <point x="27" y="811" type="line" smooth="yes"/>
      <point x="8" y="822"/>
      <point x="6" y="833"/>
      <point x="7" y="840" type="curve" smooth="yes"/>
      <point x="8" y="850"/>
      <point x="16" y="859"/>
      <point x="28" y="862" type="curve"/>
      <point x="38" y="865"/>
      <point x="49" y="862"/>
      <point x="56" y="853" type="curve"/>
      <point x="67" y="841"/>
      <point x="61" y="820"/>
      <point x="48" y="799" type="curve"/>
    </contour>
    <contour>
      <point x="-3" y="892" type="move" name="top"/>
    </contour>
    <contour>
      <point x="-3" y="685" type="move" name="_top"/>
    </contour>
  </outline>
</glyph>
<glyph name="uni0652" format="1">
  <advance width="0"/>
  <unicode hex="0652"/>
  <outline>
    <contour>
      <point x="-27" y="796"/>
      <point x="-45" y="774"/>
      <point x="-45" y="743" type="curve" smooth="yes"/>
      <point x="-45" y="731"/>
      <point x="-37" y="700"/>
      <point x="-2" y="700" type="curve" smooth="yes"/>
      <point x="17" y="700"/>
      <point x="30" y="707"/>
      <point x="37" y="719" type="curve" smooth="yes"/>
      <point x="43" y="729"/>
      <point x="44" y="741"/>
      <point x="44" y="749" type="curve" smooth="yes"/>
      <point x="44" y="777"/>
      <point x="25" y="801"/>
      <point x="-8" y="814" type="curve"/>
    </contour>
    <contour>
      <point x="14" y="775"/>
      <point x="34" y="762"/>
      <point x="34" y="747" type="curve" smooth="yes"/>
      <point x="34" y="732"/>
      <point x="16" y="732"/>
      <point x="10" y="732" type="curve" smooth="yes"/>
      <point x="-14" y="732"/>
      <point x="-32" y="744"/>
      <point x="-32" y="760" type="curve" smooth="yes"/>
      <point x="-32" y="770"/>
      <point x="-24" y="781"/>
      <point x="-18" y="788" type="curve"/>
    </contour>
    <contour>
      <point x="-1" y="823" type="move" name="top"/>
    </contour>
    <contour>
      <point x="-1" y="679" type="move" name="_top"/>
    </contour>
  </outline>
</glyph>
<glyph name="uni0655" format="1">
  <advance width="0"/>
  <unicode hex="0655"/>
  <outline>
    <contour>
      <point x="81" y="-290"/>
      <point x="73" y="-291"/>
      <point x="64" y="-293" type="curve" smooth="yes"/>
      <point x="43" y="-296"/>
      <point x="23" y="-296"/>
      <point x="3" y="-291" type="curve" smooth="yes"/>
      <point x="-23" y="-284"/>
      <point x="-33" y="-277"/>
      <point x="-33" y="-254" type="curve" smooth="yes"/>
      <point x="-12" y="-241"/>
      <point x="5" y="-233"/>
      <point x="30" y="-233" type="curve" smooth="yes"/>
      <point x="45" y="-233"/>
      <point x="55" y="-235"/>
      <point x="62" y="-238" type="curve"/>
      <point x="67" y="-231" type="line"/>
      <point x="66" y="-222"/>
      <point x="55" y="-205"/>
      <point x="26" y="-205" type="curve" smooth="yes"/>
      <point x="5" y="-205"/>
      <point x="-15" y="-212"/>
      <point x="-34" y="-228" type="curve" smooth="yes"/>
      <point x="-45" y="-237"/>
      <point x="-58" y="-254"/>
      <point x="-65" y="-264" type="curve" smooth="yes"/>
      <point x="-68" y="-268"/>
      <point x="-69" y="-271"/>
      <point x="-69" y="-275" type="curve" smooth="yes"/>
      <point x="-69" y="-298"/>
      <point x="-50" y="-313"/>
      <point x="-13" y="-318" type="curve"/>
      <point x="-48" y="-332"/>
      <point x="-66" y="-344"/>
      <point x="-85" y="-362" type="curve" smooth="yes"/>
      <point x="-87" y="-364"/>
      <point x="-89" y="-367"/>
      <point x="-89" y="-370" type="curve" smooth="yes"/>
      <point x="-89" y="-373"/>
      <point x="-87" y="-378"/>
      <point x="-83" y="-378" type="curve"/>
      <point x="-63" y="-366"/>
      <point x="-41" y="-353"/>
      <point x="1" y="-339" type="curve" smooth="yes"/>
      <point x="28" y="-330"/>
      <point x="44" y="-326"/>
      <point x="73" y="-323" type="curve"/>
      <point x="79" y="-314"/>
      <point x="85" y="-300"/>
      <point x="90" y="-288" type="curve"/>
    </contour>
    <contour>
      <point x="1" y="-185" type="move" name="_bottom"/>
    </contour>
    <contour>
      <point x="1" y="-378" type="move" name="bottom"/>
    </contour>
  </outline>
</glyph>
<glyph name="uni0656" format="1">
  <advance width="0"/>
  <unicode hex="0656"/>
  <outline>
    <contour>
      <point x="23" y="-273"/>
      <point x="15" y="-227"/>
      <point x="5" y="-205" type="curve"/>
      <point x="-7" y="-210"/>
      <point x="-15" y="-213"/>
      <point x="-20" y="-219" type="curve"/>
      <point x="-13" y="-232"/>
      <point x="6" y="-265"/>
      <point x="0" y="-320" type="curve"/>
      <point x="16" y="-319" type="line"/>
    </contour>
    <contour>
      <point x="-1" y="-185" type="move" name="_bottom"/>
    </contour>
    <contour>
      <point x="-1" y="-320" type="move" name="bottom"/>
    </contour>
  </outline>
</glyph>
<glyph name="uni065E" format="1">
  <advance width="0"/>
  <unicode hex="065E"/>
  <outline>
    <contour>
      <point x="-68" y="806"/>
      <point x="-59" y="797"/>
      <point x="-50" y="786" type="curve"/>
      <point x="-38" y="797"/>
      <point x="-30" y="805"/>
      <point x="-23" y="813" type="curve"/>
      <point x="-29" y="822"/>
      <point x="-41" y="833"/>
      <point x="-52" y="841" type="curve"/>
      <point x="-59" y="833"/>
      <point x="-70" y="821"/>
      <point x="-78" y="814" type="curve"/>
    </contour>
    <contour>
      <point x="-73" y="720"/>
      <point x="-73" y="710"/>
      <point x="-72" y="699" type="curve"/>
      <point x="-72" y="699"/>
      <point x="19" y="772"/>
      <point x="73" y="807" type="curve"/>
      <point x="75" y="820"/>
      <point x="75" y="826"/>
      <point x="74" y="836" type="curve"/>
      <point x="18" y="801"/>
      <point x="-25" y="768"/>
      <point x="-72" y="727" type="curve"/>
    </contour>
    <contour>
      <point x="23" y="720"/>
      <point x="32" y="711"/>
      <point x="41" y="700" type="curve"/>
      <point x="53" y="711"/>
      <point x="61" y="719"/>
      <point x="68" y="727" type="curve"/>
      <point x="62" y="736"/>
      <point x="50" y="747"/>
      <point x="39" y="755" type="curve"/>
      <point x="32" y="747"/>
      <point x="21" y="735"/>
      <point x="13" y="728" type="curve"/>
    </contour>
    <contour>
      <point x="-2" y="861" type="move" name="_bottom"/>
    </contour>
    <contour>
      <point x="-2" y="699" type="move" name="bottom"/>
    </contour>
  </outline>
</glyph>
<glyph name="uni0670" format="1">
  <advance width="0"/>
  <unicode hex="0670"/>
  <outline>
    <contour>
      <point x="19" y="751"/>
      <point x="11" y="797"/>
      <point x="1" y="819" type="curve"/>
      <point x="-11" y="814"/>
      <point x="-19" y="811"/>
      <point x="-24" y="805" type="curve"/>
      <point x="-17" y="792"/>
      <point x="2" y="759"/>
      <point x="-4" y="704" type="curve"/>
      <point x="12" y="705" type="line"/>
    </contour>
    <contour>
      <point x="1" y="819" type="move" name="top"/>
    </contour>
    <contour>
      <point x="6" y="685" type="move" name="_top"/>
    </contour>
  </outline>
</glyph>
<glyph name="uni06D6" format="1">
  <advance width="0"/>
  <unicode hex="06D6"/>
  <outline>
    <contour>
      <point x="169" y="868"/>
      <point x="161" y="872"/>
      <point x="155" y="872" type="curve" smooth="yes"/>
      <point x="137" y="872"/>
      <point x="117" y="853"/>
      <point x="107" y="842" type="curve" smooth="yes"/>
      <point x="94" y="828"/>
      <point x="83" y="812"/>
      <point x="82" y="809" type="curve"/>
      <point x="76" y="809"/>
      <point x="72" y="811"/>
      <point x="69" y="815" type="curve" smooth="yes"/>
      <point x="64" y="821"/>
      <point x="63" y="827"/>
      <point x="65" y="836" type="curve"/>
      <point x="59" y="833" type="line"/>
      <point x="58" y="827"/>
      <point x="56" y="823"/>
      <point x="53" y="818" type="curve" smooth="yes"/>
      <point x="50" y="812"/>
      <point x="44" y="809"/>
      <point x="36" y="809" type="curve" smooth="yes"/>
      <point x="19" y="809" type="line" smooth="yes"/>
      <point x="11" y="809"/>
      <point x="6" y="811"/>
      <point x="1" y="815" type="curve" smooth="yes"/>
      <point x="-2" y="820"/>
      <point x="-4" y="827"/>
      <point x="-4" y="831" type="curve" smooth="yes"/>
      <point x="-10" y="873"/>
      <point x="-12" y="901"/>
      <point x="-16" y="941" type="curve"/>
      <point x="-22" y="935"/>
      <point x="-27" y="930"/>
      <point x="-33" y="921" type="curve"/>
      <point x="-27" y="889"/>
      <point x="-25" y="868"/>
      <point x="-22" y="849" type="curve" smooth="yes"/>
      <point x="-21" y="841"/>
      <point x="-21" y="838"/>
      <point x="-20" y="831" type="curve" smooth="yes"/>
      <point x="-20" y="825"/>
      <point x="-21" y="821"/>
      <point x="-25" y="815" type="curve" smooth="yes"/>
      <point x="-30" y="811"/>
      <point x="-36" y="809"/>
      <point x="-43" y="809" type="curve" smooth="yes"/>
      <point x="-76" y="808" type="line" smooth="yes"/>
      <point x="-87" y="808"/>
      <point x="-96" y="806"/>
      <point x="-104" y="801" type="curve" smooth="yes"/>
      <point x="-111" y="798"/>
      <point x="-113" y="795"/>
      <point x="-118" y="791" type="curve" smooth="yes"/>
      <point x="-125" y="784"/>
      <point x="-138" y="778"/>
      <point x="-145" y="775" type="curve" smooth="yes"/>
      <point x="-154" y="770"/>
      <point x="-165" y="765"/>
      <point x="-173" y="758" type="curve" smooth="yes"/>
      <point x="-189" y="745"/>
      <point x="-189" y="734"/>
      <point x="-189" y="731" type="curve" smooth="yes"/>
      <point x="-189" y="726"/>
      <point x="-187" y="717"/>
      <point x="-177" y="711" type="curve" smooth="yes"/>
      <point x="-168" y="704"/>
      <point x="-153" y="701"/>
      <point x="-133" y="701" type="curve" smooth="yes"/>
      <point x="7" y="701" type="line"/>
      <point x="16" y="712"/>
      <point x="20" y="718"/>
      <point x="25" y="728" type="curve"/>
      <point x="-140" y="728" type="line" smooth="yes"/>
      <point x="-153" y="728"/>
      <point x="-171" y="729"/>
      <point x="-171" y="742" type="curve" smooth="yes"/>
      <point x="-171" y="746"/>
      <point x="-166" y="750"/>
      <point x="-161" y="753" type="curve"/>
      <point x="-157" y="754"/>
      <point x="-152" y="756"/>
      <point x="-146" y="759" type="curve" smooth="yes"/>
      <point x="-139" y="763"/>
      <point x="-132" y="767"/>
      <point x="-127" y="771" type="curve"/>
      <point x="-123" y="775"/>
      <point x="-117" y="780"/>
      <point x="-100" y="780" type="curve" smooth="yes"/>
      <point x="-36" y="780" type="line" smooth="yes"/>
      <point x="-18" y="780"/>
      <point x="-7" y="788"/>
      <point x="-6" y="803" type="curve"/>
      <point x="-3" y="788"/>
      <point x="7" y="780"/>
      <point x="22" y="780" type="curve" smooth="yes"/>
      <point x="34" y="781" type="line" smooth="yes"/>
      <point x="49" y="781"/>
      <point x="58" y="788"/>
      <point x="60" y="800" type="curve"/>
      <point x="62" y="793"/>
      <point x="66" y="788"/>
      <point x="74" y="786" type="curve"/>
      <point x="72" y="776" type="line"/>
      <point x="80" y="776" type="line"/>
      <point x="82" y="784" type="line"/>
      <point x="88" y="782"/>
      <point x="95" y="782"/>
      <point x="106" y="782" type="curve" smooth="yes"/>
      <point x="123" y="782"/>
      <point x="144" y="789"/>
      <point x="159" y="801" type="curve" smooth="yes"/>
      <point x="167" y="808"/>
      <point x="173" y="814"/>
      <point x="178" y="822" type="curve" smooth="yes"/>
      <point x="182" y="830"/>
      <point x="184" y="839"/>
      <point x="184" y="844" type="curve" smooth="yes"/>
      <point x="184" y="849"/>
      <point x="183" y="857"/>
      <point x="174" y="864" type="curve" smooth="yes"/>
    </contour>
    <contour>
      <point x="145" y="811"/>
      <point x="135" y="809"/>
      <point x="124" y="809" type="curve" smooth="yes"/>
      <point x="92" y="809" type="line"/>
      <point x="97" y="817"/>
      <point x="105" y="827"/>
      <point x="111" y="832" type="curve" smooth="yes"/>
      <point x="123" y="844"/>
      <point x="133" y="850"/>
      <point x="142" y="850" type="curve" smooth="yes"/>
      <point x="154" y="850"/>
      <point x="160" y="844"/>
      <point x="165" y="840" type="curve" smooth="yes"/>
      <point x="168" y="836"/>
      <point x="169" y="833"/>
      <point x="170" y="828" type="curve"/>
      <point x="165" y="821"/>
      <point x="160" y="818"/>
      <point x="151" y="813" type="curve" smooth="yes"/>
    </contour>
    <contour>
      <point x="-3" y="941" type="move" name="top"/>
    </contour>
    <contour>
      <point x="-3" y="671" type="move" name="_top"/>
    </contour>
  </outline>
</glyph>
<glyph name="uni06D8" format="1">
  <advance width="0"/>
  <unicode hex="06D8"/>
  <outline>
    <contour>
      <point x="74" y="815"/>
      <point x="63" y="821"/>
      <point x="53" y="821" type="curve" smooth="yes"/>
      <point x="37" y="821"/>
      <point x="33" y="803"/>
      <point x="33" y="803" type="curve"/>
      <point x="51" y="791"/>
      <point x="68" y="784"/>
      <point x="86" y="780" type="curve"/>
      <point x="86" y="780"/>
      <point x="85" y="794"/>
      <point x="79" y="804" type="curve" smooth="yes"/>
    </contour>
    <contour>
      <point x="57" y="756"/>
      <point x="40" y="762"/>
      <point x="23" y="773" type="curve"/>
      <point x="10" y="741"/>
      <point x="-7" y="723"/>
      <point x="-20" y="713" type="curve" smooth="yes"/>
      <point x="-29" y="708"/>
      <point x="-35" y="705"/>
      <point x="-46" y="705" type="curve" smooth="yes"/>
      <point x="-53" y="705"/>
      <point x="-61" y="707"/>
      <point x="-70" y="707" type="curve" smooth="yes"/>
      <point x="-76" y="707"/>
      <point x="-83" y="705"/>
      <point x="-92" y="703" type="curve"/>
      <point x="-95" y="709" type="line"/>
      <point x="-71" y="721"/>
      <point x="-59" y="728"/>
      <point x="-46" y="734" type="curve" smooth="yes"/>
      <point x="-13" y="754"/>
      <point x="5" y="777"/>
      <point x="19" y="810" type="curve"/>
      <point x="24" y="807" type="line"/>
      <point x="27" y="816"/>
      <point x="31" y="823"/>
      <point x="35" y="829" type="curve" smooth="yes"/>
      <point x="42" y="839"/>
      <point x="52" y="848"/>
      <point x="65" y="848" type="curve" smooth="yes"/>
      <point x="74" y="848"/>
      <point x="80" y="843"/>
      <point x="86" y="837" type="curve" smooth="yes"/>
      <point x="91" y="829"/>
      <point x="95" y="820"/>
      <point x="96" y="807" type="curve" smooth="yes"/>
      <point x="97" y="795"/>
      <point x="97" y="785"/>
      <point x="94" y="775" type="curve"/>
      <point x="83" y="753" type="line"/>
    </contour>
    <contour>
      <point x="1" y="857" type="move" name="top"/>
    </contour>
    <contour>
      <point x="1" y="670" type="move" name="_top"/>
    </contour>
  </outline>
</glyph>
<glyph name="uni06D9" format="1">
  <advance width="0"/>
  <unicode hex="06D9"/>
  <outline>
    <contour>
      <point x="31" y="742"/>
      <point x="29" y="747"/>
      <point x="25" y="753" type="curve"/>
      <point x="19" y="742"/>
      <point x="8" y="735"/>
      <point x="5" y="733" type="curve"/>
      <point x="11" y="733"/>
      <point x="26" y="733"/>
      <point x="35" y="735" type="curve"/>
    </contour>
    <contour>
      <point x="62" y="842" type="line"/>
      <point x="54" y="846" type="line"/>
      <point x="56" y="831"/>
      <point x="55" y="799"/>
      <point x="37" y="767" type="curve"/>
      <point x="41" y="759"/>
      <point x="48" y="741"/>
      <point x="48" y="727" type="curve"/>
      <point x="48" y="726"/>
      <point x="46" y="712"/>
      <point x="45" y="707" type="curve"/>
      <point x="26" y="703"/>
      <point x="6" y="700"/>
      <point x="-31" y="700" type="curve"/>
      <point x="-31" y="713"/>
      <point x="-31" y="723"/>
      <point x="-30" y="734" type="curve"/>
      <point x="-25" y="734" type="line"/>
      <point x="-9" y="738"/>
      <point x="5" y="749"/>
      <point x="16" y="766" type="curve"/>
      <point x="-8" y="807"/>
      <point x="-34" y="830"/>
      <point x="-39" y="834" type="curve"/>
      <point x="-43" y="828" type="line"/>
      <point x="-52" y="834"/>
      <point x="-58" y="839"/>
      <point x="-66" y="845" type="curve"/>
      <point x="-65" y="857"/>
      <point x="-61" y="869"/>
      <point x="-60" y="871" type="curve" smooth="yes"/>
      <point x="-58" y="875"/>
      <point x="-54" y="874"/>
      <point x="-52" y="872" type="curve" smooth="yes"/>
      <point x="-50" y="872"/>
      <point x="-46" y="869"/>
      <point x="-38" y="862" type="curve" smooth="yes"/>
      <point x="-24" y="850"/>
      <point x="-10" y="835"/>
      <point x="3" y="819" type="curve" smooth="yes"/>
      <point x="13" y="807"/>
      <point x="21" y="795"/>
      <point x="26" y="785" type="curve"/>
      <point x="33" y="796"/>
      <point x="36" y="809"/>
      <point x="38" y="822" type="curve" smooth="yes"/>
      <point x="40" y="841"/>
      <point x="37" y="861"/>
      <point x="32" y="877" type="curve"/>
      <point x="35" y="879"/>
      <point x="42" y="884"/>
      <point x="48" y="891" type="curve"/>
      <point x="53" y="878"/>
      <point x="62" y="866"/>
      <point x="70" y="859" type="curve"/>
    </contour>
    <contour>
      <point x="2" y="891" type="move" name="top"/>
    </contour>
    <contour>
      <point x="2" y="680" type="move" name="_top"/>
    </contour>
  </outline>
</glyph>
<glyph name="uni06DC" format="1">
  <advance width="0"/>
  <unicode hex="06DC"/>
  <outline>
    <contour>
      <point x="111" y="900"/>
      <point x="105" y="892"/>
      <point x="101" y="884" type="curve"/>
      <point x="117" y="862" type="line"/>
      <point x="116" y="854"/>
      <point x="105" y="844"/>
      <point x="91" y="844" type="curve" smooth="yes"/>
      <point x="71" y="844"/>
      <point x="63" y="855"/>
      <point x="65" y="878" type="curve"/>
      <point x="57" y="875" type="line"/>
      <point x="57" y="862"/>
      <point x="52" y="844"/>
      <point x="30" y="844" type="curve" smooth="yes"/>
      <point x="8" y="844"/>
      <point x="-4" y="861"/>
      <point x="-8" y="867" type="curve"/>
      <point x="-13" y="861"/>
      <point x="-20" y="851"/>
      <point x="-25" y="841" type="curve"/>
      <point x="-18" y="833"/>
      <point x="2" y="803"/>
      <point x="2" y="785" type="curve" smooth="yes"/>
      <point x="2" y="775"/>
      <point x="-6" y="765"/>
      <point x="-18" y="758" type="curve" smooth="yes"/>
      <point x="-32" y="750"/>
      <point x="-49" y="746"/>
      <point x="-69" y="746" type="curve" smooth="yes"/>
      <point x="-98" y="746"/>
      <point x="-118" y="754"/>
      <point x="-128" y="766" type="curve" smooth="yes"/>
      <point x="-138" y="779"/>
      <point x="-137" y="793"/>
      <point x="-133" y="815" type="curve"/>
      <point x="-140" y="817" type="line"/>
      <point x="-147" y="802"/>
      <point x="-150" y="785"/>
      <point x="-151" y="775" type="curve" smooth="yes"/>
      <point x="-151" y="765"/>
      <point x="-151" y="754"/>
      <point x="-146" y="743" type="curve" smooth="yes"/>
      <point x="-141" y="731"/>
      <point x="-132" y="721"/>
      <point x="-120" y="714" type="curve" smooth="yes"/>
      <point x="-107" y="707"/>
      <point x="-90" y="704"/>
      <point x="-73" y="704" type="curve" smooth="yes"/>
      <point x="-60" y="704"/>
      <point x="-46" y="706"/>
      <point x="-35" y="710" type="curve" smooth="yes"/>
      <point x="-25" y="714"/>
      <point x="-17" y="717"/>
      <point x="-8" y="726" type="curve" smooth="yes"/>
      <point x="9" y="741"/>
      <point x="18" y="764"/>
      <point x="18" y="793" type="curve" smooth="yes"/>
      <point x="18" y="800"/>
      <point x="17" y="805"/>
      <point x="17" y="812" type="curve"/>
      <point x="29" y="807"/>
      <point x="39" y="808"/>
      <point x="46" y="813" type="curve" smooth="yes"/>
      <point x="54" y="818"/>
      <point x="57" y="826"/>
      <point x="60" y="837" type="curve"/>
      <point x="60" y="837"/>
      <point x="61" y="827"/>
      <point x="69" y="819" type="curve" smooth="yes"/>
      <point x="74" y="815"/>
      <point x="82" y="812"/>
      <point x="91" y="812" type="curve" smooth="yes"/>
      <point x="105" y="812"/>
      <point x="112" y="818"/>
      <point x="119" y="826" type="curve" smooth="yes"/>
      <point x="129" y="840"/>
      <point x="130" y="858"/>
      <point x="130" y="860" type="curve" smooth="yes"/>
      <point x="130" y="884"/>
      <point x="120" y="900"/>
      <point x="116" y="905" type="curve"/>
    </contour>
    <contour>
      <point x="4" y="904" type="move" name="top"/>
    </contour>
    <contour>
      <point x="4" y="680" type="move" name="_top"/>
    </contour>
  </outline>
</glyph>
<glyph name="uni06DF" format="1">
  <advance width="0"/>
  <unicode hex="06DF"/>
  <outline>
    <contour>
      <point x="-28" y="832"/>
      <point x="-45" y="792"/>
      <point x="-45" y="761" type="curve" smooth="yes"/>
      <point x="-45" y="749"/>
      <point x="-37" y="718"/>
      <point x="-2" y="718" type="curve" smooth="yes"/>
      <point x="17" y="718"/>
      <point x="30" y="725"/>
      <point x="37" y="737" type="curve" smooth="yes"/>
      <point x="43" y="747"/>
      <point x="44" y="759"/>
      <point x="44" y="767" type="curve" smooth="yes"/>
      <point x="44" y="795"/>
      <point x="31" y="832"/>
      <point x="-2" y="832" type="curve"/>
    </contour>
    <contour>
      <point x="14" y="793"/>
      <point x="34" y="780"/>
      <point x="34" y="765" type="curve" smooth="yes"/>
      <point x="34" y="750"/>
      <point x="16" y="750"/>
      <point x="10" y="750" type="curve" smooth="yes"/>
      <point x="-14" y="750"/>
      <point x="-32" y="762"/>
      <point x="-32" y="778" type="curve" smooth="yes"/>
      <point x="-32" y="788"/>
      <point x="-24" y="799"/>
      <point x="-18" y="806" type="curve"/>
    </contour>
    <contour>
      <point x="-1" y="832" type="move" name="top"/>
    </contour>
    <contour>
      <point x="-1" y="698" type="move" name="_top"/>
    </contour>
  </outline>
</glyph>
<glyph name="uni06E1" format="1">
  <advance width="0"/>
  <unicode hex="06E1"/>
  <outline>
    <contour>
      <point x="66" y="752"/>
      <point x="70" y="760"/>
      <point x="70" y="765" type="curve" smooth="yes"/>
      <point x="70" y="774"/>
      <point x="58" y="778"/>
      <point x="52" y="780" type="curve" smooth="yes"/>
      <point x="39" y="784"/>
      <point x="5" y="796"/>
      <point x="-19" y="796" type="curve" smooth="yes"/>
      <point x="-38" y="796"/>
      <point x="-50" y="777"/>
      <point x="-61" y="757" type="curve"/>
      <point x="-58" y="755"/>
      <point x="-54" y="752"/>
      <point x="-51" y="750" type="curve"/>
      <point x="-39" y="762"/>
      <point x="-27" y="770"/>
      <point x="-17" y="770" type="curve" smooth="yes"/>
      <point x="-5" y="770"/>
      <point x="19" y="763"/>
      <point x="38" y="756" type="curve"/>
      <point x="32" y="750"/>
      <point x="-3" y="729"/>
      <point x="-16" y="723" type="curve" smooth="yes"/>
      <point x="-32" y="716"/>
      <point x="-56" y="710"/>
      <point x="-74" y="705" type="curve"/>
      <point x="-72" y="701"/>
      <point x="-71" y="698"/>
      <point x="-68" y="695" type="curve"/>
      <point x="-64" y="696"/>
      <point x="-50" y="700"/>
      <point x="-35" y="700" type="curve" smooth="yes"/>
      <point x="-21" y="699"/>
      <point x="1" y="702"/>
      <point x="12" y="710" type="curve" smooth="yes"/>
      <point x="17" y="713"/>
      <point x="33" y="724"/>
      <point x="50" y="738" type="curve" smooth="yes"/>
    </contour>
    <contour>
      <point x="-2" y="796" type="move" name="top"/>
    </contour>
    <contour>
      <point x="-2" y="675" type="move" name="_top"/>
    </contour>
  </outline>
</glyph>
<glyph name="uni06E2" format="1">
  <advance width="0"/>
  <unicode hex="06E2"/>
  <outline>
    <contour>
      <point x="44" y="896"/>
      <point x="36" y="906"/>
      <point x="25" y="913" type="curve" smooth="yes"/>
      <point x="20" y="917"/>
      <point x="12" y="920"/>
      <point x="3" y="920" type="curve" smooth="yes"/>
      <point x="-8" y="920"/>
      <point x="-15" y="914"/>
      <point x="-20" y="902" type="curve" smooth="yes"/>
      <point x="-22" y="898"/>
      <point x="-23" y="892"/>
      <point x="-23" y="889" type="curve"/>
      <point x="-10" y="896"/>
      <point x="1" y="892"/>
      <point x="17" y="884" type="curve"/>
      <point x="-3" y="883"/>
      <point x="-19" y="880"/>
      <point x="-32" y="868" type="curve" smooth="yes"/>
      <point x="-40" y="860"/>
      <point x="-50" y="843"/>
      <point x="-46" y="816" type="curve" smooth="yes"/>
      <point x="-45" y="803"/>
      <point x="-43" y="789"/>
      <point x="-40" y="773" type="curve" smooth="yes"/>
      <point x="-36" y="752"/>
      <point x="-32" y="729"/>
      <point x="-30" y="705" type="curve"/>
      <point x="-21" y="707" type="line"/>
      <point x="-20" y="726"/>
      <point x="-23" y="760"/>
      <point x="-30" y="810" type="curve" smooth="yes"/>
      <point x="-31" y="821"/>
      <point x="-29" y="831"/>
      <point x="-21" y="838" type="curve" smooth="yes"/>
      <point x="-14" y="846"/>
      <point x="-3" y="852"/>
      <point x="12" y="855" type="curve" smooth="yes"/>
      <point x="25" y="858"/>
      <point x="35" y="858"/>
      <point x="42" y="858" type="curve"/>
      <point x="44" y="871"/>
      <point x="45" y="883"/>
      <point x="46" y="894" type="curve"/>
    </contour>
    <contour>
      <point x="3" y="920" type="move" name="top"/>
    </contour>
    <contour>
      <point x="0" y="685" type="move" name="_top"/>
    </contour>
  </outline>
</glyph>
<glyph name="uni06E3" format="1">
  <advance width="0"/>
  <unicode hex="06E3"/>
  <outline>
    <contour>
      <point x="145" y="-216"/>
      <point x="138" y="-225"/>
      <point x="133" y="-234" type="curve"/>
      <point x="152" y="-261" type="line"/>
      <point x="150" y="-271"/>
      <point x="138" y="-284"/>
      <point x="122" y="-284" type="curve" smooth="yes"/>
      <point x="97" y="-284"/>
      <point x="87" y="-270"/>
      <point x="90" y="-242" type="curve"/>
      <point x="81" y="-247" type="line"/>
      <point x="80" y="-261"/>
      <point x="74" y="-284"/>
      <point x="47" y="-284" type="curve" smooth="yes"/>
      <point x="21" y="-284"/>
      <point x="6" y="-263"/>
      <point x="2" y="-256" type="curve"/>
      <point x="-4" y="-263"/>
      <point x="-12" y="-274"/>
      <point x="-18" y="-286" type="curve"/>
      <point x="-10" y="-297"/>
      <point x="15" y="-332"/>
      <point x="15" y="-354" type="curve" smooth="yes"/>
      <point x="15" y="-366"/>
      <point x="5" y="-378"/>
      <point x="-10" y="-387" type="curve" smooth="yes"/>
      <point x="-26" y="-396"/>
      <point x="-46" y="-401"/>
      <point x="-71" y="-401" type="curve" smooth="yes"/>
      <point x="-106" y="-401"/>
      <point x="-130" y="-391"/>
      <point x="-142" y="-376" type="curve" smooth="yes"/>
      <point x="-154" y="-362"/>
      <point x="-152" y="-344"/>
      <point x="-148" y="-318" type="curve"/>
      <point x="-156" y="-315" type="line"/>
      <point x="-164" y="-334"/>
      <point x="-168" y="-353"/>
      <point x="-169" y="-365" type="curve" smooth="yes"/>
      <point x="-170" y="-378"/>
      <point x="-169" y="-391"/>
      <point x="-163" y="-404" type="curve" smooth="yes"/>
      <point x="-157" y="-419"/>
      <point x="-147" y="-430"/>
      <point x="-132" y="-439" type="curve" smooth="yes"/>
      <point x="-116" y="-447"/>
      <point x="-97" y="-451"/>
      <point x="-75" y="-451" type="curve" smooth="yes"/>
      <point x="-59" y="-451"/>
      <point x="-44" y="-449"/>
      <point x="-31" y="-444" type="curve" smooth="yes"/>
      <point x="-19" y="-440"/>
      <point x="-8" y="-435"/>
      <point x="3" y="-425" type="curve" smooth="yes"/>
      <point x="23" y="-407"/>
      <point x="33" y="-379"/>
      <point x="33" y="-345" type="curve" smooth="yes"/>
      <point x="33" y="-337"/>
      <point x="32" y="-330"/>
      <point x="31" y="-322" type="curve"/>
      <point x="46" y="-327"/>
      <point x="58" y="-326"/>
      <point x="67" y="-320" type="curve" smooth="yes"/>
      <point x="76" y="-314"/>
      <point x="81" y="-305"/>
      <point x="83" y="-292" type="curve"/>
      <point x="83" y="-292"/>
      <point x="85" y="-303"/>
      <point x="95" y="-312" type="curve" smooth="yes"/>
      <point x="100" y="-318"/>
      <point x="109" y="-322"/>
      <point x="121" y="-322" type="curve" smooth="yes"/>
      <point x="137" y="-322"/>
      <point x="147" y="-314"/>
      <point x="154" y="-305" type="curve" smooth="yes"/>
      <point x="166" y="-288"/>
      <point x="168" y="-266"/>
      <point x="168" y="-264" type="curve" smooth="yes"/>
      <point x="168" y="-234"/>
      <point x="156" y="-216"/>
      <point x="151" y="-210" type="curve"/>
    </contour>
    <contour>
      <point x="-1" y="-190" type="move" name="_bottom"/>
    </contour>
    <contour>
      <point x="-1" y="-451" type="move" name="bottom"/>
    </contour>
  </outline>
</glyph>
<glyph name="uni06E6" format="1">
  <advance width="0"/>
  <unicode hex="06E6"/>
  <outline>
    <contour>
      <point x="-6" y="-245"/>
      <point x="-4" y="-221"/>
      <point x="-12" y="-209" type="curve" smooth="yes"/>
      <point x="-16" y="-203"/>
      <point x="-21" y="-203"/>
      <point x="-23" y="-203" type="curve" smooth="yes"/>
      <point x="-30" y="-203"/>
      <point x="-35" y="-208"/>
      <point x="-41" y="-217" type="curve" smooth="yes"/>
      <point x="-51" y="-232"/>
      <point x="-55" y="-237"/>
      <point x="-84" y="-250" type="curve" smooth="yes"/>
      <point x="-95" y="-255"/>
      <point x="-109" y="-262"/>
      <point x="-118" y="-270" type="curve" smooth="yes"/>
      <point x="-131" y="-280"/>
      <point x="-136" y="-291"/>
      <point x="-136" y="-303" type="curve" smooth="yes"/>
      <point x="-136" y="-314"/>
      <point x="-132" y="-322"/>
      <point x="-123" y="-328" type="curve" smooth="yes"/>
      <point x="-112" y="-335"/>
      <point x="-95" y="-338"/>
      <point x="-71" y="-338" type="curve" smooth="yes"/>
      <point x="116" y="-338" type="line"/>
      <point x="127" y="-325"/>
      <point x="133" y="-317"/>
      <point x="138" y="-306" type="curve"/>
      <point x="-69" y="-306" type="line" smooth="yes"/>
      <point x="-103" y="-306"/>
      <point x="-115" y="-301"/>
      <point x="-115" y="-290" type="curve" smooth="yes"/>
      <point x="-115" y="-285"/>
      <point x="-112" y="-279"/>
      <point x="-104" y="-276" type="curve"/>
      <point x="-72" y="-265"/>
      <point x="-66" y="-257"/>
      <point x="-53" y="-244" type="curve" smooth="yes"/>
      <point x="-50" y="-241"/>
      <point x="-40" y="-226"/>
      <point x="-28" y="-226" type="curve" smooth="yes"/>
      <point x="-12" y="-226"/>
      <point x="-14" y="-244"/>
      <point x="-15" y="-257" type="curve"/>
      <point x="-9" y="-257" type="line"/>
    </contour>
    <contour>
      <point x="1" y="-183" type="move" name="_bottom"/>
    </contour>
    <contour>
      <point x="1" y="-338" type="move" name="bottom"/>
    </contour>
  </outline>
</glyph>
<glyph name="uni06E7" format="1">
  <advance width="0"/>
  <unicode hex="06E7"/>
  <outline>
    <contour>
      <point x="-7" y="793"/>
      <point x="-5" y="817"/>
      <point x="-13" y="829" type="curve" smooth="yes"/>
      <point x="-17" y="835"/>
      <point x="-22" y="835"/>
      <point x="-24" y="835" type="curve" smooth="yes"/>
      <point x="-31" y="835"/>
      <point x="-36" y="830"/>
      <point x="-42" y="821" type="curve" smooth="yes"/>
      <point x="-52" y="806"/>
      <point x="-56" y="801"/>
      <point x="-85" y="788" type="curve" smooth="yes"/>
      <point x="-96" y="783"/>
      <point x="-110" y="776"/>
      <point x="-119" y="768" type="curve" smooth="yes"/>
      <point x="-132" y="758"/>
      <point x="-137" y="747"/>
      <point x="-137" y="735" type="curve" smooth="yes"/>
      <point x="-137" y="724"/>
      <point x="-133" y="716"/>
      <point x="-124" y="710" type="curve" smooth="yes"/>
      <point x="-113" y="703"/>
      <point x="-96" y="700"/>
      <point x="-72" y="700" type="curve" smooth="yes"/>
      <point x="115" y="700" type="line"/>
      <point x="126" y="713"/>
      <point x="132" y="721"/>
      <point x="137" y="732" type="curve"/>
      <point x="-70" y="732" type="line" smooth="yes"/>
      <point x="-104" y="732"/>
      <point x="-116" y="737"/>
      <point x="-116" y="748" type="curve" smooth="yes"/>
      <point x="-116" y="753"/>
      <point x="-113" y="759"/>
      <point x="-105" y="762" type="curve"/>
      <point x="-73" y="773"/>
      <point x="-67" y="781"/>
      <point x="-54" y="794" type="curve" smooth="yes"/>
      <point x="-51" y="797"/>
      <point x="-41" y="812"/>
      <point x="-29" y="812" type="curve" smooth="yes"/>
      <point x="-13" y="812"/>
      <point x="-15" y="794"/>
      <point x="-16" y="781" type="curve"/>
      <point x="-10" y="781" type="line"/>
    </contour>
    <contour>
      <point x="0" y="835" type="move" name="top"/>
    </contour>
    <contour>
      <point x="0" y="680" type="move" name="_top"/>
    </contour>
  </outline>
</glyph>
<glyph name="uni06E8" format="1">
  <advance width="0"/>
  <unicode hex="06E8"/>
  <outline>
    <contour>
      <point x="-72" y="754"/>
      <point x="-71" y="744"/>
      <point x="-68" y="735" type="curve"/>
      <point x="-62" y="724"/>
      <point x="-54" y="715"/>
      <point x="-43" y="709" type="curve" smooth="yes"/>
      <point x="-31" y="703"/>
      <point x="-17" y="700"/>
      <point x="0" y="700" type="curve" smooth="yes"/>
      <point x="12" y="700"/>
      <point x="23" y="701"/>
      <point x="33" y="704" type="curve" smooth="yes"/>
      <point x="43" y="707"/>
      <point x="51" y="713"/>
      <point x="59" y="720" type="curve" smooth="yes"/>
      <point x="73" y="733"/>
      <point x="80" y="754"/>
      <point x="80" y="779" type="curve" smooth="yes"/>
      <point x="80" y="796"/>
      <point x="77" y="812"/>
      <point x="71" y="827" type="curve"/>
      <point x="67" y="838"/>
      <point x="62" y="844"/>
      <point x="59" y="848" type="curve"/>
      <point x="54" y="842"/>
      <point x="46" y="834"/>
      <point x="42" y="825" type="curve"/>
      <point x="43" y="823"/>
      <point x="68" y="790"/>
      <point x="68" y="773" type="curve" smooth="yes"/>
      <point x="68" y="764"/>
      <point x="61" y="755"/>
      <point x="48" y="748" type="curve"/>
      <point x="35" y="741"/>
      <point x="22" y="738"/>
      <point x="3" y="738" type="curve" smooth="yes"/>
      <point x="-23" y="738"/>
      <point x="-41" y="744"/>
      <point x="-51" y="757" type="curve" smooth="yes"/>
      <point x="-60" y="767"/>
      <point x="-59" y="781"/>
      <point x="-56" y="800" type="curve"/>
      <point x="-62" y="802" type="line"/>
      <point x="-68" y="789"/>
      <point x="-71" y="776"/>
      <point x="-72" y="765" type="curve" smooth="yes"/>
    </contour>
    <contour>
      <point x="-16" y="800"/>
      <point x="-9" y="794"/>
      <point x="-2" y="785" type="curve"/>
      <point x="7" y="794"/>
      <point x="13" y="800"/>
      <point x="18" y="806" type="curve"/>
      <point x="14" y="813"/>
      <point x="5" y="821"/>
      <point x="-3" y="827" type="curve"/>
      <point x="-9" y="821"/>
      <point x="-17" y="812"/>
      <point x="-23" y="807" type="curve"/>
    </contour>
    <contour>
      <point x="4" y="848" type="move" name="top"/>
    </contour>
    <contour>
      <point x="4" y="680" type="move" name="_top"/>
    </contour>
  </outline>
</glyph>
<glyph name="uni06ED" format="1">
  <advance width="0"/>
  <unicode hex="06ED"/>
  <outline>
    <contour>
      <point x="39" y="-222"/>
      <point x="32" y="-213"/>
      <point x="22" y="-206" type="curve" smooth="yes"/>
      <point x="17" y="-203"/>
      <point x="9" y="-200"/>
      <point x="3" y="-200" type="curve" smooth="yes"/>
      <point x="-8" y="-200"/>
      <point x="-15" y="-205"/>
      <point x="-19" y="-216" type="curve" smooth="yes"/>
      <point x="-21" y="-220"/>
      <point x="-22" y="-225"/>
      <point x="-22" y="-228" type="curve"/>
      <point x="-10" y="-222"/>
      <point x="0" y="-225"/>
      <point x="14" y="-234" type="curve"/>
      <point x="-4" y="-234"/>
      <point x="-18" y="-236"/>
      <point x="-30" y="-247" type="curve" smooth="yes"/>
      <point x="-37" y="-254"/>
      <point x="-47" y="-270"/>
      <point x="-44" y="-294" type="curve" smooth="yes"/>
      <point x="-41" y="-306"/>
      <point x="-40" y="-320"/>
      <point x="-37" y="-333" type="curve" smooth="yes"/>
      <point x="-34" y="-352"/>
      <point x="-31" y="-373"/>
      <point x="-28" y="-395" type="curve"/>
      <point x="-20" y="-392" type="line"/>
      <point x="-19" y="-376"/>
      <point x="-22" y="-345"/>
      <point x="-28" y="-300" type="curve" smooth="yes"/>
      <point x="-29" y="-290"/>
      <point x="-27" y="-281"/>
      <point x="-20" y="-274" type="curve" smooth="yes"/>
      <point x="-14" y="-268"/>
      <point x="-3" y="-262"/>
      <point x="10" y="-259" type="curve" smooth="yes"/>
      <point x="21" y="-256"/>
      <point x="31" y="-256"/>
      <point x="37" y="-256" type="curve"/>
      <point x="39" y="-244"/>
      <point x="40" y="-234"/>
      <point x="40" y="-224" type="curve"/>
    </contour>
    <contour>
      <point x="-2" y="-180" type="move" name="_bottom"/>
    </contour>
    <contour>
      <point x="-2" y="-395" type="move" name="bottom"/>
    </contour>
  </outline>
</glyph>
<glyph name="uni06F2" format="1">
  <advance width="379"/>
  <unicode hex="06F2"/>
  <outline>
    <contour>
      <point x="327" y="515" type="line"/>
      <point x="316" y="460"/>
      <point x="270" y="439"/>
      <point x="211" y="439" type="curve" smooth="yes"/>
      <point x="179" y="439"/>
      <point x="154" y="448"/>
      <point x="133" y="465" type="curve" smooth="yes"/>
      <point x="115" y="479"/>
      <point x="100" y="499"/>
      <point x="87" y="523" type="curve"/>
      <point x="69" y="500"/>
      <point x="53" y="475"/>
      <point x="40" y="449" type="curve"/>
      <point x="72" y="397"/>
      <point x="96" y="331"/>
      <point x="111" y="257" type="curve" smooth="yes"/>
      <point x="128" y="175"/>
      <point x="134" y="94"/>
      <point x="128" y="0" type="curve"/>
      <point x="154" y="0" type="line"/>
      <point x="169" y="68"/>
      <point x="179" y="132"/>
      <point x="180" y="196" type="curve" smooth="yes"/>
      <point x="181" y="241"/>
      <point x="175" y="309"/>
      <point x="164" y="350" type="curve"/>
      <point x="201" y="345"/>
      <point x="240" y="344"/>
      <point x="281" y="373" type="curve" smooth="yes"/>
      <point x="316" y="397"/>
      <point x="346" y="443"/>
      <point x="349" y="527" type="curve"/>
    </contour>
  </outline>
</glyph>
<glyph name="uni075A" format="1">
  <advance width="443"/>
  <unicode hex="075A"/>
  <outline>
    <component base="uni062F"/>
    <component base="circumflex.below" xOffset="205" yOffset="147"/>
    <contour>
      <point x="206" y="-238" type="move" name="bottom"/>
    </contour>
  </outline>
</glyph>
<glyph name="uni25A2" format="1">
  <advance width="383"/>
  <unicode hex="25A2"/>
  <outline>
    <contour>
      <point x="41" y="88"/>
      <point x="62" y="67"/>
      <point x="88" y="67" type="curve" smooth="yes"/>
      <point x="298" y="67" type="line" smooth="yes"/>
      <point x="324" y="67"/>
      <point x="344" y="88"/>
      <point x="344" y="113" type="curve" smooth="yes"/>
      <point x="344" y="324" type="line" smooth="yes"/>
      <point x="344" y="349"/>
      <point x="324" y="370"/>
      <point x="298" y="370" type="curve" smooth="yes"/>
      <point x="88" y="370" type="line" smooth="yes"/>
      <point x="62" y="370"/>
      <point x="41" y="349"/>
      <point x="41" y="324" type="curve" smooth="yes"/>
      <point x="41" y="113" type="line" smooth="yes"/>
    </contour>
    <contour>
      <point x="71" y="319" type="line" smooth="yes"/>
      <point x="71" y="331"/>
      <point x="81" y="341"/>
      <point x="94" y="341" type="curve" smooth="yes"/>
      <point x="293" y="341" type="line" smooth="yes"/>
      <point x="306" y="341"/>
      <point x="315" y="331"/>
      <point x="315" y="319" type="curve" smooth="yes"/>
      <point x="315" y="119" type="line" smooth="yes"/>
      <point x="315" y="107"/>
      <point x="306" y="97"/>
      <point x="293" y="97" type="curve" smooth="yes"/>
      <point x="94" y="97" type="line" smooth="yes"/>
      <point x="81" y="97"/>
      <point x="71" y="107"/>
      <point x="71" y="119" type="curve" smooth="yes"/>
    </contour>
  </outline>
</glyph>
<glyph name="uniFB8F" format="1">
  <advance width="848"/>
  <unicode hex="FB8F"/>
  <outline>
    <contour>
      <point x="744" y="508"/>
      <point x="750" y="535"/>
      <point x="753" y="565" type="curve"/>
      <point x="679" y="530"/>
      <point x="557" y="469"/>
      <point x="481" y="407" type="curve"/>
      <point x="480" y="401"/>
      <point x="469" y="364"/>
      <point x="466" y="324" type="curve"/>
      <point x="494" y="293" type="line"/>
      <point x="501" y="308" type="line"/>
      <point x="519" y="288"/>
      <point x="537" y="267"/>
      <point x="553" y="247" type="curve" smooth="yes"/>
      <point x="596" y="192"/>
      <point x="628" y="142"/>
      <point x="628" y="142" type="curve" smooth="yes"/>
      <point x="628" y="142"/>
      <point x="607" y="97"/>
      <point x="553" y="94" type="curve" smooth="yes"/>
      <point x="497" y="91"/>
      <point x="456" y="93"/>
      <point x="407" y="93" type="curve" smooth="yes"/>
      <point x="338" y="93"/>
      <point x="278" y="94"/>
      <point x="229" y="101" type="curve" smooth="yes"/>
      <point x="174" y="109"/>
      <point x="133" y="128"/>
      <point x="113" y="159" type="curve" smooth="yes"/>
      <point x="103" y="175"/>
      <point x="96" y="195"/>
      <point x="92" y="219" type="curve"/>
      <point x="73" y="226" type="line"/>
      <point x="68" y="183"/>
      <point x="69" y="146"/>
      <point x="77" y="115" type="curve" smooth="yes"/>
      <point x="94" y="54"/>
      <point x="142" y="18"/>
      <point x="232" y="3" type="curve" smooth="yes"/>
      <point x="268" y="-3"/>
      <point x="299" y="-7"/>
      <point x="397" y="-6" type="curve" smooth="yes"/>
      <point x="452" y="-5"/>
      <point x="502" y="-8"/>
      <point x="561" y="-4" type="curve" smooth="yes"/>
      <point x="626" y="0"/>
      <point x="669" y="35"/>
      <point x="666" y="108" type="curve"/>
      <point x="692" y="30"/>
      <point x="734" y="0"/>
      <point x="814" y="0" type="curve" smooth="yes"/>
      <point x="848" y="0" type="line"/>
      <point x="848" y="98" type="line"/>
      <point x="813" y="98" type="line" smooth="yes"/>
      <point x="749" y="98"/>
      <point x="716" y="141"/>
      <point x="691" y="177" type="curve" smooth="yes"/>
      <point x="669" y="209"/>
      <point x="635" y="248"/>
      <point x="604" y="282" type="curve" smooth="yes"/>
      <point x="561" y="329"/>
      <point x="522" y="367"/>
      <point x="522" y="367" type="curve" smooth="yes"/>
      <point x="603" y="413"/>
      <point x="686" y="457"/>
      <point x="737" y="477" type="curve"/>
    </contour>
    <contour>
      <point x="338" y="142" type="move" name="top"/>
    </contour>
    <contour>
      <point x="376" y="-30" type="move" name="bottom"/>
    </contour>
  </outline>
</glyph>
<glyph name="uniFC18" format="1">
  <advance width="687"/>
  <unicode hex="FC18"/>
  <outline>
    <contour>
      <point x="519" y="269"/>
      <point x="465" y="296"/>
      <point x="421" y="318" type="curve" smooth="yes"/>
      <point x="390" y="334"/>
      <point x="358" y="350"/>
      <point x="322" y="350" type="curve" smooth="yes"/>
      <point x="305" y="350"/>
      <point x="288" y="346"/>
      <point x="273" y="338" type="curve" smooth="yes"/>
      <point x="251" y="326"/>
      <point x="230" y="304"/>
      <point x="213" y="273" type="curve"/>
      <point x="224" y="256" type="line"/>
      <point x="245" y="278"/>
      <point x="264" y="286"/>
      <point x="295" y="286" type="curve" smooth="yes"/>
      <point x="326" y="286"/>
      <point x="374" y="260"/>
      <point x="413" y="239" type="curve"/>
      <point x="368" y="239"/>
      <point x="312" y="233"/>
      <point x="267" y="216" type="curve" smooth="yes"/>
      <point x="225" y="199"/>
      <point x="205" y="182"/>
      <point x="185" y="159" type="curve"/>
      <point x="175" y="140"/>
      <point x="165" y="120"/>
      <point x="162" y="100" type="curve"/>
      <point x="123" y="92"/>
      <point x="95" y="73"/>
      <point x="78" y="45" type="curve" smooth="yes"/>
      <point x="60" y="15"/>
      <point x="54" y="-26"/>
      <point x="60" y="-74" type="curve" smooth="yes"/>
      <point x="70" y="-153"/>
      <point x="75" y="-192"/>
      <point x="81" y="-223" type="curve" smooth="yes"/>
      <point x="94" y="-315"/>
      <point x="99" y="-351"/>
      <point x="103" y="-380" type="curve"/>
      <point x="135" y="-371" type="line"/>
      <point x="133" y="-291"/>
      <point x="129" y="-241"/>
      <point x="122" y="-181" type="curve" smooth="yes"/>
      <point x="120" y="-153"/>
      <point x="107" y="-46"/>
      <point x="99" y="3" type="curve" smooth="yes"/>
      <point x="108" y="23"/>
      <point x="164" y="37"/>
      <point x="222" y="33" type="curve" smooth="yes"/>
      <point x="262" y="30"/>
      <point x="291" y="23"/>
      <point x="317" y="16" type="curve"/>
      <point x="340" y="48"/>
      <point x="350" y="77"/>
      <point x="357" y="97" type="curve"/>
      <point x="315" y="140"/>
      <point x="258" y="146"/>
      <point x="237" y="150" type="curve"/>
      <point x="260" y="165"/>
      <point x="320" y="196"/>
      <point x="431" y="196" type="curve" smooth="yes"/>
      <point x="480" y="196"/>
      <point x="529" y="192"/>
      <point x="576" y="179" type="curve"/>
      <point x="601" y="203"/>
      <point x="613" y="224"/>
      <point x="627" y="252" type="curve"/>
    </contour>
    <contour>
      <point x="344" y="0" type="move" name="caret_1"/>
    </contour>
    <contour>
      <point x="397" y="-11" type="move" name="bottom_1"/>
    </contour>
    <contour>
      <point x="342" y="380" type="move" name="top_1"/>
    </contour>
    <contour>
      <point x="88" y="220" type="move" name="top_2"/>
    </contour>
    <contour>
      <point x="118" y="-406" type="move" name="bottom_2"/>
    </contour>
  </outline>
</glyph>
<glyph name="uniFC1F" format="1">
  <advance width="825"/>
  <unicode hex="FC1F"/>
  <outline>
    <contour>
      <point x="713" y="248"/>
      <point x="698" y="228"/>
      <point x="687" y="208" type="curve"/>
      <point x="731" y="147" type="line"/>
      <point x="714" y="103"/>
      <point x="699" y="94"/>
      <point x="665" y="94" type="curve" smooth="yes"/>
      <point x="642" y="94"/>
      <point x="620" y="98"/>
      <point x="604" y="116" type="curve" smooth="yes"/>
      <point x="591" y="130"/>
      <point x="588" y="149"/>
      <point x="588" y="166" type="curve" smooth="yes"/>
      <point x="588" y="176"/>
      <point x="589" y="183"/>
      <point x="590" y="190" type="curve"/>
      <point x="568" y="178" type="line"/>
      <point x="567" y="169"/>
      <point x="566" y="160"/>
      <point x="563" y="149" type="curve" smooth="yes"/>
      <point x="555" y="122"/>
      <point x="540" y="94"/>
      <point x="483" y="94" type="curve" smooth="yes"/>
      <point x="423" y="94"/>
      <point x="397" y="123"/>
      <point x="375" y="145" type="curve" smooth="yes"/>
      <point x="356" y="165"/>
      <point x="338" y="184"/>
      <point x="308" y="184" type="curve" smooth="yes"/>
      <point x="280" y="184"/>
      <point x="237" y="167"/>
      <point x="203" y="118" type="curve" smooth="yes"/>
      <point x="178" y="82"/>
      <point x="164" y="53"/>
      <point x="156" y="7" type="curve"/>
      <point x="122" y="-10"/>
      <point x="106" y="-16"/>
      <point x="84" y="-48" type="curve"/>
      <point x="64" y="-75"/>
      <point x="51" y="-114"/>
      <point x="59" y="-169" type="curve"/>
      <point x="93" y="-375"/>
      <point x="98" y="-447"/>
      <point x="101" y="-474" type="curve"/>
      <point x="130" y="-465" type="line"/>
      <point x="129" y="-379"/>
      <point x="120" y="-302"/>
      <point x="108" y="-191" type="curve" smooth="yes"/>
      <point x="103" y="-142"/>
      <point x="101" y="-136"/>
      <point x="95" y="-99" type="curve"/>
      <point x="122" y="-72"/>
      <point x="142" y="-60"/>
      <point x="199" y="-60" type="curve" smooth="yes"/>
      <point x="246" y="-60"/>
      <point x="287" y="-68"/>
      <point x="317" y="-75" type="curve"/>
      <point x="336" y="-48"/>
      <point x="348" y="-24"/>
      <point x="357" y="2" type="curve"/>
      <point x="343" y="15"/>
      <point x="279" y="58"/>
      <point x="209" y="68" type="curve"/>
      <point x="230" y="97"/>
      <point x="257" y="118"/>
      <point x="292" y="118" type="curve" smooth="yes"/>
      <point x="330" y="118"/>
      <point x="347" y="98"/>
      <point x="369" y="68" type="curve" smooth="yes"/>
      <point x="390" y="39"/>
      <point x="417" y="0"/>
      <point x="479" y="0" type="curve" smooth="yes"/>
      <point x="540" y="0"/>
      <point x="565" y="39"/>
      <point x="574" y="75" type="curve"/>
      <point x="575" y="48"/>
      <point x="600" y="8"/>
      <point x="658" y="8" type="curve" smooth="yes"/>
      <point x="694" y="8"/>
      <point x="719" y="24"/>
      <point x="736" y="47" type="curve" smooth="yes"/>
      <point x="762" y="83"/>
      <point x="765" y="131"/>
      <point x="765" y="148" type="curve" smooth="yes"/>
      <point x="765" y="200"/>
      <point x="739" y="250"/>
      <point x="727" y="262" type="curve"/>
    </contour>
    <contour>
      <point x="413" y="0" type="move" name="caret_1"/>
    </contour>
    <contour>
      <point x="568" y="-25" type="move" name="bottom_1"/>
    </contour>
    <contour>
      <point x="571" y="232" type="move" name="top_1"/>
    </contour>
    <contour>
      <point x="170" y="188" type="move" name="top_2"/>
    </contour>
    <contour>
      <point x="118" y="-499" type="move" name="bottom_2"/>
    </contour>
  </outline>
</glyph>
<glyph name="uniFC2A" format="1">
  <advance width="600"/>
  <unicode hex="FC2A"/>
  <outline>
    <contour>
      <point x="504" y="330"/>
      <point x="448" y="315"/>
      <point x="378" y="293" type="curve"/>
      <point x="329" y="319"/>
      <point x="297" y="349"/>
      <point x="291" y="403" type="curve"/>
      <point x="323" y="426"/>
      <point x="352" y="438"/>
      <point x="397" y="438" type="curve" smooth="yes"/>
      <point x="440" y="438"/>
      <point x="472" y="427"/>
      <point x="484" y="422" type="curve"/>
      <point x="503" y="440" type="line"/>
      <point x="491" y="457"/>
      <point x="442" y="503"/>
      <point x="391" y="503" type="curve" smooth="yes"/>
      <point x="360" y="503"/>
      <point x="323" y="486"/>
      <point x="293" y="459" type="curve" smooth="yes"/>
      <point x="260" y="429"/>
      <point x="240" y="390"/>
      <point x="240" y="347" type="curve" smooth="yes"/>
      <point x="240" y="308"/>
      <point x="256" y="286"/>
      <point x="292" y="257" type="curve"/>
      <point x="260" y="242"/>
      <point x="226" y="212"/>
      <point x="200" y="181" type="curve" smooth="yes"/>
      <point x="178" y="154"/>
      <point x="161" y="125"/>
      <point x="158" y="102" type="curve"/>
      <point x="116" y="85"/>
      <point x="92" y="74"/>
      <point x="72" y="35" type="curve" smooth="yes"/>
      <point x="57" y="7"/>
      <point x="52" y="-14"/>
      <point x="60" y="-74" type="curve"/>
      <point x="70" y="-153"/>
      <point x="75" y="-192"/>
      <point x="81" y="-224" type="curve" smooth="yes"/>
      <point x="94" y="-315"/>
      <point x="99" y="-351"/>
      <point x="103" y="-380" type="curve"/>
      <point x="131" y="-371" type="line"/>
      <point x="129" y="-291"/>
      <point x="125" y="-241"/>
      <point x="118" y="-181" type="curve" smooth="yes"/>
      <point x="116" y="-153"/>
      <point x="103" y="-47"/>
      <point x="95" y="3" type="curve"/>
      <point x="104" y="23"/>
      <point x="160" y="35"/>
      <point x="222" y="35" type="curve" smooth="yes"/>
      <point x="262" y="35"/>
      <point x="291" y="28"/>
      <point x="317" y="20" type="curve"/>
      <point x="340" y="52"/>
      <point x="350" y="77"/>
      <point x="357" y="96" type="curve"/>
      <point x="317" y="131"/>
      <point x="265" y="143"/>
      <point x="242" y="148" type="curve"/>
      <point x="292" y="219"/>
      <point x="446" y="256"/>
      <point x="515" y="274" type="curve"/>
      <point x="526" y="295"/>
      <point x="531" y="309"/>
      <point x="540" y="335" type="curve"/>
    </contour>
    <contour>
      <point x="308" y="2" type="move" name="caret_1"/>
    </contour>
    <contour>
      <point x="307" y="-25" type="move" name="bottom_1"/>
    </contour>
    <contour>
      <point x="391" y="533" type="move" name="top_1"/>
    </contour>
    <contour>
      <point x="113" y="224" type="move" name="top_2"/>
    </contour>
    <contour>
      <point x="118" y="-405" type="move" name="bottom_2"/>
    </contour>
  </outline>
</glyph>
<glyph name="uniFC40" format="1">
  <advance width="549"/>
  <unicode hex="FC40"/>
  <outline>
    <contour>
      <point x="475" y="246" type="line"/>
      <point x="422" y="246"/>
      <point x="357" y="255"/>
      <point x="290" y="271" type="curve"/>
      <point x="297" y="275"/>
      <point x="319" y="291"/>
      <point x="315" y="332" type="curve" smooth="yes"/>
      <point x="314" y="347"/>
      <point x="314" y="339"/>
      <point x="307" y="402" type="curve" smooth="yes"/>
      <point x="299" y="470"/>
      <point x="312" y="482"/>
      <point x="324" y="492" type="curve"/>
      <point x="299" y="518"/>
      <point x="280" y="547"/>
      <point x="272" y="568" type="curve"/>
      <point x="218" y="497" type="line"/>
      <point x="230" y="464"/>
      <point x="236" y="442"/>
      <point x="255" y="372" type="curve" smooth="yes"/>
      <point x="263" y="343"/>
      <point x="271" y="312"/>
      <point x="258" y="298" type="curve" smooth="yes"/>
      <point x="250" y="290"/>
      <point x="236" y="286"/>
      <point x="221" y="286" type="curve" smooth="yes"/>
      <point x="211" y="286"/>
      <point x="185" y="288"/>
      <point x="174" y="288" type="curve" smooth="yes"/>
      <point x="166" y="288"/>
      <point x="154" y="287"/>
      <point x="140" y="285" type="curve"/>
      <point x="129" y="268"/>
      <point x="122" y="249"/>
      <point x="118" y="228" type="curve"/>
      <point x="140" y="228"/>
      <point x="179" y="226"/>
      <point x="200" y="224" type="curve" smooth="yes"/>
      <point x="229" y="221"/>
      <point x="264" y="214"/>
      <point x="298" y="205" type="curve"/>
      <point x="241" y="188"/>
      <point x="191" y="157"/>
      <point x="153" y="117" type="curve" smooth="yes"/>
      <point x="101" y="62"/>
      <point x="70" y="-11"/>
      <point x="70" y="-88" type="curve" smooth="yes"/>
      <point x="70" y="-148"/>
      <point x="89" y="-200"/>
      <point x="126" y="-240" type="curve" smooth="yes"/>
      <point x="167" y="-284"/>
      <point x="228" y="-311"/>
      <point x="287" y="-311" type="curve" smooth="yes"/>
      <point x="328" y="-311"/>
      <point x="360" y="-298"/>
      <point x="385" y="-284" type="curve" smooth="yes"/>
      <point x="409" y="-271"/>
      <point x="435" y="-258"/>
      <point x="480" y="-256" type="curve"/>
      <point x="485" y="-241" type="line"/>
      <point x="449" y="-236"/>
      <point x="450" y="-237"/>
      <point x="403" y="-233" type="curve" smooth="yes"/>
      <point x="356" y="-229"/>
      <point x="333" y="-226"/>
      <point x="315" y="-223" type="curve" smooth="yes"/>
      <point x="249" y="-212"/>
      <point x="199" y="-187"/>
      <point x="169" y="-153" type="curve" smooth="yes"/>
      <point x="141" y="-121"/>
      <point x="128" y="-78"/>
      <point x="128" y="-37" type="curve" smooth="yes"/>
      <point x="128" y="48"/>
      <point x="182" y="109"/>
      <point x="251" y="142" type="curve" smooth="yes"/>
      <point x="301" y="166"/>
      <point x="363" y="178"/>
      <point x="426" y="178" type="curve" smooth="yes"/>
      <point x="440" y="178"/>
      <point x="453" y="178"/>
      <point x="464" y="177" type="curve"/>
      <point x="476" y="200"/>
      <point x="483" y="220"/>
      <point x="489" y="246" type="curve"/>
    </contour>
    <contour>
      <point x="275" y="0" type="move" name="caret_1"/>
    </contour>
    <contour>
      <point x="306" y="53" type="move" name="bottom_1"/>
    </contour>
    <contour>
      <point x="214" y="585" type="move" name="top_1"/>
    </contour>
    <contour>
      <point x="87" y="325" type="move" name="top_2"/>
    </contour>
    <contour>
      <point x="287" y="-341" type="move" name="bottom_2"/>
    </contour>
  </outline>
</glyph>
<glyph name="uniFC86" format="1">
  <advance width="717"/>
  <unicode hex="FC86"/>
  <outline>
    <contour>
      <point x="500" y="547"/>
      <point x="483" y="529"/>
      <point x="462" y="497" type="curve"/>
      <point x="481" y="386"/>
      <point x="490" y="323"/>
      <point x="501" y="239" type="curve" smooth="yes"/>
      <point x="503" y="222"/>
      <point x="511" y="158"/>
      <point x="516" y="113" type="curve"/>
      <point x="511" y="69"/>
      <point x="427" y="28"/>
      <point x="389" y="28" type="curve"/>
      <point x="385" y="13"/>
      <point x="382" y="-7"/>
      <point x="379" y="-32" type="curve"/>
      <point x="399" y="-34"/>
      <point x="439" y="-39"/>
      <point x="473" y="-48" type="curve" smooth="yes"/>
      <point x="519" y="-60"/>
      <point x="543" y="-77"/>
      <point x="543" y="-95" type="curve" smooth="yes"/>
      <point x="543" y="-121"/>
      <point x="494" y="-147"/>
      <point x="464" y="-160" type="curve" smooth="yes"/>
      <point x="432" y="-174"/>
      <point x="373" y="-196"/>
      <point x="290" y="-196" type="curve" smooth="yes"/>
      <point x="212" y="-196"/>
      <point x="160" y="-177"/>
      <point x="132" y="-142" type="curve" smooth="yes"/>
      <point x="105" y="-109"/>
      <point x="109" y="-67"/>
      <point x="119" y="-9" type="curve"/>
      <point x="100" y="-2" type="line"/>
      <point x="84" y="-43"/>
      <point x="74" y="-81"/>
      <point x="71" y="-115" type="curve" smooth="yes"/>
      <point x="68" y="-149"/>
      <point x="72" y="-177"/>
      <point x="83" y="-203" type="curve" smooth="yes"/>
      <point x="98" y="-239"/>
      <point x="124" y="-265"/>
      <point x="160" y="-283" type="curve" smooth="yes"/>
      <point x="196" y="-301"/>
      <point x="237" y="-309"/>
      <point x="282" y="-309" type="curve" smooth="yes"/>
      <point x="343" y="-309"/>
      <point x="404" y="-294"/>
      <point x="457" y="-266" type="curve" smooth="yes"/>
      <point x="489" y="-249"/>
      <point x="527" y="-221"/>
      <point x="550" y="-194" type="curve" smooth="yes"/>
      <point x="573" y="-167"/>
      <point x="590" y="-132"/>
      <point x="590" y="-96" type="curve" smooth="yes"/>
      <point x="590" y="-41"/>
      <point x="551" y="-12"/>
      <point x="506" y="-1" type="curve"/>
      <point x="517" y="5"/>
      <point x="544" y="35"/>
      <point x="551" y="73" type="curve"/>
      <point x="571" y="19"/>
      <point x="611" y="0"/>
      <point x="659" y="0" type="curve" smooth="yes"/>
      <point x="717" y="0" type="line"/>
      <point x="717" y="98" type="line"/>
      <point x="646" y="98" type="line" smooth="yes"/>
      <point x="618" y="98"/>
      <point x="595" y="109"/>
      <point x="583" y="125" type="curve" smooth="yes"/>
      <point x="572" y="139"/>
      <point x="566" y="162"/>
      <point x="564" y="178" type="curve" smooth="yes"/>
      <point x="546" y="325"/>
      <point x="536" y="430"/>
      <point x="523" y="568" type="curve"/>
    </contour>
    <contour>
      <point x="349" y="0" type="move" name="caret_1"/>
    </contour>
    <contour>
      <point x="569" y="-275" type="move" name="bottom_1"/>
    </contour>
    <contour>
      <point x="470" y="588" type="move" name="top_1"/>
    </contour>
    <contour>
      <point x="223" y="0" type="move" name="top_2"/>
    </contour>
    <contour>
      <point x="282" y="-339" type="move" name="bottom_2"/>
    </contour>
  </outline>
</glyph>
<glyph name="uniFCAA" format="1">
  <advance width="632"/>
  <unicode hex="FCAA"/>
  <outline>
    <contour>
      <point x="453" y="291"/>
      <point x="399" y="318"/>
      <point x="355" y="341" type="curve" smooth="yes"/>
      <point x="331" y="353"/>
      <point x="309" y="364"/>
      <point x="284" y="369" type="curve" smooth="yes"/>
      <point x="255" y="375"/>
      <point x="230" y="372"/>
      <point x="208" y="360" type="curve" smooth="yes"/>
      <point x="185" y="348"/>
      <point x="165" y="326"/>
      <point x="147" y="295" type="curve"/>
      <point x="158" y="278" type="line"/>
      <point x="169" y="288"/>
      <point x="187" y="312"/>
      <point x="231" y="308" type="curve" smooth="yes"/>
      <point x="261" y="305"/>
      <point x="300" y="286"/>
      <point x="336" y="267" type="curve"/>
      <point x="286" y="265"/>
      <point x="242" y="255"/>
      <point x="201" y="232" type="curve" smooth="yes"/>
      <point x="166" y="212"/>
      <point x="133" y="182"/>
      <point x="102" y="140" type="curve" smooth="yes"/>
      <point x="87" y="121"/>
      <point x="76" y="98"/>
      <point x="43" y="98" type="curve" smooth="yes"/>
      <point x="-22" y="98" type="line" smooth="yes"/>
      <point x="-34" y="98"/>
      <point x="-70" y="89"/>
      <point x="-70" y="49" type="curve" smooth="yes"/>
      <point x="-70" y="19"/>
      <point x="-45" y="0"/>
      <point x="-22" y="0" type="curve" smooth="yes"/>
      <point x="9" y="0" type="line" smooth="yes"/>
      <point x="50" y="0"/>
      <point x="76" y="10"/>
      <point x="90" y="48" type="curve"/>
      <point x="126" y="-2"/>
      <point x="229" y="-18"/>
      <point x="244" y="-12" type="curve"/>
      <point x="261" y="0"/>
      <point x="288" y="45"/>
      <point x="287" y="83" type="curve" smooth="yes"/>
      <point x="287" y="124"/>
      <point x="267" y="167"/>
      <point x="230" y="185" type="curve"/>
      <point x="271" y="210"/>
      <point x="308" y="218"/>
      <point x="358" y="221" type="curve" smooth="yes"/>
      <point x="407" y="224"/>
      <point x="459" y="217"/>
      <point x="511" y="203" type="curve"/>
      <point x="536" y="227"/>
      <point x="546" y="249"/>
      <point x="562" y="274" type="curve"/>
    </contour>
    <contour>
      <point x="186" y="71"/>
      <point x="165" y="81"/>
      <point x="129" y="102" type="curve" smooth="yes"/>
      <point x="136" y="118"/>
      <point x="155" y="142"/>
      <point x="182" y="142" type="curve" smooth="yes"/>
      <point x="216" y="142"/>
      <point x="244" y="106"/>
      <point x="233" y="60" type="curve"/>
    </contour>
    <contour>
      <point x="311" y="0" type="move" name="caret_1"/>
    </contour>
    <contour>
      <point x="422" y="150" type="move" name="bottom_1"/>
    </contour>
    <contour>
      <point x="304" y="399" type="move" name="top_1"/>
    </contour>
    <contour>
      <point x="43" y="278" type="move" name="top_2"/>
    </contour>
    <contour>
      <point x="129" y="-35" type="move" name="bottom_2"/>
    </contour>
  </outline>
</glyph>
<glyph name="uniFCB0" format="1">
  <advance width="708"/>
  <unicode hex="FCB0"/>
  <outline>
    <contour>
      <point x="596" y="366"/>
      <point x="581" y="346"/>
      <point x="570" y="326" type="curve"/>
      <point x="614" y="265" type="line"/>
      <point x="597" y="221"/>
      <point x="582" y="212"/>
      <point x="548" y="212" type="curve" smooth="yes"/>
      <point x="525" y="212"/>
      <point x="503" y="216"/>
      <point x="487" y="234" type="curve" smooth="yes"/>
      <point x="474" y="248"/>
      <point x="471" y="267"/>
      <point x="471" y="284" type="curve" smooth="yes"/>
      <point x="471" y="294"/>
      <point x="472" y="301"/>
      <point x="473" y="308" type="curve"/>
      <point x="451" y="296" type="line"/>
      <point x="450" y="287"/>
      <point x="449" y="278"/>
      <point x="446" y="267" type="curve" smooth="yes"/>
      <point x="440" y="245"/>
      <point x="424" y="212"/>
      <point x="372" y="212" type="curve" smooth="yes"/>
      <point x="336" y="212"/>
      <point x="315" y="228"/>
      <point x="297" y="257" type="curve" smooth="yes"/>
      <point x="287" y="272"/>
      <point x="280" y="291"/>
      <point x="245" y="291" type="curve" smooth="yes"/>
      <point x="223" y="291"/>
      <point x="206" y="283"/>
      <point x="187" y="270" type="curve" smooth="yes"/>
      <point x="171" y="259"/>
      <point x="157" y="247"/>
      <point x="141" y="225" type="curve" smooth="yes"/>
      <point x="121" y="198"/>
      <point x="111" y="170"/>
      <point x="108" y="151" type="curve" smooth="yes"/>
      <point x="105" y="135"/>
      <point x="105" y="118"/>
      <point x="108" y="100" type="curve"/>
      <point x="91" y="94"/>
      <point x="53" y="96"/>
      <point x="9" y="98" type="curve"/>
      <point x="-20" y="98" type="line" smooth="yes"/>
      <point x="-55" y="98"/>
      <point x="-70" y="74"/>
      <point x="-70" y="48" type="curve" smooth="yes"/>
      <point x="-70" y="16"/>
      <point x="-47" y="0"/>
      <point x="-20" y="0" type="curve" smooth="yes"/>
      <point x="5" y="0" type="line" smooth="yes"/>
      <point x="78" y="0"/>
      <point x="78" y="10"/>
      <point x="126" y="10" type="curve" smooth="yes"/>
      <point x="162" y="10"/>
      <point x="187" y="4"/>
      <point x="219" y="-11" type="curve"/>
      <point x="231" y="18"/>
      <point x="240" y="62"/>
      <point x="238" y="94" type="curve"/>
      <point x="216" y="100"/>
      <point x="149" y="112"/>
      <point x="149" y="152" type="curve" smooth="yes"/>
      <point x="149" y="179"/>
      <point x="175" y="221"/>
      <point x="238" y="221" type="curve" smooth="yes"/>
      <point x="275" y="221"/>
      <point x="286" y="203"/>
      <point x="298" y="180" type="curve" smooth="yes"/>
      <point x="316" y="147"/>
      <point x="335" y="120"/>
      <point x="376" y="120" type="curve" smooth="yes"/>
      <point x="425" y="120"/>
      <point x="449" y="159"/>
      <point x="457" y="193" type="curve"/>
      <point x="458" y="166"/>
      <point x="483" y="126"/>
      <point x="541" y="126" type="curve" smooth="yes"/>
      <point x="577" y="126"/>
      <point x="602" y="142"/>
      <point x="619" y="165" type="curve" smooth="yes"/>
      <point x="645" y="201"/>
      <point x="648" y="249"/>
      <point x="648" y="266" type="curve" smooth="yes"/>
      <point x="648" y="318"/>
      <point x="622" y="368"/>
      <point x="610" y="380" type="curve"/>
    </contour>
    <contour>
      <point x="354" y="0" type="move" name="caret_1"/>
    </contour>
    <contour>
      <point x="442" y="78" type="move" name="bottom_1"/>
    </contour>
    <contour>
      <point x="459" y="344" type="move" name="top_1"/>
    </contour>
    <contour>
      <point x="121" y="298" type="move" name="top_2"/>
    </contour>
    <contour>
      <point x="157" y="-35" type="move" name="bottom_2"/>
    </contour>
  </outline>
</glyph>
<glyph name="uniFCEB" format="1">
  <advance width="534"/>
  <unicode hex="FCEB"/>
  <outline>
    <contour>
      <point x="498" y="98" type="line" smooth="yes"/>
      <point x="434" y="98"/>
      <point x="401" y="140"/>
      <point x="377" y="176" type="curve"/>
      <point x="354" y="208"/>
      <point x="320" y="252"/>
      <point x="288" y="286" type="curve" smooth="yes"/>
      <point x="270" y="306"/>
      <point x="231" y="346"/>
      <point x="207" y="370" type="curve"/>
      <point x="283" y="413"/>
      <point x="374" y="461"/>
      <point x="422" y="480" type="curve"/>
      <point x="430" y="511"/>
      <point x="435" y="538"/>
      <point x="439" y="568" type="curve"/>
      <point x="369" y="535"/>
      <point x="222" y="464"/>
      <point x="138" y="391" type="curve"/>
      <point x="132" y="450"/>
      <point x="126" y="503"/>
      <point x="120" y="568" type="curve"/>
      <point x="97" y="547"/>
      <point x="80" y="529"/>
      <point x="59" y="497" type="curve"/>
      <point x="78" y="386"/>
      <point x="89" y="309"/>
      <point x="98" y="239" type="curve" smooth="yes"/>
      <point x="101" y="214"/>
      <point x="103" y="201"/>
      <point x="105" y="179" type="curve" smooth="yes"/>
      <point x="107" y="160"/>
      <point x="102" y="141"/>
      <point x="88" y="125" type="curve" smooth="yes"/>
      <point x="72" y="107"/>
      <point x="49" y="98"/>
      <point x="24" y="98" type="curve" smooth="yes"/>
      <point x="-21" y="98" type="line" smooth="yes"/>
      <point x="-48" y="98"/>
      <point x="-70" y="76"/>
      <point x="-70" y="49" type="curve" smooth="yes"/>
      <point x="-70" y="21"/>
      <point x="-46" y="0"/>
      <point x="-21" y="0" type="curve" smooth="yes"/>
      <point x="47" y="0" type="line" smooth="yes"/>
      <point x="109" y="0"/>
      <point x="150" y="26"/>
      <point x="153" y="82" type="curve"/>
      <point x="158" y="34"/>
      <point x="195" y="0"/>
      <point x="256" y="0" type="curve"/>
      <point x="313" y="0"/>
      <point x="356" y="47"/>
      <point x="351" y="113" type="curve"/>
      <point x="380" y="37"/>
      <point x="420" y="0"/>
      <point x="499" y="0" type="curve" smooth="yes"/>
      <point x="534" y="0" type="line"/>
      <point x="534" y="98" type="line"/>
    </contour>
    <contour>
      <point x="295" y="112"/>
      <point x="279" y="99"/>
      <point x="240" y="98" type="curve"/>
      <point x="215" y="99"/>
      <point x="195" y="108"/>
      <point x="180" y="125" type="curve" smooth="yes"/>
      <point x="169" y="139"/>
      <point x="163" y="162"/>
      <point x="161" y="178" type="curve" smooth="yes"/>
      <point x="153" y="243"/>
      <point x="147" y="299"/>
      <point x="141" y="354" type="curve"/>
      <point x="170" y="331"/>
      <point x="214" y="281"/>
      <point x="236" y="252" type="curve" smooth="yes"/>
      <point x="253" y="231"/>
      <point x="288" y="179"/>
      <point x="314" y="140" type="curve"/>
    </contour>
    <contour>
      <point x="267" y="0" type="move" name="caret_1"/>
    </contour>
    <contour>
      <point x="283" y="-25" type="move" name="bottom_1"/>
    </contour>
    <contour>
      <point x="334" y="557" type="move" name="top_1"/>
    </contour>
    <contour>
      <point x="42" y="557" type="move" name="top_2"/>
    </contour>
    <contour>
      <point x="46" y="-25" type="move" name="bottom_2"/>
    </contour>
  </outline>
</glyph>
<glyph name="uniFCF7" format="1">
  <advance width="879"/>
  <unicode hex="FCF7"/>
  <outline>
    <contour>
      <point x="639" y="380"/>
      <point x="602" y="363"/>
      <point x="572" y="336" type="curve" smooth="yes"/>
      <point x="542" y="308"/>
      <point x="519" y="270"/>
      <point x="519" y="227" type="curve" smooth="yes"/>
      <point x="519" y="184"/>
      <point x="535" y="163"/>
      <point x="571" y="134" type="curve" smooth="yes"/>
      <point x="516" y="110"/>
      <point x="461" y="84"/>
      <point x="447" y="67" type="curve" smooth="yes"/>
      <point x="436" y="54"/>
      <point x="426" y="29"/>
      <point x="420" y="-6" type="curve"/>
      <point x="500" y="-17"/>
      <point x="543" y="-49"/>
      <point x="543" y="-70" type="curve" smooth="yes"/>
      <point x="543" y="-93"/>
      <point x="491" y="-120"/>
      <point x="463" y="-132" type="curve" smooth="yes"/>
      <point x="440" y="-142"/>
      <point x="371" y="-169"/>
      <point x="289" y="-169" type="curve" smooth="yes"/>
      <point x="214" y="-169"/>
      <point x="158" y="-146"/>
      <point x="132" y="-114" type="curve" smooth="yes"/>
      <point x="105" y="-81"/>
      <point x="109" y="-39"/>
      <point x="119" y="19" type="curve"/>
      <point x="100" y="26" type="line"/>
      <point x="84" y="-15"/>
      <point x="74" y="-53"/>
      <point x="71" y="-87" type="curve" smooth="yes"/>
      <point x="68" y="-121"/>
      <point x="72" y="-149"/>
      <point x="83" y="-175" type="curve" smooth="yes"/>
      <point x="98" y="-211"/>
      <point x="124" y="-237"/>
      <point x="160" y="-255" type="curve" smooth="yes"/>
      <point x="196" y="-273"/>
      <point x="237" y="-281"/>
      <point x="282" y="-281" type="curve" smooth="yes"/>
      <point x="343" y="-281"/>
      <point x="404" y="-266"/>
      <point x="457" y="-238" type="curve" smooth="yes"/>
      <point x="491" y="-220"/>
      <point x="524" y="-196"/>
      <point x="550" y="-165" type="curve" smooth="yes"/>
      <point x="574" y="-137"/>
      <point x="590" y="-103"/>
      <point x="590" y="-65" type="curve" smooth="yes"/>
      <point x="590" y="5"/>
      <point x="534" y="25"/>
      <point x="490" y="37" type="curve"/>
      <point x="564" y="75"/>
      <point x="684" y="123"/>
      <point x="794" y="151" type="curve"/>
      <point x="805" y="172"/>
      <point x="810" y="186"/>
      <point x="819" y="212" type="curve"/>
      <point x="783" y="207"/>
      <point x="727" y="192"/>
      <point x="657" y="170" type="curve" smooth="yes"/>
      <point x="608" y="196"/>
      <point x="576" y="226"/>
      <point x="570" y="280" type="curve"/>
      <point x="602" y="303"/>
      <point x="630" y="315"/>
      <point x="677" y="315" type="curve" smooth="yes"/>
      <point x="718" y="315"/>
      <point x="751" y="304"/>
      <point x="763" y="299" type="curve"/>
      <point x="782" y="317" type="line"/>
      <point x="770" y="334"/>
      <point x="721" y="380"/>
      <point x="670" y="380" type="curve" smooth="yes"/>
    </contour>
    <contour>
      <point x="440" y="0" type="move" name="caret_1"/>
    </contour>
    <contour>
      <point x="592" y="-250" type="move" name="bottom_1"/>
    </contour>
    <contour>
      <point x="670" y="410" type="move" name="top_1"/>
    </contour>
    <contour>
      <point x="246" y="11" type="move" name="top_2"/>
    </contour>
    <contour>
      <point x="282" y="-311" type="move" name="bottom_2"/>
    </contour>
  </outline>
</glyph>
<glyph name="uniFD0E" format="1">
  <advance width="699"/>
  <unicode hex="FD0E"/>
  <outline>
    <contour>
      <point x="587" y="247"/>
      <point x="572" y="227"/>
      <point x="561" y="207" type="curve"/>
      <point x="605" y="146" type="line"/>
      <point x="593" y="114"/>
      <point x="575" y="93"/>
      <point x="543" y="93" type="curve" smooth="yes"/>
      <point x="517" y="93"/>
      <point x="496" y="98"/>
      <point x="481" y="111" type="curve" smooth="yes"/>
      <point x="469" y="122"/>
      <point x="462" y="139"/>
      <point x="462" y="165" type="curve" smooth="yes"/>
      <point x="462" y="175"/>
      <point x="463" y="182"/>
      <point x="464" y="189" type="curve"/>
      <point x="442" y="177" type="line"/>
      <point x="441" y="168"/>
      <point x="440" y="158"/>
      <point x="437" y="148" type="curve" smooth="yes"/>
      <point x="429" y="120"/>
      <point x="411" y="93"/>
      <point x="364" y="93" type="curve" smooth="yes"/>
      <point x="333" y="93"/>
      <point x="314" y="105"/>
      <point x="304" y="119" type="curve" smooth="yes"/>
      <point x="298" y="127"/>
      <point x="295" y="137"/>
      <point x="293" y="146" type="curve"/>
      <point x="237" y="125"/>
      <point x="172" y="110"/>
      <point x="126" y="100" type="curve"/>
      <point x="125" y="91"/>
      <point x="122" y="66"/>
      <point x="114" y="27" type="curve"/>
      <point x="122" y="28"/>
      <point x="133" y="30"/>
      <point x="140" y="32" type="curve"/>
      <point x="142" y="21"/>
      <point x="144" y="10"/>
      <point x="144" y="-3" type="curve" smooth="yes"/>
      <point x="144" y="-40"/>
      <point x="128" y="-76"/>
      <point x="100" y="-103" type="curve" smooth="yes"/>
      <point x="54" y="-149"/>
      <point x="-69" y="-211"/>
      <point x="-120" y="-239" type="curve"/>
      <point x="-111" y="-252" type="line"/>
      <point x="-90" y="-246"/>
      <point x="-72" y="-244"/>
      <point x="-57" y="-244" type="curve" smooth="yes"/>
      <point x="-35" y="-244"/>
      <point x="-3" y="-248"/>
      <point x="19" y="-248" type="curve" smooth="yes"/>
      <point x="59" y="-248"/>
      <point x="80" y="-235"/>
      <point x="101" y="-215" type="curve" smooth="yes"/>
      <point x="122" y="-195"/>
      <point x="142" y="-167"/>
      <point x="158" y="-130" type="curve" smooth="yes"/>
      <point x="191" y="-55"/>
      <point x="188" y="15"/>
      <point x="185" y="41" type="curve"/>
      <point x="216" y="48"/>
      <point x="251" y="57"/>
      <point x="279" y="66" type="curve"/>
      <point x="286" y="33"/>
      <point x="307" y="0"/>
      <point x="357" y="0" type="curve" smooth="yes"/>
      <point x="411" y="0"/>
      <point x="440" y="39"/>
      <point x="448" y="74" type="curve"/>
      <point x="452" y="44"/>
      <point x="479" y="7"/>
      <point x="533" y="7" type="curve" smooth="yes"/>
      <point x="571" y="7"/>
      <point x="595" y="26"/>
      <point x="609" y="45" type="curve" smooth="yes"/>
      <point x="636" y="82"/>
      <point x="639" y="138"/>
      <point x="639" y="138" type="curve" smooth="yes"/>
      <point x="639" y="188"/>
      <point x="619" y="242"/>
      <point x="601" y="261" type="curve"/>
    </contour>
    <contour>
      <point x="350" y="0" type="move" name="caret_1"/>
    </contour>
    <contour>
      <point x="452" y="-25" type="move" name="bottom_1"/>
    </contour>
    <contour>
      <point x="448" y="240" type="move" name="top_1"/>
    </contour>
    <contour>
      <point x="104" y="144" type="move" name="top_2"/>
    </contour>
    <contour>
      <point x="-24" y="-278" type="move" name="bottom_2"/>
    </contour>
  </outline>
</glyph>
<glyph name="uniFD13" format="1">
  <advance width="825"/>
  <unicode hex="FD13"/>
  <outline>
    <contour>
      <point x="707" y="98" type="line" smooth="yes"/>
      <point x="682" y="98"/>
      <point x="668" y="104"/>
      <point x="651" y="118" type="curve"/>
      <point x="651" y="118"/>
      <point x="718" y="159"/>
      <point x="718" y="202" type="curve" smooth="yes"/>
      <point x="718" y="247"/>
      <point x="659" y="263"/>
      <point x="604" y="263" type="curve" smooth="yes"/>
      <point x="559" y="263"/>
      <point x="519" y="242"/>
      <point x="509" y="237" type="curve"/>
      <point x="501" y="216"/>
      <point x="495" y="191"/>
      <point x="492" y="165" type="curve"/>
      <point x="526" y="159"/>
      <point x="549" y="143"/>
      <point x="569" y="115" type="curve"/>
      <point x="554" y="102"/>
      <point x="537" y="92"/>
      <point x="516" y="83" type="curve" smooth="yes"/>
      <point x="498" y="74"/>
      <point x="476" y="66"/>
      <point x="451" y="57" type="curve" smooth="yes"/>
      <point x="433" y="51"/>
      <point x="434" y="34"/>
      <point x="426" y="-3" type="curve"/>
      <point x="443" y="-6"/>
      <point x="470" y="-14"/>
      <point x="487" y="-20" type="curve" smooth="yes"/>
      <point x="525" y="-34"/>
      <point x="543" y="-53"/>
      <point x="543" y="-70" type="curve" smooth="yes"/>
      <point x="543" y="-95"/>
      <point x="504" y="-116"/>
      <point x="464" y="-133" type="curve"/>
      <point x="432" y="-148"/>
      <point x="369" y="-169"/>
      <point x="289" y="-169" type="curve" smooth="yes"/>
      <point x="224" y="-169"/>
      <point x="164" y="-155"/>
      <point x="132" y="-115" type="curve" smooth="yes"/>
      <point x="105" y="-82"/>
      <point x="109" y="-40"/>
      <point x="119" y="18" type="curve"/>
      <point x="100" y="25" type="line"/>
      <point x="91" y="2"/>
      <point x="76" y="-37"/>
      <point x="71" y="-81" type="curve" smooth="yes"/>
      <point x="68" y="-112"/>
      <point x="70" y="-146"/>
      <point x="83" y="-177" type="curve" smooth="yes"/>
      <point x="96" y="-208"/>
      <point x="120" y="-236"/>
      <point x="159" y="-256" type="curve" smooth="yes"/>
      <point x="192" y="-273"/>
      <point x="235" y="-282"/>
      <point x="281" y="-282" type="curve" smooth="yes"/>
      <point x="341" y="-282"/>
      <point x="404" y="-267"/>
      <point x="458" y="-239" type="curve" smooth="yes"/>
      <point x="510" y="-212"/>
      <point x="546" y="-175"/>
      <point x="567" y="-137" type="curve" smooth="yes"/>
      <point x="583" y="-108"/>
      <point x="589" y="-81"/>
      <point x="589" y="-61" type="curve" smooth="yes"/>
      <point x="589" y="-11"/>
      <point x="553" y="14"/>
      <point x="517" y="28" type="curve"/>
      <point x="549" y="42"/>
      <point x="574" y="57"/>
      <point x="596" y="74" type="curve"/>
      <point x="604" y="51"/>
      <point x="619" y="34"/>
      <point x="637" y="21" type="curve" smooth="yes"/>
      <point x="659" y="7"/>
      <point x="685" y="0"/>
      <point x="711" y="0" type="curve" smooth="yes"/>
      <point x="825" y="0" type="line"/>
      <point x="825" y="98" type="line"/>
    </contour>
    <contour>
      <point x="393" y="0" type="move" name="caret_1"/>
    </contour>
    <contour>
      <point x="559" y="-264" type="move" name="bottom_1"/>
    </contour>
    <contour>
      <point x="581" y="293" type="move" name="top_1"/>
    </contour>
    <contour>
      <point x="256" y="7" type="move" name="top_2"/>
    </contour>
    <contour>
      <point x="281" y="-312" type="move" name="bottom_2"/>
    </contour>
  </outline>
</glyph>
<glyph name="uniFD17" format="1">
  <advance width="1029"/>
  <unicode hex="FD17"/>
  <outline>
    <contour>
      <point x="993" y="98" type="line" smooth="yes"/>
      <point x="965" y="98"/>
      <point x="947" y="105"/>
      <point x="934" y="120" type="curve" smooth="yes"/>
      <point x="916" y="140"/>
      <point x="918" y="167"/>
      <point x="920" y="190" type="curve"/>
      <point x="898" y="178" type="line"/>
      <point x="897" y="163"/>
      <point x="894" y="143"/>
      <point x="886" y="127" type="curve" smooth="yes"/>
      <point x="877" y="109"/>
      <point x="862" y="95"/>
      <point x="833" y="95" type="curve" smooth="yes"/>
      <point x="789" y="95"/>
      <point x="775" y="127"/>
      <point x="774" y="160" type="curve"/>
      <point x="773" y="172"/>
      <point x="774" y="183"/>
      <point x="775" y="190" type="curve"/>
      <point x="753" y="178" type="line"/>
      <point x="752" y="169"/>
      <point x="751" y="160"/>
      <point x="748" y="149" type="curve" smooth="yes"/>
      <point x="736" y="109"/>
      <point x="713" y="94"/>
      <point x="662" y="94" type="curve" smooth="yes"/>
      <point x="644" y="94"/>
      <point x="601" y="96"/>
      <point x="558" y="165" type="curve" smooth="yes"/>
      <point x="543" y="189"/>
      <point x="532" y="205"/>
      <point x="506" y="205" type="curve" smooth="yes"/>
      <point x="480" y="205"/>
      <point x="454" y="188"/>
      <point x="431" y="155" type="curve"/>
      <point x="414" y="133"/>
      <point x="398" y="102"/>
      <point x="384" y="66" type="curve" smooth="yes"/>
      <point x="370" y="30"/>
      <point x="364" y="3"/>
      <point x="374" y="-17" type="curve" smooth="yes"/>
      <point x="381" y="-31"/>
      <point x="399" y="-46"/>
      <point x="435" y="-56" type="curve" smooth="yes"/>
      <point x="461" y="-63"/>
      <point x="494" y="-67"/>
      <point x="534" y="-70" type="curve"/>
      <point x="524" y="-97"/>
      <point x="495" y="-126"/>
      <point x="447" y="-145" type="curve" smooth="yes"/>
      <point x="399" y="-164"/>
      <point x="339" y="-171"/>
      <point x="296" y="-171" type="curve" smooth="yes"/>
      <point x="241" y="-171"/>
      <point x="167" y="-160"/>
      <point x="133" y="-115" type="curve" smooth="yes"/>
      <point x="118" y="-95"/>
      <point x="110" y="-68"/>
      <point x="112" y="-32" type="curve"/>
      <point x="112" y="-18"/>
      <point x="115" y="-1"/>
      <point x="119" y="17" type="curve"/>
      <point x="100" y="26" type="line"/>
      <point x="77" y="-27"/>
      <point x="68" y="-83"/>
      <point x="70" y="-119" type="curve" smooth="yes"/>
      <point x="71" y="-142"/>
      <point x="80" y="-192"/>
      <point x="117" y="-228" type="curve" smooth="yes"/>
      <point x="149" y="-259"/>
      <point x="202" y="-283"/>
      <point x="283" y="-283" type="curve" smooth="yes"/>
      <point x="368" y="-283"/>
      <point x="445" y="-256"/>
      <point x="498" y="-214" type="curve" smooth="yes"/>
      <point x="525" y="-192"/>
      <point x="549" y="-166"/>
      <point x="566" y="-136" type="curve" smooth="yes"/>
      <point x="580" y="-110"/>
      <point x="588" y="-84"/>
      <point x="588" y="-61" type="curve" smooth="yes"/>
      <point x="588" y="-27"/>
      <point x="571" y="0"/>
      <point x="530" y="5" type="curve" smooth="yes"/>
      <point x="494" y="9"/>
      <point x="483" y="10"/>
      <point x="452" y="17" type="curve" smooth="yes"/>
      <point x="438" y="20"/>
      <point x="425" y="31"/>
      <point x="428" y="53" type="curve"/>
      <point x="429" y="67"/>
      <point x="448" y="115"/>
      <point x="491" y="115" type="curve" smooth="yes"/>
      <point x="520" y="115"/>
      <point x="535" y="94"/>
      <point x="554" y="68" type="curve" smooth="yes"/>
      <point x="570" y="47"/>
      <point x="583" y="31"/>
      <point x="604" y="18" type="curve" smooth="yes"/>
      <point x="620" y="8"/>
      <point x="640" y="2"/>
      <point x="665" y="2" type="curve" smooth="yes"/>
      <point x="722" y="2"/>
      <point x="751" y="35"/>
      <point x="759" y="75" type="curve"/>
      <point x="757" y="37"/>
      <point x="780" y="0"/>
      <point x="828" y="0" type="curve" smooth="yes"/>
      <point x="884" y="0"/>
      <point x="900" y="49"/>
      <point x="905" y="75" type="curve"/>
      <point x="905" y="33"/>
      <point x="933" y="0"/>
      <point x="991" y="0" type="curve" smooth="yes"/>
      <point x="1029" y="0" type="line"/>
      <point x="1029" y="98" type="line"/>
    </contour>
    <contour>
      <point x="515" y="0" type="move" name="caret_1"/>
    </contour>
    <contour>
      <point x="750" y="-25" type="move" name="bottom_1"/>
    </contour>
    <contour>
      <point x="758" y="230" type="move" name="top_1"/>
    </contour>
    <contour>
      <point x="218" y="25" type="move" name="top_2"/>
    </contour>
    <contour>
      <point x="283" y="-313" type="move" name="bottom_2"/>
    </contour>
  </outline>
</glyph>
<glyph name="uniFD21" format="1">
  <advance width="1158"/>
  <unicode hex="FD21"/>
  <outline>
    <contour>
      <point x="1064" y="98" type="line" smooth="yes"/>
      <point x="1018" y="98"/>
      <point x="961" y="80"/>
      <point x="942" y="73" type="curve"/>
      <point x="956" y="83"/>
      <point x="967" y="93"/>
      <point x="979" y="107" type="curve" smooth="yes"/>
      <point x="1010" y="143"/>
      <point x="1034" y="185"/>
      <point x="1034" y="222" type="curve" smooth="yes"/>
      <point x="1034" y="229"/>
      <point x="1033" y="268"/>
      <point x="998" y="295" type="curve" smooth="yes"/>
      <point x="980" y="309"/>
      <point x="952" y="320"/>
      <point x="925" y="320" type="curve" smooth="yes"/>
      <point x="896" y="320"/>
      <point x="870" y="308"/>
      <point x="843" y="291" type="curve" smooth="yes"/>
      <point x="805" y="267"/>
      <point x="771" y="232"/>
      <point x="758" y="218" type="curve" smooth="yes"/>
      <point x="709" y="165"/>
      <point x="670" y="103"/>
      <point x="667" y="98" type="curve"/>
      <point x="626" y="99"/>
      <point x="591" y="114"/>
      <point x="558" y="165" type="curve" smooth="yes"/>
      <point x="542" y="190"/>
      <point x="532" y="205"/>
      <point x="505" y="205" type="curve" smooth="yes"/>
      <point x="475" y="205"/>
      <point x="454" y="186"/>
      <point x="431" y="154" type="curve" smooth="yes"/>
      <point x="418" y="136"/>
      <point x="397" y="103"/>
      <point x="383" y="66" type="curve" smooth="yes"/>
      <point x="369" y="29"/>
      <point x="366" y="0"/>
      <point x="374" y="-17" type="curve" smooth="yes"/>
      <point x="382" y="-34"/>
      <point x="406" y="-48"/>
      <point x="435" y="-56" type="curve" smooth="yes"/>
      <point x="461" y="-63"/>
      <point x="494" y="-67"/>
      <point x="534" y="-70" type="curve"/>
      <point x="524" y="-97"/>
      <point x="495" y="-126"/>
      <point x="447" y="-145" type="curve" smooth="yes"/>
      <point x="399" y="-164"/>
      <point x="338" y="-171"/>
      <point x="295" y="-171" type="curve" smooth="yes"/>
      <point x="233" y="-171"/>
      <point x="164" y="-156"/>
      <point x="133" y="-116" type="curve" smooth="yes"/>
      <point x="116" y="-94"/>
      <point x="112" y="-66"/>
      <point x="112" y="-36" type="curve" smooth="yes"/>
      <point x="112" y="-21"/>
      <point x="113" y="-10"/>
      <point x="119" y="17" type="curve"/>
      <point x="100" y="26" type="line"/>
      <point x="77" y="-27"/>
      <point x="68" y="-83"/>
      <point x="70" y="-119" type="curve" smooth="yes"/>
      <point x="71" y="-145"/>
      <point x="81" y="-193"/>
      <point x="117" y="-228" type="curve" smooth="yes"/>
      <point x="149" y="-259"/>
      <point x="202" y="-283"/>
      <point x="283" y="-283" type="curve" smooth="yes"/>
      <point x="369" y="-283"/>
      <point x="445" y="-256"/>
      <point x="498" y="-214" type="curve" smooth="yes"/>
      <point x="522" y="-195"/>
      <point x="550" y="-165"/>
      <point x="566" y="-136" type="curve" smooth="yes"/>
      <point x="580" y="-110"/>
      <point x="588" y="-84"/>
      <point x="588" y="-61" type="curve" smooth="yes"/>
      <point x="588" y="-27"/>
      <point x="571" y="0"/>
      <point x="530" y="5" type="curve" smooth="yes"/>
      <point x="494" y="9"/>
      <point x="483" y="10"/>
      <point x="452" y="17" type="curve" smooth="yes"/>
      <point x="438" y="20"/>
      <point x="425" y="31"/>
      <point x="428" y="53" type="curve"/>
      <point x="429" y="65"/>
      <point x="446" y="115"/>
      <point x="492" y="115" type="curve" smooth="yes"/>
      <point x="523" y="115"/>
      <point x="541" y="92"/>
      <point x="557" y="71" type="curve" smooth="yes"/>
      <point x="575" y="47"/>
      <point x="592" y="26"/>
      <point x="639" y="14" type="curve"/>
      <point x="632" y="-17" type="line"/>
      <point x="660" y="-17" type="line"/>
      <point x="668" y="9" type="line"/>
      <point x="691" y="4"/>
      <point x="715" y="4"/>
      <point x="753" y="4" type="curve" smooth="yes"/>
      <point x="785" y="4"/>
      <point x="938" y="2"/>
      <point x="979" y="1" type="curve" smooth="yes"/>
      <point x="1007" y="1"/>
      <point x="1028" y="0"/>
      <point x="1058" y="0" type="curve" smooth="yes"/>
      <point x="1158" y="0" type="line" smooth="yes"/>
      <point x="1158" y="98" type="line" smooth="yes"/>
    </contour>
    <contour>
      <point x="972" y="134"/>
      <point x="933" y="119"/>
      <point x="897" y="109" type="curve" smooth="yes"/>
      <point x="874" y="103"/>
      <point x="847" y="98"/>
      <point x="818" y="98" type="curve" smooth="yes"/>
      <point x="703" y="98" type="line" smooth="yes"/>
      <point x="703" y="98"/>
      <point x="733" y="144"/>
      <point x="773" y="184" type="curve" smooth="yes"/>
      <point x="811" y="222"/>
      <point x="847" y="246"/>
      <point x="888" y="246" type="curve" smooth="yes"/>
      <point x="932" y="246"/>
      <point x="972" y="218"/>
      <point x="972" y="176" type="curve" smooth="yes"/>
    </contour>
    <contour>
      <point x="559" y="0" type="move" name="caret_1"/>
    </contour>
    <contour>
      <point x="790" y="-26" type="move" name="bottom_1"/>
    </contour>
    <contour>
      <point x="905" y="350" type="move" name="top_1"/>
    </contour>
    <contour>
      <point x="219" y="20" type="move" name="top_2"/>
    </contour>
    <contour>
      <point x="283" y="-313" type="move" name="bottom_2"/>
    </contour>
  </outline>
</glyph>
<glyph name="uniFD3F" format="1">
  <advance width="470"/>
  <unicode hex="FD3F"/>
  <outline>
    <contour>
      <point x="403" y="213"/>
      <point x="371" y="221"/>
      <point x="327" y="228" type="curve"/>
      <point x="324" y="252"/>
      <point x="316" y="274"/>
      <point x="304" y="289" type="curve"/>
      <point x="293" y="301"/>
      <point x="280" y="309"/>
      <point x="263" y="309" type="curve"/>
      <point x="264" y="301"/>
      <point x="271" y="240"/>
      <point x="199" y="199" type="curve"/>
      <point x="210" y="208"/>
      <point x="223" y="224"/>
      <point x="226" y="259" type="curve" smooth="yes"/>
      <point x="233" y="337"/>
      <point x="169" y="360"/>
      <point x="169" y="401" type="curve" smooth="yes"/>
      <point x="169" y="423"/>
      <point x="189" y="432"/>
      <point x="206" y="426" type="curve"/>
      <point x="197" y="442"/>
      <point x="187" y="447"/>
      <point x="175" y="447" type="curve" smooth="yes"/>
      <point x="161" y="447"/>
      <point x="154" y="441"/>
      <point x="141" y="430" type="curve"/>
      <point x="98" y="472"/>
      <point x="72" y="524"/>
      <point x="57" y="585" type="curve"/>
      <point x="70" y="578"/>
      <point x="85" y="571"/>
      <point x="99" y="571" type="curve" smooth="yes"/>
      <point x="122" y="571"/>
      <point x="141" y="590"/>
      <point x="141" y="609" type="curve" smooth="yes"/>
      <point x="141" y="623"/>
      <point x="130" y="652"/>
      <point x="98" y="652" type="curve" smooth="yes"/>
      <point x="59" y="652"/>
      <point x="29" y="611"/>
      <point x="30" y="566" type="curve"/>
      <point x="26" y="505"/>
      <point x="74" y="433"/>
      <point x="148" y="351" type="curve"/>
      <point x="146" y="345"/>
      <point x="141" y="338"/>
      <point x="144" y="329" type="curve"/>
      <point x="149" y="318"/>
      <point x="173" y="323"/>
      <point x="190" y="306" type="curve"/>
      <point x="210" y="280"/>
      <point x="204" y="261"/>
      <point x="190" y="223" type="curve"/>
      <point x="188" y="251"/>
      <point x="172" y="268"/>
      <point x="147" y="268" type="curve" smooth="yes"/>
      <point x="122" y="268"/>
      <point x="106" y="250"/>
      <point x="106" y="228" type="curve" smooth="yes"/>
      <point x="106" y="210"/>
      <point x="116" y="198"/>
      <point x="125" y="192" type="curve"/>
      <point x="117" y="187"/>
      <point x="106" y="175"/>
      <point x="106" y="157" type="curve" smooth="yes"/>
      <point x="106" y="136"/>
      <point x="121" y="116"/>
      <point x="148" y="116" type="curve" smooth="yes"/>
      <point x="173" y="116"/>
      <point x="190" y="134"/>
      <point x="190" y="162" type="curve"/>
      <point x="203" y="130"/>
      <point x="210" y="104"/>
      <point x="190" y="79" type="curve"/>
      <point x="173" y="61"/>
      <point x="149" y="67"/>
      <point x="144" y="55" type="curve"/>
      <point x="141" y="49"/>
      <point x="145" y="42"/>
      <point x="148" y="34" type="curve"/>
      <point x="81" y="-34"/>
      <point x="26" y="-123"/>
      <point x="30" y="-181" type="curve"/>
      <point x="29" y="-215"/>
      <point x="51" y="-268"/>
      <point x="97" y="-268" type="curve" smooth="yes"/>
      <point x="131" y="-268"/>
      <point x="141" y="-238"/>
      <point x="141" y="-225" type="curve" smooth="yes"/>
      <point x="141" y="-207"/>
      <point x="124" y="-187"/>
      <point x="97" y="-187" type="curve" smooth="yes"/>
      <point x="85" y="-187"/>
      <point x="76" y="-191"/>
      <point x="57" y="-200" type="curve"/>
      <point x="65" y="-145"/>
      <point x="95" y="-90"/>
      <point x="141" y="-45" type="curve"/>
      <point x="152" y="-54"/>
      <point x="162" y="-62"/>
      <point x="176" y="-62" type="curve" smooth="yes"/>
      <point x="186" y="-62"/>
      <point x="197" y="-57"/>
      <point x="206" y="-41" type="curve"/>
      <point x="189" y="-47"/>
      <point x="169" y="-40"/>
      <point x="169" y="-16" type="curve" smooth="yes"/>
      <point x="169" y="25"/>
      <point x="233" y="48"/>
      <point x="226" y="125" type="curve" smooth="yes"/>
      <point x="223" y="156"/>
      <point x="212" y="174"/>
      <point x="200" y="185" type="curve"/>
      <point x="270" y="144"/>
      <point x="264" y="83"/>
      <point x="263" y="75" type="curve"/>
      <point x="282" y="75"/>
      <point x="297" y="85"/>
      <point x="308" y="101" type="curve" smooth="yes"/>
      <point x="318" y="115"/>
      <point x="325" y="134"/>
      <point x="327" y="157" type="curve"/>
      <point x="367" y="163"/>
      <point x="402" y="170"/>
      <point x="420" y="192" type="curve"/>
    </contour>
  </outline>
</glyph>
<glyph name="uniFEB2" format="1">
  <advance width="919"/>
  <unicode hex="FEB2"/>
  <outline>
    <contour>
      <point x="873" y="98" type="line" smooth="yes"/>
      <point x="845" y="98"/>
      <point x="827" y="105"/>
      <point x="814" y="119" type="curve" smooth="yes"/>
      <point x="796" y="140"/>
      <point x="798" y="167"/>
      <point x="800" y="190" type="curve"/>
      <point x="778" y="178" type="line"/>
      <point x="776" y="145"/>
      <point x="766" y="95"/>
      <point x="711" y="95" type="curve" smooth="yes"/>
      <point x="646" y="95"/>
      <point x="652" y="167"/>
      <point x="655" y="190" type="curve"/>
      <point x="633" y="178" type="line"/>
      <point x="631" y="148"/>
      <point x="616" y="95"/>
      <point x="561" y="95" type="curve" smooth="yes"/>
      <point x="511" y="95"/>
      <point x="473" y="139"/>
      <point x="459" y="158" type="curve"/>
      <point x="445" y="141"/>
      <point x="426" y="117"/>
      <point x="412" y="90" type="curve"/>
      <point x="415" y="86"/>
      <point x="488" y="-15"/>
      <point x="488" y="-64" type="curve" smooth="yes"/>
      <point x="488" y="-92"/>
      <point x="466" y="-119"/>
      <point x="431" y="-139" type="curve" smooth="yes"/>
      <point x="396" y="-159"/>
      <point x="349" y="-171"/>
      <point x="292" y="-171" type="curve" smooth="yes"/>
      <point x="214" y="-171"/>
      <point x="159" y="-149"/>
      <point x="132" y="-115" type="curve" smooth="yes"/>
      <point x="106" y="-82"/>
      <point x="109" y="-41"/>
      <point x="119" y="16" type="curve"/>
      <point x="100" y="23" type="line"/>
      <point x="82" y="-20"/>
      <point x="73" y="-62"/>
      <point x="71" y="-90" type="curve" smooth="yes"/>
      <point x="69" y="-119"/>
      <point x="72" y="-149"/>
      <point x="84" y="-178" type="curve" smooth="yes"/>
      <point x="98" y="-213"/>
      <point x="124" y="-239"/>
      <point x="156" y="-256" type="curve" smooth="yes"/>
      <point x="191" y="-275"/>
      <point x="234" y="-284"/>
      <point x="284" y="-284" type="curve" smooth="yes"/>
      <point x="321" y="-284"/>
      <point x="354" y="-279"/>
      <point x="384" y="-269" type="curve" smooth="yes"/>
      <point x="411" y="-260"/>
      <point x="436" y="-248"/>
      <point x="460" y="-226" type="curve" smooth="yes"/>
      <point x="505" y="-185"/>
      <point x="528" y="-121"/>
      <point x="528" y="-50" type="curve" smooth="yes"/>
      <point x="528" y="-35"/>
      <point x="527" y="-15"/>
      <point x="524" y="7" type="curve"/>
      <point x="529" y="5"/>
      <point x="541" y="2"/>
      <point x="556" y="2" type="curve" smooth="yes"/>
      <point x="597" y="2"/>
      <point x="625" y="24"/>
      <point x="639" y="75" type="curve"/>
      <point x="643" y="35"/>
      <point x="665" y="0"/>
      <point x="712" y="0" type="curve" smooth="yes"/>
      <point x="768" y="0"/>
      <point x="780" y="49"/>
      <point x="784" y="75" type="curve"/>
      <point x="787" y="48"/>
      <point x="805" y="0"/>
      <point x="876" y="0" type="curve"/>
      <point x="919" y="0" type="line"/>
      <point x="919" y="98" type="line"/>
    </contour>
    <contour>
      <point x="639" y="228" type="move" name="top"/>
    </contour>
    <contour>
      <point x="284" y="-314" type="move" name="bottom"/>
    </contour>
    <contour>
      <point x="638" y="-101" type="move" name="center"/>
    </contour>
  </outline>
</glyph>
<glyph name="uniFEB4" format="1">
  <advance width="549"/>
  <unicode hex="FEB4"/>
  <outline>
    <contour>
      <point x="513" y="98" type="line" smooth="yes"/>
      <point x="485" y="98"/>
      <point x="467" y="105"/>
      <point x="454" y="120" type="curve" smooth="yes"/>
      <point x="436" y="140"/>
      <point x="438" y="167"/>
      <point x="440" y="190" type="curve"/>
      <point x="418" y="178" type="line"/>
      <point x="417" y="162"/>
      <point x="414" y="142"/>
      <point x="405" y="126" type="curve" smooth="yes"/>
      <point x="396" y="108"/>
      <point x="380" y="95"/>
      <point x="354" y="95" type="curve" smooth="yes"/>
      <point x="306" y="95"/>
      <point x="295" y="130"/>
      <point x="294" y="160" type="curve" smooth="yes"/>
      <point x="293" y="172"/>
      <point x="294" y="183"/>
      <point x="295" y="190" type="curve"/>
      <point x="273" y="178" type="line"/>
      <point x="272" y="159"/>
      <point x="267" y="137"/>
      <point x="254" y="120" type="curve" smooth="yes"/>
      <point x="243" y="105"/>
      <point x="225" y="94"/>
      <point x="197" y="94" type="curve" smooth="yes"/>
      <point x="141" y="94"/>
      <point x="128" y="124"/>
      <point x="125" y="152" type="curve" smooth="yes"/>
      <point x="124" y="167"/>
      <point x="126" y="182"/>
      <point x="127" y="190" type="curve"/>
      <point x="105" y="178" type="line"/>
      <point x="101" y="161"/>
      <point x="101" y="148"/>
      <point x="90" y="131" type="curve" smooth="yes"/>
      <point x="75" y="109"/>
      <point x="53" y="98"/>
      <point x="25" y="98" type="curve" smooth="yes"/>
      <point x="-20" y="98" type="line" smooth="yes"/>
      <point x="-47" y="98"/>
      <point x="-70" y="75"/>
      <point x="-70" y="48" type="curve" smooth="yes"/>
      <point x="-70" y="20"/>
      <point x="-47" y="0"/>
      <point x="-20" y="0" type="curve" smooth="yes"/>
      <point x="18" y="0" type="line" smooth="yes"/>
      <point x="75" y="0"/>
      <point x="101" y="34"/>
      <point x="108" y="75" type="curve"/>
      <point x="107" y="36"/>
      <point x="134" y="-2"/>
      <point x="187" y="-2" type="curve" smooth="yes"/>
      <point x="244" y="-2"/>
      <point x="269" y="38"/>
      <point x="279" y="75" type="curve"/>
      <point x="277" y="37"/>
      <point x="301" y="-2"/>
      <point x="346" y="-2" type="curve" smooth="yes"/>
      <point x="405" y="-2"/>
      <point x="420" y="49"/>
      <point x="425" y="75" type="curve"/>
      <point x="425" y="33"/>
      <point x="453" y="0"/>
      <point x="511" y="0" type="curve"/>
      <point x="549" y="0" type="line"/>
      <point x="549" y="98" type="line"/>
    </contour>
    <contour>
      <point x="279" y="229" type="move" name="top"/>
    </contour>
    <contour>
      <point x="279" y="-25" type="move" name="bottom"/>
    </contour>
  </outline>
</glyph>
<glyph name="uniFEBB" format="1">
  <advance width="608"/>
  <unicode hex="FEBB"/>
  <outline>
    <contour>
      <point x="548" y="242"/>
      <point x="542" y="271"/>
      <point x="512" y="294" type="curve" smooth="yes"/>
      <point x="493" y="309"/>
      <point x="464" y="321"/>
      <point x="439" y="321" type="curve" smooth="yes"/>
      <point x="380" y="321"/>
      <point x="308" y="256"/>
      <point x="272" y="218" type="curve" smooth="yes"/>
      <point x="224" y="167"/>
      <point x="188" y="110"/>
      <point x="181" y="98" type="curve"/>
      <point x="163" y="100"/>
      <point x="149" y="108"/>
      <point x="137" y="122" type="curve" smooth="yes"/>
      <point x="120" y="141"/>
      <point x="118" y="164"/>
      <point x="123" y="199" type="curve"/>
      <point x="101" y="187" type="line"/>
      <point x="98" y="164"/>
      <point x="94" y="149"/>
      <point x="82" y="132" type="curve" smooth="yes"/>
      <point x="68" y="112"/>
      <point x="50" y="98"/>
      <point x="17" y="98" type="curve" smooth="yes"/>
      <point x="-22" y="98" type="line" smooth="yes"/>
      <point x="-49" y="98"/>
      <point x="-70" y="77"/>
      <point x="-70" y="48" type="curve" smooth="yes"/>
      <point x="-70" y="28"/>
      <point x="-60" y="0"/>
      <point x="-22" y="0" type="curve" smooth="yes"/>
      <point x="16" y="0" type="line" smooth="yes"/>
      <point x="67" y="0"/>
      <point x="96" y="24"/>
      <point x="105" y="68" type="curve"/>
      <point x="112" y="44"/>
      <point x="127" y="25"/>
      <point x="154" y="17" type="curve"/>
      <point x="146" y="-17" type="line"/>
      <point x="174" y="-17" type="line"/>
      <point x="182" y="9" type="line"/>
      <point x="206" y="4"/>
      <point x="229" y="4"/>
      <point x="267" y="4" type="curve" smooth="yes"/>
      <point x="328" y="4"/>
      <point x="402" y="31"/>
      <point x="455" y="72" type="curve" smooth="yes"/>
      <point x="483" y="94"/>
      <point x="507" y="120"/>
      <point x="522" y="145" type="curve" smooth="yes"/>
      <point x="539" y="173"/>
      <point x="548" y="205"/>
      <point x="548" y="225" type="curve" smooth="yes"/>
    </contour>
    <contour>
      <point x="477" y="143"/>
      <point x="461" y="130"/>
      <point x="428" y="116" type="curve" smooth="yes"/>
      <point x="404" y="106"/>
      <point x="372" y="98"/>
      <point x="332" y="98" type="curve" smooth="yes"/>
      <point x="217" y="98" type="line" smooth="yes"/>
      <point x="237" y="126"/>
      <point x="265" y="161"/>
      <point x="286" y="183" type="curve" smooth="yes"/>
      <point x="329" y="226"/>
      <point x="362" y="246"/>
      <point x="399" y="246" type="curve" smooth="yes"/>
      <point x="437" y="246"/>
      <point x="462" y="224"/>
      <point x="476" y="208" type="curve" smooth="yes"/>
      <point x="486" y="196"/>
      <point x="490" y="186"/>
      <point x="496" y="165" type="curve" smooth="yes"/>
    </contour>
    <contour>
      <point x="419" y="351" type="move" name="top"/>
    </contour>
    <contour>
      <point x="285" y="-25" type="move" name="bottom"/>
    </contour>
  </outline>
</glyph>
<glyph name="uniFEC3" format="1">
  <advance width="465"/>
  <unicode hex="FEC3"/>
  <outline>
    <contour>
      <point x="405" y="230"/>
      <point x="400" y="255"/>
      <point x="368" y="280" type="curve" smooth="yes"/>
      <point x="347" y="297"/>
      <point x="321" y="308"/>
      <point x="301" y="308" type="curve" smooth="yes"/>
      <point x="246" y="308"/>
      <point x="198" y="279"/>
      <point x="130" y="204" type="curve" smooth="yes"/>
      <point x="128" y="202"/>
      <point x="113" y="185"/>
      <point x="111" y="183" type="curve"/>
      <point x="111" y="183"/>
      <point x="120" y="217"/>
      <point x="117" y="276" type="curve" smooth="yes"/>
      <point x="116" y="302"/>
      <point x="113" y="344"/>
      <point x="106" y="396" type="curve" smooth="yes"/>
      <point x="103" y="440"/>
      <point x="109" y="462"/>
      <point x="133" y="482" type="curve"/>
      <point x="104" y="513"/>
      <point x="83" y="549"/>
      <point x="73" y="568" type="curve"/>
      <point x="24" y="492" type="line"/>
      <point x="28" y="482"/>
      <point x="37" y="457"/>
      <point x="47" y="410" type="curve" smooth="yes"/>
      <point x="58" y="358"/>
      <point x="76" y="263"/>
      <point x="80" y="151" type="curve"/>
      <point x="68" y="137"/>
      <point x="56" y="122"/>
      <point x="37" y="98" type="curve"/>
      <point x="-22" y="98" type="line" smooth="yes"/>
      <point x="-49" y="98"/>
      <point x="-70" y="77"/>
      <point x="-70" y="49" type="curve" smooth="yes"/>
      <point x="-70" y="22"/>
      <point x="-50" y="0"/>
      <point x="-22" y="0" type="curve" smooth="yes"/>
      <point x="57" y="0" type="line" smooth="yes"/>
      <point x="80" y="0"/>
      <point x="111" y="1"/>
      <point x="136" y="2" type="curve" smooth="yes"/>
      <point x="198" y="4"/>
      <point x="265" y="29"/>
      <point x="317" y="68" type="curve" smooth="yes"/>
      <point x="374" y="110"/>
      <point x="405" y="163"/>
      <point x="405" y="217" type="curve" smooth="yes"/>
    </contour>
    <contour>
      <point x="331" y="141"/>
      <point x="314" y="127"/>
      <point x="282" y="114" type="curve" smooth="yes"/>
      <point x="257" y="105"/>
      <point x="227" y="98"/>
      <point x="189" y="98" type="curve" smooth="yes"/>
      <point x="78" y="98" type="line" smooth="yes"/>
      <point x="95" y="117"/>
      <point x="109" y="134"/>
      <point x="124" y="149" type="curve" smooth="yes"/>
      <point x="160" y="186"/>
      <point x="213" y="229"/>
      <point x="257" y="229" type="curve" smooth="yes"/>
      <point x="309" y="229"/>
      <point x="333" y="209"/>
      <point x="354" y="165" type="curve" smooth="yes"/>
    </contour>
    <contour>
      <point x="281" y="338" type="move" name="top"/>
    </contour>
    <contour>
      <point x="116" y="-25" type="move" name="bottom"/>
    </contour>
  </outline>
</glyph>
<glyph name="uniFEC4" format="1">
  <advance width="550"/>
  <unicode hex="FEC4"/>
  <outline>
    <contour>
      <point x="400" y="98"/>
      <point x="344" y="81"/>
      <point x="324" y="73" type="curve"/>
      <point x="377" y="114"/>
      <point x="405" y="165"/>
      <point x="405" y="217" type="curve" smooth="yes"/>
      <point x="405" y="230"/>
      <point x="400" y="255"/>
      <point x="368" y="280" type="curve" smooth="yes"/>
      <point x="347" y="297"/>
      <point x="321" y="308"/>
      <point x="301" y="308" type="curve" smooth="yes"/>
      <point x="246" y="308"/>
      <point x="198" y="279"/>
      <point x="130" y="204" type="curve"/>
      <point x="126" y="200"/>
      <point x="118" y="191"/>
      <point x="111" y="183" type="curve"/>
      <point x="111" y="183"/>
      <point x="120" y="217"/>
      <point x="117" y="276" type="curve" smooth="yes"/>
      <point x="116" y="302"/>
      <point x="113" y="344"/>
      <point x="106" y="396" type="curve"/>
      <point x="103" y="440"/>
      <point x="109" y="462"/>
      <point x="133" y="482" type="curve"/>
      <point x="104" y="513"/>
      <point x="83" y="549"/>
      <point x="73" y="568" type="curve"/>
      <point x="24" y="492" type="line"/>
      <point x="28" y="482"/>
      <point x="37" y="457"/>
      <point x="47" y="410" type="curve" smooth="yes"/>
      <point x="58" y="358"/>
      <point x="76" y="263"/>
      <point x="80" y="151" type="curve"/>
      <point x="68" y="137"/>
      <point x="56" y="122"/>
      <point x="37" y="98" type="curve"/>
      <point x="-22" y="98" type="line" smooth="yes"/>
      <point x="-51" y="98"/>
      <point x="-70" y="77"/>
      <point x="-70" y="49" type="curve" smooth="yes"/>
      <point x="-70" y="23"/>
      <point x="-48" y="0"/>
      <point x="-22" y="0" type="curve" smooth="yes"/>
      <point x="15" y="0" type="line" smooth="yes"/>
      <point x="18" y="0"/>
      <point x="103" y="1"/>
      <point x="109" y="1" type="curve" smooth="yes"/>
      <point x="140" y="1"/>
      <point x="319" y="2"/>
      <point x="360" y="1" type="curve" smooth="yes"/>
      <point x="388" y="1"/>
      <point x="409" y="0"/>
      <point x="439" y="0" type="curve" smooth="yes"/>
      <point x="550" y="0" type="line"/>
      <point x="550" y="98" type="line"/>
      <point x="445" y="98" type="line" smooth="yes"/>
    </contour>
    <contour>
      <point x="257" y="105"/>
      <point x="227" y="98"/>
      <point x="189" y="98" type="curve" smooth="yes"/>
      <point x="78" y="98" type="line"/>
      <point x="95" y="117"/>
      <point x="109" y="134"/>
      <point x="124" y="149" type="curve" smooth="yes"/>
      <point x="160" y="186"/>
      <point x="213" y="229"/>
      <point x="257" y="229" type="curve" smooth="yes"/>
      <point x="309" y="229"/>
      <point x="333" y="209"/>
      <point x="354" y="165" type="curve"/>
      <point x="331" y="141"/>
      <point x="314" y="127"/>
      <point x="282" y="114" type="curve"/>
    </contour>
    <contour>
      <point x="281" y="338" type="move" name="top"/>
    </contour>
    <contour>
      <point x="159" y="-25" type="move" name="bottom"/>
    </contour>
  </outline>
</glyph>
<glyph name="uniFEDB" format="1">
  <advance width="264"/>
  <unicode hex="FEDB"/>
  <outline>
    <contour>
      <point x="255" y="510"/>
      <point x="260" y="537"/>
      <point x="264" y="568" type="curve"/>
      <point x="190" y="533"/>
      <point x="67" y="472"/>
      <point x="-8" y="410" type="curve"/>
      <point x="-15" y="383"/>
      <point x="-20" y="363"/>
      <point x="-24" y="327" type="curve"/>
      <point x="3" y="297" type="line"/>
      <point x="12" y="315" type="line"/>
      <point x="69" y="269"/>
      <point x="149" y="187"/>
      <point x="149" y="139" type="curve"/>
      <point x="141" y="121"/>
      <point x="109" y="98"/>
      <point x="73" y="98" type="curve" smooth="yes"/>
      <point x="-21" y="98" type="line" smooth="yes"/>
      <point x="-48" y="98"/>
      <point x="-70" y="76"/>
      <point x="-70" y="49" type="curve" smooth="yes"/>
      <point x="-70" y="21"/>
      <point x="-48" y="0"/>
      <point x="-21" y="0" type="curve" smooth="yes"/>
      <point x="71" y="0" type="line" smooth="yes"/>
      <point x="149" y="0"/>
      <point x="195" y="46"/>
      <point x="195" y="128" type="curve" smooth="yes"/>
      <point x="195" y="192"/>
      <point x="167" y="254"/>
      <point x="134" y="297" type="curve" smooth="yes"/>
      <point x="113" y="324"/>
      <point x="81" y="353"/>
      <point x="45" y="378" type="curve"/>
      <point x="122" y="421"/>
      <point x="198" y="457"/>
      <point x="247" y="480" type="curve"/>
    </contour>
    <contour>
      <point x="87" y="518" type="move" name="top"/>
    </contour>
    <contour>
      <point x="24" y="-24" type="move" name="bottom"/>
    </contour>
  </outline>
</glyph>
<glyph name="uniFEEA" format="1">
  <advance width="433"/>
  <unicode hex="FEEA"/>
  <outline>
    <contour>
      <point x="390" y="98" type="line" smooth="yes"/>
      <point x="359" y="98"/>
      <point x="341" y="107"/>
      <point x="326" y="140" type="curve" smooth="yes"/>
      <point x="315" y="164"/>
      <point x="305" y="196"/>
      <point x="289" y="242" type="curve" smooth="yes"/>
      <point x="280" y="268"/>
      <point x="270" y="298"/>
      <point x="258" y="336" type="curve"/>
      <point x="238" y="322"/>
      <point x="225" y="311"/>
      <point x="211" y="293" type="curve"/>
      <point x="224" y="257" type="line"/>
      <point x="195" y="254"/>
      <point x="166" y="250"/>
      <point x="130" y="229" type="curve" smooth="yes"/>
      <point x="111" y="218"/>
      <point x="85" y="199"/>
      <point x="81" y="175" type="curve" smooth="yes"/>
      <point x="71" y="115" type="line" smooth="yes"/>
      <point x="67" y="88"/>
      <point x="85" y="76"/>
      <point x="106" y="70" type="curve" smooth="yes"/>
      <point x="132" y="63"/>
      <point x="171" y="63"/>
      <point x="200" y="68" type="curve"/>
      <point x="223" y="91"/>
      <point x="241" y="118"/>
      <point x="255" y="158" type="curve"/>
      <point x="267" y="114"/>
      <point x="279" y="76"/>
      <point x="298" y="48" type="curve" smooth="yes"/>
      <point x="318" y="18"/>
      <point x="346" y="0"/>
      <point x="391" y="0" type="curve" smooth="yes"/>
      <point x="433" y="0" type="line"/>
      <point x="433" y="98" type="line"/>
    </contour>
    <contour>
      <point x="115" y="141" type="line"/>
      <point x="116" y="150" type="line" smooth="yes"/>
      <point x="119" y="176"/>
      <point x="139" y="200"/>
      <point x="171" y="207" type="curve" smooth="yes"/>
      <point x="188" y="211"/>
      <point x="208" y="210"/>
      <point x="216" y="210" type="curve"/>
      <point x="230" y="239" type="line"/>
      <point x="244" y="195" type="line"/>
      <point x="231" y="164"/>
      <point x="215" y="141"/>
      <point x="186" y="141" type="curve" smooth="yes"/>
    </contour>
    <contour>
      <point x="151" y="323" type="move" name="top"/>
    </contour>
    <contour>
      <point x="160" y="38" type="move" name="bottom"/>
    </contour>
  </outline>
</glyph>
<glyph name="gafbar-ar" format="1">
  <advance width="0"/>
  <outline>
    <contour>
      <point x="-44" y="750"/>
      <point x="17" y="783"/>
      <point x="98" y="820" type="curve"/>
      <point x="105" y="853" type="line"/>
      <point x="64" y="833"/>
      <point x="-29" y="789"/>
      <point x="-97" y="744" type="curve"/>
      <point x="-103" y="709" type="line"/>
    </contour>
    <contour>
      <point x="1" y="844" type="move" name="top"/>
    </contour>
    <contour>
      <point x="1" y="689" type="move" name="_top"/>
    </contour>
  </outline>
</glyph>
<glyph name="uni063506450649" format="1">
  <advance width="1305"/>
  <outline>
    <contour>
      <point x="1245" y="356"/>
      <point x="1239" y="385"/>
      <point x="1209" y="408" type="curve" smooth="yes"/>
      <point x="1190" y="423"/>
      <point x="1161" y="435"/>
      <point x="1136" y="435" type="curve" smooth="yes"/>
      <point x="1077" y="435"/>
      <point x="1005" y="370"/>
      <point x="969" y="332" type="curve" smooth="yes"/>
      <point x="920" y="280"/>
      <point x="887" y="225"/>
      <point x="878" y="213" type="curve"/>
      <point x="850" y="216"/>
      <point x="833" y="230"/>
      <point x="816" y="257" type="curve" smooth="yes"/>
      <point x="806" y="272"/>
      <point x="799" y="291"/>
      <point x="764" y="291" type="curve" smooth="yes"/>
      <point x="742" y="291"/>
      <point x="725" y="283"/>
      <point x="706" y="270" type="curve" smooth="yes"/>
      <point x="690" y="259"/>
      <point x="676" y="247"/>
      <point x="660" y="225" type="curve" smooth="yes"/>
      <point x="641" y="199"/>
      <point x="631" y="174"/>
      <point x="627" y="151" type="curve" smooth="yes"/>
      <point x="624" y="135"/>
      <point x="624" y="118"/>
      <point x="627" y="100" type="curve"/>
      <point x="519" y="113"/>
      <point x="465" y="85"/>
      <point x="450" y="74" type="curve" smooth="yes"/>
      <point x="444" y="69"/>
      <point x="426" y="42"/>
      <point x="421" y="-2" type="curve"/>
      <point x="438" y="-5"/>
      <point x="464" y="-11"/>
      <point x="487" y="-19" type="curve" smooth="yes"/>
      <point x="524" y="-33"/>
      <point x="543" y="-50"/>
      <point x="543" y="-71" type="curve" smooth="yes"/>
      <point x="543" y="-95"/>
      <point x="495" y="-119"/>
      <point x="464" y="-132" type="curve"/>
      <point x="432" y="-147"/>
      <point x="367" y="-168"/>
      <point x="292" y="-168" type="curve" smooth="yes"/>
      <point x="217" y="-168"/>
      <point x="163" y="-152"/>
      <point x="132" y="-114" type="curve" smooth="yes"/>
      <point x="105" y="-81"/>
      <point x="109" y="-39"/>
      <point x="119" y="19" type="curve"/>
      <point x="100" y="26" type="line"/>
      <point x="85" y="-11"/>
      <point x="74" y="-50"/>
      <point x="71" y="-87" type="curve" smooth="yes"/>
      <point x="68" y="-120"/>
      <point x="72" y="-149"/>
      <point x="83" y="-175" type="curve" smooth="yes"/>
      <point x="97" y="-210"/>
      <point x="123" y="-237"/>
      <point x="159" y="-255" type="curve" smooth="yes"/>
      <point x="192" y="-272"/>
      <point x="234" y="-281"/>
      <point x="283" y="-281" type="curve" smooth="yes"/>
      <point x="342" y="-281"/>
      <point x="404" y="-266"/>
      <point x="457" y="-238" type="curve" smooth="yes"/>
      <point x="508" y="-211"/>
      <point x="547" y="-175"/>
      <point x="567" y="-137" type="curve" smooth="yes"/>
      <point x="581" y="-110"/>
      <point x="589" y="-83"/>
      <point x="589" y="-59" type="curve" smooth="yes"/>
      <point x="589" y="-18"/>
      <point x="563" y="6"/>
      <point x="534" y="21" type="curve"/>
      <point x="568" y="22"/>
      <point x="670" y="21"/>
      <point x="738" y="-11" type="curve"/>
      <point x="750" y="18"/>
      <point x="761" y="62"/>
      <point x="759" y="94" type="curve"/>
      <point x="737" y="100"/>
      <point x="670" y="112"/>
      <point x="670" y="152" type="curve" smooth="yes"/>
      <point x="670" y="179"/>
      <point x="694" y="221"/>
      <point x="758" y="221" type="curve" smooth="yes"/>
      <point x="798" y="221"/>
      <point x="808" y="200"/>
      <point x="817" y="180" type="curve" smooth="yes"/>
      <point x="825" y="162"/>
      <point x="835" y="147"/>
      <point x="850" y="137" type="curve" smooth="yes"/>
      <point x="868" y="125"/>
      <point x="894" y="118"/>
      <point x="936" y="118" type="curve" smooth="yes"/>
      <point x="1021" y="118"/>
      <point x="1099" y="145"/>
      <point x="1152" y="186" type="curve" smooth="yes"/>
      <point x="1178" y="206"/>
      <point x="1204" y="234"/>
      <point x="1219" y="259" type="curve" smooth="yes"/>
      <point x="1236" y="287"/>
      <point x="1245" y="319"/>
      <point x="1245" y="339" type="curve" smooth="yes"/>
    </contour>
    <contour>
      <point x="1176" y="259"/>
      <point x="1157" y="243"/>
      <point x="1125" y="230" type="curve" smooth="yes"/>
      <point x="1101" y="220"/>
      <point x="1069" y="212"/>
      <point x="1029" y="212" type="curve" smooth="yes"/>
      <point x="914" y="212" type="line"/>
      <point x="933" y="239"/>
      <point x="962" y="275"/>
      <point x="983" y="297" type="curve" smooth="yes"/>
      <point x="1023" y="339"/>
      <point x="1061" y="360"/>
      <point x="1097" y="360" type="curve" smooth="yes"/>
      <point x="1135" y="360"/>
      <point x="1161" y="336"/>
      <point x="1173" y="322" type="curve" smooth="yes"/>
      <point x="1183" y="310"/>
      <point x="1187" y="300"/>
      <point x="1193" y="279" type="curve"/>
    </contour>
    <contour>
      <point x="1016" y="78" type="move" name="bottom_1"/>
    </contour>
    <contour>
      <point x="744" y="321" type="move" name="top_2"/>
    </contour>
    <contour>
      <point x="877" y="0" type="move" name="caret_2"/>
    </contour>
    <contour>
      <point x="448" y="0" type="move" name="caret_1"/>
    </contour>
    <contour>
      <point x="300" y="-314" type="move" name="bottom_3"/>
    </contour>
    <contour>
      <point x="1116" y="465" type="move" name="top_1"/>
    </contour>
    <contour>
      <point x="748" y="-51" type="move" name="bottom_2"/>
    </contour>
    <contour>
      <point x="257" y="0" type="move" name="top_3"/>
    </contour>
  </outline>
</glyph>
<glyph name="uni06430643" format="1">
  <advance width="996"/>
  <outline>
    <contour>
      <point x="967" y="510"/>
      <point x="972" y="537"/>
      <point x="976" y="568" type="curve"/>
      <point x="904" y="534"/>
      <point x="751" y="460"/>
      <point x="677" y="392" type="curve"/>
      <point x="673" y="438"/>
      <point x="666" y="487"/>
      <point x="659" y="568" type="curve"/>
      <point x="636" y="547"/>
      <point x="619" y="529"/>
      <point x="598" y="497" type="curve"/>
      <point x="609" y="423"/>
      <point x="622" y="354"/>
      <point x="643" y="178" type="curve"/>
      <point x="647" y="151"/>
      <point x="637" y="129"/>
      <point x="620" y="114" type="curve" smooth="yes"/>
      <point x="605" y="102"/>
      <point x="585" y="95"/>
      <point x="563" y="95" type="curve" smooth="yes"/>
      <point x="511" y="94"/>
      <point x="459" y="94"/>
      <point x="407" y="93" type="curve" smooth="yes"/>
      <point x="341" y="92"/>
      <point x="274" y="94"/>
      <point x="229" y="101" type="curve" smooth="yes"/>
      <point x="174" y="109"/>
      <point x="133" y="128"/>
      <point x="113" y="159" type="curve" smooth="yes"/>
      <point x="104" y="173"/>
      <point x="96" y="194"/>
      <point x="92" y="219" type="curve"/>
      <point x="73" y="226" type="line"/>
      <point x="68" y="183"/>
      <point x="69" y="145"/>
      <point x="77" y="115" type="curve" smooth="yes"/>
      <point x="83" y="92"/>
      <point x="95" y="69"/>
      <point x="119" y="49" type="curve" smooth="yes"/>
      <point x="138" y="33"/>
      <point x="173" y="12"/>
      <point x="231" y="2" type="curve" smooth="yes"/>
      <point x="266" y="-4"/>
      <point x="305" y="-6"/>
      <point x="358" y="-6" type="curve" smooth="yes"/>
      <point x="379" y="-6"/>
      <point x="460" y="-6"/>
      <point x="576" y="-5" type="curve" smooth="yes"/>
      <point x="638" y="-5"/>
      <point x="679" y="26"/>
      <point x="682" y="82" type="curve"/>
      <point x="695" y="16"/>
      <point x="744" y="0"/>
      <point x="788" y="0" type="curve" smooth="yes"/>
      <point x="846" y="0"/>
      <point x="907" y="45"/>
      <point x="907" y="128" type="curve" smooth="yes"/>
      <point x="907" y="192"/>
      <point x="879" y="254"/>
      <point x="846" y="297" type="curve" smooth="yes"/>
      <point x="825" y="324"/>
      <point x="793" y="353"/>
      <point x="757" y="378" type="curve"/>
      <point x="834" y="421"/>
      <point x="910" y="457"/>
      <point x="959" y="480" type="curve"/>
    </contour>
    <contour>
      <point x="849" y="113"/>
      <point x="815" y="98"/>
      <point x="782" y="98" type="curve" smooth="yes"/>
      <point x="758" y="98"/>
      <point x="734" y="107"/>
      <point x="719" y="125" type="curve" smooth="yes"/>
      <point x="708" y="139"/>
      <point x="702" y="162"/>
      <point x="700" y="178" type="curve" smooth="yes"/>
      <point x="697" y="209"/>
      <point x="692" y="244"/>
      <point x="683" y="324" type="curve"/>
      <point x="764" y="301"/>
      <point x="861" y="186"/>
      <point x="861" y="139" type="curve"/>
    </contour>
    <contour>
      <point x="457" y="240"/>
      <point x="442" y="241"/>
      <point x="410" y="241" type="curve" smooth="yes"/>
      <point x="384" y="241"/>
      <point x="360" y="246"/>
      <point x="360" y="265" type="curve"/>
      <point x="377" y="279"/>
      <point x="399" y="289"/>
      <point x="424" y="297" type="curve"/>
      <point x="432" y="307"/>
      <point x="438" y="316"/>
      <point x="443" y="327" type="curve"/>
      <point x="430" y="324"/>
      <point x="406" y="316"/>
      <point x="384" y="304" type="curve" smooth="yes"/>
      <point x="352" y="287"/>
      <point x="336" y="267"/>
      <point x="336" y="243" type="curve" smooth="yes"/>
      <point x="336" y="228"/>
      <point x="349" y="216"/>
      <point x="384" y="214" type="curve" smooth="yes"/>
      <point x="412" y="212"/>
      <point x="423" y="210"/>
      <point x="423" y="203" type="curve" smooth="yes"/>
      <point x="423" y="183"/>
      <point x="346" y="163"/>
      <point x="300" y="149" type="curve"/>
      <point x="330" y="147"/>
      <point x="362" y="148"/>
      <point x="396" y="152" type="curve"/>
      <point x="440" y="178"/>
      <point x="457" y="197"/>
      <point x="457" y="219" type="curve" smooth="yes"/>
    </contour>
    <contour>
      <point x="478" y="0" type="move" name="caret_1"/>
    </contour>
    <contour>
      <point x="782" y="-25" type="move" name="bottom_1"/>
    </contour>
    <contour>
      <point x="832" y="556" type="move" name="top_1"/>
    </contour>
    <contour>
      <point x="372" y="341" type="move" name="top_2"/>
    </contour>
    <contour>
      <point x="384" y="-35" type="move" name="bottom_2"/>
    </contour>
  </outline>
</glyph>
<glyph name="uni064306440649.fina" format="1">
  <advance width="946"/>
  <outline>
    <contour>
      <point x="780" y="535"/>
      <point x="626" y="457"/>
      <point x="550" y="387" type="curve"/>
      <point x="545" y="445"/>
      <point x="539" y="503"/>
      <point x="533" y="568" type="curve"/>
      <point x="510" y="547"/>
      <point x="493" y="529"/>
      <point x="472" y="497" type="curve"/>
      <point x="491" y="386"/>
      <point x="500" y="323"/>
      <point x="511" y="239" type="curve" smooth="yes"/>
      <point x="513" y="222"/>
      <point x="521" y="158"/>
      <point x="526" y="113" type="curve"/>
      <point x="521" y="69"/>
      <point x="427" y="28"/>
      <point x="389" y="28" type="curve"/>
      <point x="385" y="13"/>
      <point x="382" y="-7"/>
      <point x="379" y="-32" type="curve"/>
      <point x="399" y="-34"/>
      <point x="439" y="-39"/>
      <point x="473" y="-48" type="curve" smooth="yes"/>
      <point x="519" y="-60"/>
      <point x="543" y="-77"/>
      <point x="543" y="-95" type="curve" smooth="yes"/>
      <point x="543" y="-121"/>
      <point x="494" y="-147"/>
      <point x="464" y="-160" type="curve" smooth="yes"/>
      <point x="432" y="-174"/>
      <point x="373" y="-196"/>
      <point x="290" y="-196" type="curve" smooth="yes"/>
      <point x="212" y="-196"/>
      <point x="160" y="-177"/>
      <point x="132" y="-142" type="curve" smooth="yes"/>
      <point x="105" y="-109"/>
      <point x="109" y="-57"/>
      <point x="119" y="1" type="curve"/>
      <point x="100" y="8" type="line"/>
      <point x="84" y="-33"/>
      <point x="74" y="-81"/>
      <point x="71" y="-115" type="curve" smooth="yes"/>
      <point x="68" y="-149"/>
      <point x="72" y="-177"/>
      <point x="83" y="-203" type="curve" smooth="yes"/>
      <point x="98" y="-239"/>
      <point x="124" y="-265"/>
      <point x="160" y="-283" type="curve" smooth="yes"/>
      <point x="196" y="-301"/>
      <point x="237" y="-309"/>
      <point x="282" y="-309" type="curve" smooth="yes"/>
      <point x="343" y="-309"/>
      <point x="404" y="-294"/>
      <point x="457" y="-266" type="curve" smooth="yes"/>
      <point x="489" y="-249"/>
      <point x="527" y="-221"/>
      <point x="550" y="-194" type="curve" smooth="yes"/>
      <point x="573" y="-167"/>
      <point x="590" y="-132"/>
      <point x="590" y="-96" type="curve" smooth="yes"/>
      <point x="590" y="-41"/>
      <point x="551" y="-12"/>
      <point x="506" y="-1" type="curve"/>
      <point x="517" y="5"/>
      <point x="554" y="35"/>
      <point x="561" y="73" type="curve"/>
      <point x="578" y="28"/>
      <point x="608" y="0"/>
      <point x="658" y="0" type="curve"/>
      <point x="725" y="0"/>
      <point x="763" y="46"/>
      <point x="763" y="113" type="curve"/>
      <point x="792" y="37"/>
      <point x="832" y="0"/>
      <point x="911" y="0" type="curve" smooth="yes"/>
      <point x="946" y="0" type="line"/>
      <point x="946" y="98" type="line"/>
      <point x="910" y="98" type="line" smooth="yes"/>
      <point x="846" y="98"/>
      <point x="813" y="140"/>
      <point x="789" y="176" type="curve"/>
      <point x="766" y="208"/>
      <point x="732" y="252"/>
      <point x="700" y="286" type="curve" smooth="yes"/>
      <point x="682" y="306"/>
      <point x="643" y="346"/>
      <point x="619" y="370" type="curve"/>
      <point x="695" y="413"/>
      <point x="786" y="461"/>
      <point x="834" y="480" type="curve"/>
      <point x="842" y="511"/>
      <point x="847" y="538"/>
      <point x="851" y="568" type="curve"/>
    </contour>
    <contour>
      <point x="726" y="140"/>
      <point x="706" y="100"/>
      <point x="653" y="98" type="curve"/>
      <point x="626" y="99"/>
      <point x="607" y="110"/>
      <point x="595" y="125" type="curve" smooth="yes"/>
      <point x="584" y="139"/>
      <point x="578" y="162"/>
      <point x="576" y="178" type="curve" smooth="yes"/>
      <point x="568" y="243"/>
      <point x="562" y="289"/>
      <point x="556" y="344" type="curve"/>
      <point x="585" y="318"/>
      <point x="628" y="276"/>
      <point x="650" y="249" type="curve" smooth="yes"/>
      <point x="675" y="219"/>
      <point x="700" y="188"/>
      <point x="726" y="140" type="curve"/>
    </contour>
    <contour>
      <point x="730" y="-55" type="move" name="bottom_1"/>
    </contour>
    <contour>
      <point x="431" y="568" type="move" name="top_2"/>
    </contour>
    <contour>
      <point x="634" y="0" type="move" name="caret_2"/>
    </contour>
    <contour>
      <point x="322" y="0" type="move" name="caret_1"/>
    </contour>
    <contour>
      <point x="282" y="-339" type="move" name="bottom_3"/>
    </contour>
    <contour>
      <point x="743" y="568" type="move" name="top_1"/>
    </contour>
    <contour>
      <point x="531" y="-315" type="move" name="bottom_2"/>
    </contour>
    <contour>
      <point x="246" y="0" type="move" name="top_3"/>
    </contour>
  </outline>
</glyph>
<glyph name="uni0644062D0649" format="1">
  <advance width="931"/>
  <outline>
    <contour>
      <point x="848" y="223" type="line" smooth="yes"/>
      <point x="758" y="225"/>
      <point x="733" y="231"/>
      <point x="684" y="246" type="curve"/>
      <point x="680" y="247"/>
      <point x="657" y="256"/>
      <point x="631" y="262" type="curve"/>
      <point x="631" y="262"/>
      <point x="657" y="269"/>
      <point x="654" y="322" type="curve" smooth="yes"/>
      <point x="653" y="337"/>
      <point x="649" y="374"/>
      <point x="647" y="392" type="curve" smooth="yes"/>
      <point x="640" y="453"/>
      <point x="646" y="478"/>
      <point x="663" y="491" type="curve"/>
      <point x="639" y="517"/>
      <point x="620" y="546"/>
      <point x="611" y="567" type="curve"/>
      <point x="557" y="497" type="line"/>
      <point x="558" y="493"/>
      <point x="581" y="428"/>
      <point x="595" y="362" type="curve" smooth="yes"/>
      <point x="606" y="309"/>
      <point x="604" y="295"/>
      <point x="598" y="288" type="curve" smooth="yes"/>
      <point x="586" y="274"/>
      <point x="561" y="273"/>
      <point x="535" y="273" type="curve" smooth="yes"/>
      <point x="486" y="272"/>
      <point x="475" y="271"/>
      <point x="446" y="261" type="curve"/>
      <point x="444" y="256"/>
      <point x="437" y="234"/>
      <point x="428" y="201" type="curve"/>
      <point x="452" y="207"/>
      <point x="468" y="210"/>
      <point x="499" y="210" type="curve" smooth="yes"/>
      <point x="552" y="210"/>
      <point x="622" y="202"/>
      <point x="673" y="172" type="curve"/>
      <point x="630" y="161"/>
      <point x="592" y="148"/>
      <point x="563" y="136" type="curve" smooth="yes"/>
      <point x="533" y="124"/>
      <point x="468" y="88"/>
      <point x="450" y="74" type="curve" smooth="yes"/>
      <point x="444" y="69"/>
      <point x="426" y="42"/>
      <point x="421" y="-2" type="curve"/>
      <point x="438" y="-5"/>
      <point x="464" y="-11"/>
      <point x="487" y="-19" type="curve" smooth="yes"/>
      <point x="524" y="-33"/>
      <point x="543" y="-50"/>
      <point x="543" y="-71" type="curve" smooth="yes"/>
      <point x="543" y="-95"/>
      <point x="495" y="-119"/>
      <point x="464" y="-132" type="curve"/>
      <point x="432" y="-147"/>
      <point x="367" y="-168"/>
      <point x="292" y="-168" type="curve" smooth="yes"/>
      <point x="217" y="-168"/>
      <point x="163" y="-152"/>
      <point x="132" y="-114" type="curve" smooth="yes"/>
      <point x="105" y="-81"/>
      <point x="109" y="-39"/>
      <point x="119" y="19" type="curve"/>
      <point x="100" y="26" type="line"/>
      <point x="85" y="-11"/>
      <point x="74" y="-50"/>
      <point x="71" y="-87" type="curve" smooth="yes"/>
      <point x="68" y="-120"/>
      <point x="72" y="-149"/>
      <point x="83" y="-175" type="curve" smooth="yes"/>
      <point x="97" y="-210"/>
      <point x="123" y="-237"/>
      <point x="159" y="-255" type="curve" smooth="yes"/>
      <point x="192" y="-272"/>
      <point x="234" y="-281"/>
      <point x="283" y="-281" type="curve" smooth="yes"/>
      <point x="342" y="-281"/>
      <point x="404" y="-266"/>
      <point x="457" y="-238" type="curve" smooth="yes"/>
      <point x="508" y="-211"/>
      <point x="547" y="-175"/>
      <point x="567" y="-137" type="curve" smooth="yes"/>
      <point x="581" y="-110"/>
      <point x="589" y="-83"/>
      <point x="589" y="-59" type="curve" smooth="yes"/>
      <point x="589" y="5"/>
      <point x="526" y="28"/>
      <point x="486" y="39" type="curve"/>
      <point x="486" y="39"/>
      <point x="546" y="81"/>
      <point x="619" y="104" type="curve" smooth="yes"/>
      <point x="701" y="129"/>
      <point x="730" y="138"/>
      <point x="828" y="134" type="curve"/>
      <point x="843" y="160"/>
      <point x="864" y="202"/>
      <point x="871" y="223" type="curve"/>
    </contour>
    <contour>
      <point x="611" y="-237" type="move" name="bottom_1"/>
    </contour>
    <contour>
      <point x="426" y="324" type="move" name="top_2"/>
    </contour>
    <contour>
      <point x="621" y="0" type="move" name="caret_2"/>
    </contour>
    <contour>
      <point x="310" y="0" type="move" name="caret_1"/>
    </contour>
    <contour>
      <point x="283" y="-311" type="move" name="bottom_3"/>
    </contour>
    <contour>
      <point x="521" y="568" type="move" name="top_1"/>
    </contour>
    <contour>
      <point x="733" y="74" type="move" name="bottom_2"/>
    </contour>
    <contour>
      <point x="241" y="39" type="move" name="top_3"/>
    </contour>
  </outline>
</glyph>
<glyph name="uni064406470649" format="1">
  <advance width="905"/>
  <outline>
    <contour>
      <point x="68" y="-112"/>
      <point x="70" y="-146"/>
      <point x="83" y="-177" type="curve" smooth="yes"/>
      <point x="96" y="-208"/>
      <point x="120" y="-236"/>
      <point x="159" y="-256" type="curve" smooth="yes"/>
      <point x="192" y="-273"/>
      <point x="235" y="-282"/>
      <point x="281" y="-282" type="curve" smooth="yes"/>
      <point x="341" y="-282"/>
      <point x="404" y="-267"/>
      <point x="458" y="-239" type="curve" smooth="yes"/>
      <point x="510" y="-212"/>
      <point x="546" y="-175"/>
      <point x="567" y="-137" type="curve" smooth="yes"/>
      <point x="583" y="-108"/>
      <point x="589" y="-81"/>
      <point x="589" y="-61" type="curve" smooth="yes"/>
      <point x="589" y="-11"/>
      <point x="553" y="14"/>
      <point x="517" y="28" type="curve"/>
      <point x="549" y="36"/>
      <point x="577" y="47"/>
      <point x="600" y="60" type="curve"/>
      <point x="655" y="36"/>
      <point x="685" y="30"/>
      <point x="745" y="-7" type="curve"/>
      <point x="759" y="8"/>
      <point x="778" y="27"/>
      <point x="791" y="41" type="curve" smooth="yes"/>
      <point x="812" y="64"/>
      <point x="825" y="97"/>
      <point x="825" y="129" type="curve" smooth="yes"/>
      <point x="825" y="156"/>
      <point x="815" y="181"/>
      <point x="795" y="203" type="curve" smooth="yes"/>
      <point x="776" y="223"/>
      <point x="752" y="239"/>
      <point x="729" y="254" type="curve" smooth="yes"/>
      <point x="695" y="277"/>
      <point x="666" y="292"/>
      <point x="656" y="330" type="curve"/>
      <point x="650" y="349"/>
      <point x="646" y="360"/>
      <point x="641" y="389" type="curve" smooth="yes"/>
      <point x="634" y="430"/>
      <point x="644" y="463"/>
      <point x="668" y="482" type="curve"/>
      <point x="641" y="510"/>
      <point x="616" y="549"/>
      <point x="606" y="567" type="curve"/>
      <point x="550" y="491" type="line"/>
      <point x="565" y="466"/>
      <point x="602" y="321"/>
      <point x="607" y="282" type="curve"/>
      <point x="565" y="264"/>
      <point x="537" y="245"/>
      <point x="515" y="202" type="curve" smooth="yes"/>
      <point x="495" y="162"/>
      <point x="502" y="114"/>
      <point x="542" y="90" type="curve"/>
      <point x="502" y="74"/>
      <point x="473" y="64"/>
      <point x="451" y="57" type="curve" smooth="yes"/>
      <point x="439" y="53"/>
      <point x="434" y="44"/>
      <point x="431" y="29" type="curve" smooth="yes"/>
      <point x="429" y="20"/>
      <point x="428" y="10"/>
      <point x="426" y="-3" type="curve"/>
      <point x="443" y="-6"/>
      <point x="470" y="-14"/>
      <point x="487" y="-20" type="curve" smooth="yes"/>
      <point x="525" y="-34"/>
      <point x="543" y="-53"/>
      <point x="543" y="-70" type="curve" smooth="yes"/>
      <point x="543" y="-95"/>
      <point x="504" y="-116"/>
      <point x="464" y="-133" type="curve"/>
      <point x="432" y="-148"/>
      <point x="369" y="-169"/>
      <point x="289" y="-169" type="curve" smooth="yes"/>
      <point x="224" y="-169"/>
      <point x="164" y="-155"/>
      <point x="132" y="-115" type="curve" smooth="yes"/>
      <point x="105" y="-82"/>
      <point x="109" y="-40"/>
      <point x="119" y="18" type="curve"/>
      <point x="100" y="25" type="line"/>
      <point x="91" y="2"/>
      <point x="76" y="-37"/>
      <point x="71" y="-81" type="curve" smooth="yes"/>
    </contour>
    <contour>
      <point x="539" y="188"/>
      <point x="554" y="206"/>
      <point x="572" y="221" type="curve" smooth="yes"/>
      <point x="587" y="234"/>
      <point x="604" y="244"/>
      <point x="617" y="244" type="curve" smooth="yes"/>
      <point x="628" y="244"/>
      <point x="639" y="234"/>
      <point x="647" y="221" type="curve"/>
      <point x="656" y="208"/>
      <point x="662" y="191"/>
      <point x="662" y="180" type="curve" smooth="yes"/>
      <point x="662" y="168"/>
      <point x="655" y="156"/>
      <point x="644" y="147" type="curve" smooth="yes"/>
      <point x="633" y="138"/>
      <point x="619" y="132"/>
      <point x="604" y="132" type="curve" smooth="yes"/>
      <point x="593" y="132"/>
      <point x="575" y="140"/>
      <point x="561" y="150" type="curve" smooth="yes"/>
      <point x="549" y="159"/>
      <point x="539" y="170"/>
      <point x="539" y="178" type="curve" smooth="yes"/>
    </contour>
    <contour>
      <point x="678" y="127"/>
      <point x="688" y="144"/>
      <point x="693" y="163" type="curve"/>
      <point x="697" y="183"/>
      <point x="696" y="204"/>
      <point x="687" y="226" type="curve"/>
      <point x="720" y="198"/>
      <point x="731" y="190"/>
      <point x="754" y="169" type="curve" smooth="yes"/>
      <point x="775" y="150"/>
      <point x="783" y="111"/>
      <point x="756" y="90" type="curve"/>
      <point x="749" y="92"/>
      <point x="685" y="107"/>
      <point x="665" y="113" type="curve"/>
    </contour>
    <contour>
      <point x="687" y="-91" type="move" name="bottom_1"/>
    </contour>
    <contour>
      <point x="776" y="353" type="move" name="top_2"/>
    </contour>
    <contour>
      <point x="590" y="0" type="move" name="caret_2"/>
    </contour>
    <contour>
      <point x="426" y="-79" type="move" name="caret_1"/>
    </contour>
    <contour>
      <point x="288" y="-312" type="move" name="bottom_3"/>
    </contour>
    <contour>
      <point x="507" y="568" type="move" name="top_1"/>
    </contour>
    <contour>
      <point x="264" y="30" type="move" name="top_3"/>
    </contour>
    <contour>
      <point x="515" y="-299" type="move" name="bottom_2"/>
    </contour>
  </outline>
</glyph>
<glyph name="uni0664.center" format="1">
  <advance width="0"/>
  <outline>
    <contour>
      <point x="74" y="401"/>
      <point x="76" y="414"/>
      <point x="77" y="423" type="curve"/>
      <point x="64" y="422"/>
      <point x="37" y="418"/>
      <point x="28" y="384" type="curve"/>
      <point x="26" y="391"/>
      <point x="16" y="423"/>
      <point x="-19" y="423" type="curve" smooth="yes"/>
      <point x="-44" y="423"/>
      <point x="-65" y="402"/>
      <point x="-74" y="374" type="curve" smooth="yes"/>
      <point x="-82" y="352"/>
      <point x="-82" y="325"/>
      <point x="-70" y="302" type="curve" smooth="yes"/>
      <point x="-60" y="280"/>
      <point x="-32" y="243"/>
      <point x="-34" y="190" type="curve"/>
      <point x="-18" y="190" type="line"/>
      <point x="-6" y="229"/>
      <point x="-24" y="272"/>
      <point x="-33" y="292" type="curve" smooth="yes"/>
      <point x="-49" y="331"/>
      <point x="-58" y="356"/>
      <point x="-46" y="377" type="curve" smooth="yes"/>
      <point x="-41" y="387"/>
      <point x="-30" y="392"/>
      <point x="-18" y="392" type="curve" smooth="yes"/>
      <point x="-10" y="392"/>
      <point x="-2" y="390"/>
      <point x="4" y="384" type="curve" smooth="yes"/>
      <point x="16" y="374"/>
      <point x="21" y="360"/>
      <point x="22" y="348" type="curve"/>
      <point x="33" y="352" type="line"/>
      <point x="34" y="362"/>
      <point x="36" y="390"/>
      <point x="72" y="392" type="curve"/>
    </contour>
    <contour>
      <point x="3" y="320" type="move" name="_center"/>
    </contour>
  </outline>
</glyph>
<glyph name="uni066E062D0649" format="1">
  <advance width="938"/>
  <outline>
    <contour>
      <point x="862" y="230"/>
      <point x="848" y="229"/>
      <point x="827" y="229" type="curve" smooth="yes"/>
      <point x="763" y="229"/>
      <point x="714" y="241"/>
      <point x="665" y="253" type="curve" smooth="yes"/>
      <point x="622" y="262"/>
      <point x="578" y="271"/>
      <point x="523" y="271" type="curve" smooth="yes"/>
      <point x="523" y="271"/>
      <point x="630" y="291"/>
      <point x="679" y="366" type="curve" smooth="yes"/>
      <point x="689" y="381"/>
      <point x="704" y="413"/>
      <point x="733" y="413" type="curve" smooth="yes"/>
      <point x="762" y="413"/>
      <point x="773" y="382"/>
      <point x="762" y="342" type="curve"/>
      <point x="777" y="342" type="line"/>
      <point x="788" y="358"/>
      <point x="795" y="382"/>
      <point x="797" y="397" type="curve" smooth="yes"/>
      <point x="800" y="419"/>
      <point x="802" y="478"/>
      <point x="748" y="478" type="curve" smooth="yes"/>
      <point x="711" y="478"/>
      <point x="688" y="449"/>
      <point x="652" y="412" type="curve" smooth="yes"/>
      <point x="594" y="351"/>
      <point x="564" y="333"/>
      <point x="495" y="306" type="curve" smooth="yes"/>
      <point x="461" y="293"/>
      <point x="438" y="284"/>
      <point x="421" y="257" type="curve" smooth="yes"/>
      <point x="413" y="244"/>
      <point x="402" y="221"/>
      <point x="401" y="200" type="curve"/>
      <point x="416" y="191" type="line"/>
      <point x="425" y="203"/>
      <point x="435" y="216"/>
      <point x="474" y="216" type="curve" smooth="yes"/>
      <point x="517" y="216"/>
      <point x="586" y="197"/>
      <point x="664" y="171" type="curve"/>
      <point x="623" y="160"/>
      <point x="587" y="147"/>
      <point x="560" y="136" type="curve" smooth="yes"/>
      <point x="511" y="117"/>
      <point x="468" y="88"/>
      <point x="450" y="74" type="curve" smooth="yes"/>
      <point x="444" y="69"/>
      <point x="426" y="42"/>
      <point x="421" y="-2" type="curve"/>
      <point x="438" y="-5"/>
      <point x="464" y="-11"/>
      <point x="487" y="-19" type="curve" smooth="yes"/>
      <point x="524" y="-33"/>
      <point x="543" y="-50"/>
      <point x="543" y="-71" type="curve" smooth="yes"/>
      <point x="543" y="-95"/>
      <point x="495" y="-119"/>
      <point x="464" y="-132" type="curve"/>
      <point x="432" y="-147"/>
      <point x="367" y="-168"/>
      <point x="292" y="-168" type="curve" smooth="yes"/>
      <point x="217" y="-168"/>
      <point x="163" y="-152"/>
      <point x="132" y="-114" type="curve" smooth="yes"/>
      <point x="105" y="-81"/>
      <point x="109" y="-39"/>
      <point x="119" y="19" type="curve"/>
      <point x="100" y="26" type="line"/>
      <point x="85" y="-11"/>
      <point x="74" y="-50"/>
      <point x="71" y="-87" type="curve" smooth="yes"/>
      <point x="68" y="-120"/>
      <point x="72" y="-149"/>
      <point x="83" y="-175" type="curve" smooth="yes"/>
      <point x="97" y="-210"/>
      <point x="123" y="-237"/>
      <point x="159" y="-255" type="curve" smooth="yes"/>
      <point x="192" y="-272"/>
      <point x="234" y="-281"/>
      <point x="283" y="-281" type="curve" smooth="yes"/>
      <point x="342" y="-281"/>
      <point x="404" y="-266"/>
      <point x="457" y="-238" type="curve" smooth="yes"/>
      <point x="508" y="-211"/>
      <point x="547" y="-175"/>
      <point x="567" y="-137" type="curve" smooth="yes"/>
      <point x="581" y="-110"/>
      <point x="589" y="-83"/>
      <point x="589" y="-59" type="curve" smooth="yes"/>
      <point x="589" y="5"/>
      <point x="526" y="28"/>
      <point x="486" y="39" type="curve"/>
      <point x="486" y="39"/>
      <point x="560" y="80"/>
      <point x="614" y="98" type="curve" smooth="yes"/>
      <point x="650" y="110"/>
      <point x="718" y="134"/>
      <point x="789" y="134" type="curve" smooth="yes"/>
      <point x="834" y="134" type="line"/>
      <point x="854" y="167"/>
      <point x="866" y="197"/>
      <point x="878" y="231" type="curve"/>
    </contour>
    <contour>
      <point x="748" y="56" type="move" name="bottom_1"/>
    </contour>
    <contour>
      <point x="524" y="425" type="move" name="top_2"/>
    </contour>
    <contour>
      <point x="625" y="0" type="move" name="caret_2"/>
    </contour>
    <contour>
      <point x="313" y="0" type="move" name="caret_1"/>
    </contour>
    <contour>
      <point x="283" y="-311" type="move" name="bottom_3"/>
    </contour>
    <contour>
      <point x="738" y="508" type="move" name="top_1"/>
    </contour>
    <contour>
      <point x="632" y="-200" type="move" name="bottom_2"/>
    </contour>
    <contour>
      <point x="234" y="28" type="move" name="top_3"/>
    </contour>
  </outline>
</glyph>
<glyph name="uni066E0649.fina" format="1">
  <advance width="732"/>
  <outline>
    <contour>
      <point x="732" y="98" type="line"/>
      <point x="677" y="98" type="line"/>
      <point x="626" y="98"/>
      <point x="602" y="120"/>
      <point x="584" y="143" type="curve" smooth="yes"/>
      <point x="562" y="172"/>
      <point x="541" y="205"/>
      <point x="505" y="205" type="curve" smooth="yes"/>
      <point x="475" y="205"/>
      <point x="454" y="186"/>
      <point x="431" y="154" type="curve" smooth="yes"/>
      <point x="418" y="136"/>
      <point x="397" y="103"/>
      <point x="383" y="66" type="curve" smooth="yes"/>
      <point x="369" y="29"/>
      <point x="366" y="0"/>
      <point x="374" y="-17" type="curve" smooth="yes"/>
      <point x="382" y="-34"/>
      <point x="406" y="-48"/>
      <point x="435" y="-56" type="curve" smooth="yes"/>
      <point x="461" y="-63"/>
      <point x="494" y="-67"/>
      <point x="534" y="-70" type="curve"/>
      <point x="524" y="-97"/>
      <point x="495" y="-126"/>
      <point x="447" y="-145" type="curve" smooth="yes"/>
      <point x="399" y="-164"/>
      <point x="338" y="-171"/>
      <point x="295" y="-171" type="curve" smooth="yes"/>
      <point x="233" y="-171"/>
      <point x="164" y="-156"/>
      <point x="133" y="-116" type="curve" smooth="yes"/>
      <point x="116" y="-94"/>
      <point x="112" y="-66"/>
      <point x="112" y="-36" type="curve" smooth="yes"/>
      <point x="112" y="-11"/>
      <point x="113" y="0"/>
      <point x="119" y="27" type="curve"/>
      <point x="100" y="36" type="line"/>
      <point x="77" y="-15"/>
      <point x="68" y="-83"/>
      <point x="70" y="-119" type="curve" smooth="yes"/>
      <point x="71" y="-145"/>
      <point x="81" y="-193"/>
      <point x="117" y="-228" type="curve" smooth="yes"/>
      <point x="149" y="-259"/>
      <point x="202" y="-283"/>
      <point x="283" y="-283" type="curve" smooth="yes"/>
      <point x="369" y="-283"/>
      <point x="445" y="-256"/>
      <point x="498" y="-214" type="curve" smooth="yes"/>
      <point x="522" y="-195"/>
      <point x="550" y="-165"/>
      <point x="566" y="-136" type="curve" smooth="yes"/>
      <point x="580" y="-110"/>
      <point x="588" y="-84"/>
      <point x="588" y="-61" type="curve" smooth="yes"/>
      <point x="588" y="-27"/>
      <point x="571" y="0"/>
      <point x="530" y="5" type="curve" smooth="yes"/>
      <point x="494" y="9"/>
      <point x="483" y="10"/>
      <point x="452" y="17" type="curve" smooth="yes"/>
      <point x="438" y="20"/>
      <point x="425" y="31"/>
      <point x="428" y="53" type="curve"/>
      <point x="429" y="65"/>
      <point x="446" y="115"/>
      <point x="492" y="115" type="curve" smooth="yes"/>
      <point x="531" y="115"/>
      <point x="555" y="89"/>
      <point x="571" y="62" type="curve" smooth="yes"/>
      <point x="589" y="32"/>
      <point x="610" y="0"/>
      <point x="670" y="0" type="curve"/>
      <point x="732" y="0" type="line"/>
    </contour>
    <contour>
      <point x="361" y="0" type="move" name="caret_1"/>
    </contour>
    <contour>
      <point x="553" y="-254" type="move" name="bottom_1"/>
    </contour>
    <contour>
      <point x="495" y="235" type="move" name="top_1"/>
    </contour>
    <contour>
      <point x="230" y="32" type="move" name="top_2"/>
    </contour>
    <contour>
      <point x="283" y="-313" type="move" name="bottom_2"/>
    </contour>
  </outline>
</glyph>
<glyph name="uni0677.fina" format="1">
  <advance width="405"/>
  <outline>
    <contour>
      <point x="126" y="379"/>
      <point x="119" y="378"/>
      <point x="112" y="376" type="curve" smooth="yes"/>
      <point x="94" y="374"/>
      <point x="77" y="374"/>
      <point x="61" y="378" type="curve" smooth="yes"/>
      <point x="39" y="384"/>
      <point x="31" y="389"/>
      <point x="31" y="409" type="curve" smooth="yes"/>
      <point x="48" y="419"/>
      <point x="62" y="426"/>
      <point x="83" y="426" type="curve" smooth="yes"/>
      <point x="96" y="426"/>
      <point x="104" y="424"/>
      <point x="110" y="422" type="curve"/>
      <point x="114" y="428" type="line"/>
      <point x="113" y="435"/>
      <point x="104" y="449"/>
      <point x="80" y="449" type="curve" smooth="yes"/>
      <point x="62" y="449"/>
      <point x="46" y="444"/>
      <point x="30" y="430" type="curve" smooth="yes"/>
      <point x="21" y="423"/>
      <point x="10" y="409"/>
      <point x="4" y="400" type="curve" smooth="yes"/>
      <point x="2" y="397"/>
      <point x="1" y="394"/>
      <point x="1" y="391" type="curve" smooth="yes"/>
      <point x="1" y="372"/>
      <point x="17" y="359"/>
      <point x="47" y="355" type="curve"/>
      <point x="18" y="344"/>
      <point x="3" y="334"/>
      <point x="-13" y="319" type="curve" smooth="yes"/>
      <point x="-14" y="317"/>
      <point x="-16" y="314"/>
      <point x="-16" y="312" type="curve" smooth="yes"/>
      <point x="-16" y="309"/>
      <point x="-14" y="305"/>
      <point x="-11" y="305" type="curve"/>
      <point x="6" y="315"/>
      <point x="24" y="326"/>
      <point x="59" y="338" type="curve" smooth="yes"/>
      <point x="82" y="345"/>
      <point x="95" y="349"/>
      <point x="119" y="351" type="curve"/>
      <point x="124" y="359"/>
      <point x="129" y="370"/>
      <point x="133" y="380" type="curve"/>
    </contour>
    <contour>
      <point x="219" y="376" type="line" smooth="yes"/>
      <point x="241" y="412"/>
      <point x="240" y="445"/>
      <point x="222" y="455" type="curve" smooth="yes"/>
      <point x="203" y="465"/>
      <point x="185" y="455"/>
      <point x="166" y="432" type="curve" smooth="yes"/>
      <point x="155" y="419"/>
      <point x="152" y="407"/>
      <point x="154" y="396" type="curve" smooth="yes"/>
      <point x="157" y="382"/>
      <point x="169" y="372"/>
      <point x="193" y="363" type="curve"/>
      <point x="168" y="336"/>
      <point x="145" y="325"/>
      <point x="100" y="327" type="curve" smooth="yes"/>
      <point x="99" y="325"/>
      <point x="94" y="317"/>
      <point x="91" y="305" type="curve"/>
      <point x="124" y="301"/>
      <point x="154" y="308"/>
      <point x="178" y="325" type="curve" smooth="yes"/>
      <point x="192" y="336"/>
      <point x="199" y="343"/>
      <point x="209" y="358" type="curve"/>
      <point x="235" y="347" type="line" smooth="yes"/>
      <point x="235" y="356"/>
      <point x="234" y="362"/>
      <point x="232" y="369" type="curve" smooth="yes"/>
    </contour>
    <contour>
      <point x="188" y="393" type="line" smooth="yes"/>
      <point x="172" y="402"/>
      <point x="171" y="411"/>
      <point x="172" y="417" type="curve" smooth="yes"/>
      <point x="172" y="425"/>
      <point x="179" y="433"/>
      <point x="189" y="435" type="curve"/>
      <point x="197" y="438"/>
      <point x="207" y="435"/>
      <point x="212" y="428" type="curve"/>
      <point x="222" y="418"/>
      <point x="217" y="400"/>
      <point x="206" y="383" type="curve"/>
    </contour>
    <component base="uniFEEE"/>
    <contour>
      <point x="126" y="479" type="move" name="top"/>
    </contour>
  </outline>
</glyph>
<glyph name="uni06A1.fina" format="1">
  <advance width="946"/>
  <outline>
    <contour>
      <point x="815" y="98" type="line"/>
      <point x="807" y="98"/>
      <point x="798" y="98"/>
      <point x="790" y="98" type="curve"/>
      <point x="790" y="98"/>
      <point x="813" y="141"/>
      <point x="813" y="198" type="curve" smooth="yes"/>
      <point x="813" y="231"/>
      <point x="805" y="264"/>
      <point x="789" y="287" type="curve" smooth="yes"/>
      <point x="776" y="306"/>
      <point x="754" y="322"/>
      <point x="729" y="322" type="curve" smooth="yes"/>
      <point x="702" y="322"/>
      <point x="671" y="303"/>
      <point x="646" y="269" type="curve" smooth="yes"/>
      <point x="623" y="238"/>
      <point x="607" y="195"/>
      <point x="607" y="164" type="curve" smooth="yes"/>
      <point x="607" y="132"/>
      <point x="624" y="109"/>
      <point x="624" y="109" type="curve" smooth="yes"/>
      <point x="624" y="109"/>
      <point x="567" y="94"/>
      <point x="410" y="94" type="curve" smooth="yes"/>
      <point x="352" y="94"/>
      <point x="295" y="96"/>
      <point x="250" y="103" type="curve" smooth="yes"/>
      <point x="202" y="110"/>
      <point x="163" y="121"/>
      <point x="136" y="140" type="curve" smooth="yes"/>
      <point x="109" y="159"/>
      <point x="95" y="183"/>
      <point x="91" y="222" type="curve"/>
      <point x="73" y="229" type="line"/>
      <point x="73" y="227"/>
      <point x="68" y="191"/>
      <point x="71" y="154" type="curve" smooth="yes"/>
      <point x="79" y="60"/>
      <point x="131" y="23"/>
      <point x="232" y="5" type="curve" smooth="yes"/>
      <point x="280" y="-3"/>
      <point x="332" y="-7"/>
      <point x="395" y="-7" type="curve" smooth="yes"/>
      <point x="485" y="-7"/>
      <point x="568" y="1"/>
      <point x="614" y="9" type="curve" smooth="yes"/>
      <point x="694" y="23"/>
      <point x="730" y="37"/>
      <point x="752" y="50" type="curve"/>
      <point x="757" y="32"/>
      <point x="779" y="0"/>
      <point x="840" y="0" type="curve" smooth="yes"/>
      <point x="946" y="0" type="line"/>
      <point x="946" y="98" type="line"/>
    </contour>
    <contour>
      <point x="778" y="156"/>
      <point x="755" y="117"/>
      <point x="714" y="117" type="curve" smooth="yes"/>
      <point x="666" y="117"/>
      <point x="642" y="169"/>
      <point x="642" y="169" type="curve" smooth="yes"/>
      <point x="642" y="169"/>
      <point x="668" y="242"/>
      <point x="713" y="242" type="curve" smooth="yes"/>
      <point x="751" y="242"/>
      <point x="778" y="187"/>
      <point x="778" y="171" type="curve" smooth="yes"/>
    </contour>
    <contour>
      <point x="729" y="352" type="move" name="top"/>
    </contour>
    <contour>
      <point x="411" y="-37" type="move" name="bottom"/>
    </contour>
  </outline>
</glyph>
<glyph name="uni06A10649.fina" format="1">
  <advance width="814"/>
  <outline>
    <contour>
      <point x="655" y="98" type="line"/>
      <point x="689" y="114"/>
      <point x="704" y="155"/>
      <point x="704" y="195" type="curve"/>
      <point x="703" y="245"/>
      <point x="676" y="295"/>
      <point x="630" y="295" type="curve" smooth="yes"/>
      <point x="616" y="295"/>
      <point x="597" y="289"/>
      <point x="577" y="274" type="curve" smooth="yes"/>
      <point x="549" y="252"/>
      <point x="519" y="212"/>
      <point x="515" y="173" type="curve" smooth="yes"/>
      <point x="511" y="142"/>
      <point x="516" y="113"/>
      <point x="529" y="87" type="curve"/>
      <point x="517" y="81"/>
      <point x="504" y="74"/>
      <point x="492" y="67" type="curve" smooth="yes"/>
      <point x="474" y="57"/>
      <point x="458" y="47"/>
      <point x="450" y="41" type="curve" smooth="yes"/>
      <point x="444" y="36"/>
      <point x="426" y="9"/>
      <point x="421" y="-35" type="curve"/>
      <point x="438" y="-38"/>
      <point x="464" y="-44"/>
      <point x="487" y="-52" type="curve" smooth="yes"/>
      <point x="524" y="-66"/>
      <point x="543" y="-83"/>
      <point x="543" y="-104" type="curve" smooth="yes"/>
      <point x="543" y="-128"/>
      <point x="495" y="-152"/>
      <point x="464" y="-165" type="curve"/>
      <point x="432" y="-180"/>
      <point x="367" y="-201"/>
      <point x="292" y="-201" type="curve" smooth="yes"/>
      <point x="217" y="-201"/>
      <point x="163" y="-185"/>
      <point x="132" y="-147" type="curve" smooth="yes"/>
      <point x="105" y="-114"/>
      <point x="109" y="-72"/>
      <point x="119" y="-14" type="curve"/>
      <point x="100" y="-7" type="line"/>
      <point x="85" y="-44"/>
      <point x="74" y="-83"/>
      <point x="71" y="-120" type="curve" smooth="yes"/>
      <point x="68" y="-153"/>
      <point x="72" y="-182"/>
      <point x="83" y="-208" type="curve" smooth="yes"/>
      <point x="97" y="-243"/>
      <point x="123" y="-270"/>
      <point x="159" y="-288" type="curve" smooth="yes"/>
      <point x="192" y="-305"/>
      <point x="234" y="-314"/>
      <point x="283" y="-314" type="curve" smooth="yes"/>
      <point x="342" y="-314"/>
      <point x="404" y="-299"/>
      <point x="457" y="-271" type="curve" smooth="yes"/>
      <point x="508" y="-244"/>
      <point x="547" y="-208"/>
      <point x="567" y="-170" type="curve" smooth="yes"/>
      <point x="581" y="-143"/>
      <point x="589" y="-116"/>
      <point x="589" y="-92" type="curve" smooth="yes"/>
      <point x="589" y="-28"/>
      <point x="526" y="-5"/>
      <point x="486" y="6" type="curve"/>
      <point x="507" y="19"/>
      <point x="542" y="39"/>
      <point x="560" y="47" type="curve"/>
      <point x="591" y="18"/>
      <point x="639" y="0"/>
      <point x="698" y="0" type="curve" smooth="yes"/>
      <point x="814" y="0" type="line"/>
      <point x="814" y="98" type="line"/>
    </contour>
    <contour>
      <point x="671" y="155"/>
      <point x="653" y="144"/>
      <point x="634" y="137" type="curve" smooth="yes"/>
      <point x="621" y="132"/>
      <point x="607" y="129"/>
      <point x="597" y="127" type="curve" smooth="yes"/>
      <point x="571" y="123"/>
      <point x="557" y="136"/>
      <point x="550" y="150" type="curve" smooth="yes"/>
      <point x="543" y="164"/>
      <point x="543" y="179"/>
      <point x="543" y="179" type="curve" smooth="yes"/>
      <point x="543" y="179"/>
      <point x="553" y="194"/>
      <point x="567" y="207" type="curve" smooth="yes"/>
      <point x="578" y="217"/>
      <point x="592" y="226"/>
      <point x="607" y="224" type="curve" smooth="yes"/>
      <point x="620" y="222"/>
      <point x="635" y="214"/>
      <point x="646" y="203" type="curve" smooth="yes"/>
      <point x="661" y="190"/>
      <point x="671" y="175"/>
      <point x="671" y="166" type="curve" smooth="yes"/>
    </contour>
    <contour>
      <point x="399" y="0" type="move" name="caret_1"/>
    </contour>
    <contour>
      <point x="622" y="-223" type="move" name="bottom_1"/>
    </contour>
    <contour>
      <point x="582" y="331" type="move" name="top_1"/>
    </contour>
    <contour>
      <point x="253" y="-17" type="move" name="top_2"/>
    </contour>
    <contour>
      <point x="293" y="-344" type="move" name="bottom_2"/>
    </contour>
  </outline>
</glyph>
<glyph name="uni06A10649" format="1">
  <advance width="650"/>
  <outline>
    <contour>
      <point x="526" y="364"/>
      <point x="435" y="364" type="curve" smooth="yes"/>
      <point x="396" y="364"/>
      <point x="372" y="331"/>
      <point x="361" y="311" type="curve" smooth="yes"/>
      <point x="345" y="282"/>
      <point x="334" y="243"/>
      <point x="334" y="209" type="curve" smooth="yes"/>
      <point x="334" y="179"/>
      <point x="343" y="154"/>
      <point x="361" y="138" type="curve" smooth="yes"/>
      <point x="373" y="127"/>
      <point x="391" y="117"/>
      <point x="426" y="117" type="curve" smooth="yes"/>
      <point x="437" y="117"/>
      <point x="478" y="118"/>
      <point x="503" y="143" type="curve"/>
      <point x="507" y="114"/>
      <point x="495" y="92"/>
      <point x="471" y="73" type="curve" smooth="yes"/>
      <point x="453" y="58"/>
      <point x="428" y="49"/>
      <point x="398" y="49" type="curve"/>
      <point x="396" y="40"/>
      <point x="392" y="19"/>
      <point x="389" y="-6" type="curve"/>
      <point x="409" y="-10"/>
      <point x="441" y="-14"/>
      <point x="471" y="-22" type="curve" smooth="yes"/>
      <point x="522" y="-36"/>
      <point x="541" y="-52"/>
      <point x="541" y="-69" type="curve" smooth="yes"/>
      <point x="541" y="-95"/>
      <point x="494" y="-119"/>
      <point x="464" y="-132" type="curve" smooth="yes"/>
      <point x="432" y="-146"/>
      <point x="373" y="-168"/>
      <point x="290" y="-168" type="curve" smooth="yes"/>
      <point x="212" y="-168"/>
      <point x="160" y="-149"/>
      <point x="132" y="-114" type="curve" smooth="yes"/>
      <point x="105" y="-81"/>
      <point x="109" y="-29"/>
      <point x="119" y="29" type="curve"/>
      <point x="100" y="36" type="line"/>
      <point x="84" y="-5"/>
      <point x="74" y="-53"/>
      <point x="71" y="-87" type="curve" smooth="yes"/>
      <point x="68" y="-121"/>
      <point x="72" y="-149"/>
      <point x="83" y="-175" type="curve" smooth="yes"/>
      <point x="98" y="-211"/>
      <point x="124" y="-237"/>
      <point x="160" y="-255" type="curve" smooth="yes"/>
      <point x="196" y="-273"/>
      <point x="237" y="-281"/>
      <point x="282" y="-281" type="curve" smooth="yes"/>
      <point x="343" y="-281"/>
      <point x="404" y="-266"/>
      <point x="457" y="-238" type="curve" smooth="yes"/>
      <point x="489" y="-221"/>
      <point x="527" y="-193"/>
      <point x="550" y="-166" type="curve" smooth="yes"/>
      <point x="573" y="-139"/>
      <point x="590" y="-104"/>
      <point x="590" y="-68" type="curve" smooth="yes"/>
      <point x="590" y="-13"/>
      <point x="551" y="16"/>
      <point x="506" y="27" type="curve"/>
      <point x="520" y="39"/>
      <point x="531" y="60"/>
      <point x="538" y="86" type="curve" smooth="yes"/>
      <point x="565" y="188"/>
    </contour>
    <contour>
      <point x="482" y="208"/>
      <point x="462" y="191"/>
      <point x="426" y="191" type="curve" smooth="yes"/>
      <point x="371" y="191"/>
      <point x="366" y="231"/>
      <point x="366" y="241" type="curve" smooth="yes"/>
      <point x="366" y="257"/>
      <point x="378" y="297"/>
      <point x="420" y="297" type="curve" smooth="yes"/>
      <point x="457" y="297"/>
      <point x="479" y="265"/>
      <point x="489" y="216" type="curve"/>
    </contour>
    <contour>
      <point x="325" y="0" type="move" name="caret_1"/>
    </contour>
    <contour>
      <point x="456" y="-313" type="move" name="bottom_1"/>
    </contour>
    <contour>
      <point x="435" y="394" type="move" name="top_1"/>
    </contour>
    <contour>
      <point x="202" y="29" type="move" name="top_2"/>
    </contour>
    <contour>
      <point x="236" y="-311" type="move" name="bottom_2"/>
    </contour>
  </outline>
</glyph>
<glyph name="uniFC53.fina" format="1">
  <advance width="993"/>
  <outline>
    <contour>
      <point x="867" y="98" type="line" smooth="yes"/>
      <point x="816" y="98"/>
      <point x="776" y="83"/>
      <point x="750" y="56" type="curve" smooth="yes"/>
      <point x="723" y="24"/>
      <point x="715" y="-8"/>
      <point x="728" y="-60" type="curve"/>
      <point x="691" y="-26"/>
      <point x="671" y="32"/>
      <point x="669" y="94" type="curve" smooth="yes"/>
      <point x="667" y="173"/>
      <point x="657" y="205"/>
      <point x="593" y="205" type="curve" smooth="yes"/>
      <point x="554" y="205"/>
      <point x="509" y="190"/>
      <point x="469" y="164" type="curve" smooth="yes"/>
      <point x="429" y="137"/>
      <point x="398" y="102"/>
      <point x="384" y="66" type="curve" smooth="yes"/>
      <point x="372" y="34"/>
      <point x="370" y="10"/>
      <point x="379" y="-7" type="curve" smooth="yes"/>
      <point x="391" y="-30"/>
      <point x="423" y="-41"/>
      <point x="454" y="-46" type="curve" smooth="yes"/>
      <point x="491" y="-52"/>
      <point x="506" y="-59"/>
      <point x="520" y="-76" type="curve"/>
      <point x="506" y="-98"/>
      <point x="496" y="-111"/>
      <point x="471" y="-128" type="curve" smooth="yes"/>
      <point x="440" y="-147"/>
      <point x="387" y="-172"/>
      <point x="304" y="-172" type="curve" smooth="yes"/>
      <point x="229" y="-172"/>
      <point x="173" y="-158"/>
      <point x="141" y="-125" type="curve" smooth="yes"/>
      <point x="121" y="-105"/>
      <point x="110" y="-77"/>
      <point x="110" y="-41" type="curve" smooth="yes"/>
      <point x="111" y="-23"/>
      <point x="113" y="-4"/>
      <point x="118" y="17" type="curve"/>
      <point x="100" y="26" type="line"/>
      <point x="79" y="-23"/>
      <point x="68" y="-76"/>
      <point x="70" y="-119" type="curve" smooth="yes"/>
      <point x="72" y="-166"/>
      <point x="90" y="-206"/>
      <point x="121" y="-234" type="curve" smooth="yes"/>
      <point x="158" y="-266"/>
      <point x="212" y="-283"/>
      <point x="282" y="-283" type="curve" smooth="yes"/>
      <point x="351" y="-283"/>
      <point x="422" y="-258"/>
      <point x="478" y="-214" type="curve" smooth="yes"/>
      <point x="534" y="-170"/>
      <point x="566" y="-114"/>
      <point x="566" y="-60" type="curve" smooth="yes"/>
      <point x="566" y="-32"/>
      <point x="551" y="-15"/>
      <point x="533" y="-3" type="curve" smooth="yes"/>
      <point x="508" y="13"/>
      <point x="476" y="17"/>
      <point x="463" y="20" type="curve" smooth="yes"/>
      <point x="453" y="22"/>
      <point x="422" y="26"/>
      <point x="428" y="47" type="curve" smooth="yes"/>
      <point x="437" y="77"/>
      <point x="462" y="99"/>
      <point x="491" y="114" type="curve" smooth="yes"/>
      <point x="517" y="127"/>
      <point x="546" y="134"/>
      <point x="570" y="134" type="curve" smooth="yes"/>
      <point x="634" y="134"/>
      <point x="628" y="95"/>
      <point x="628" y="19" type="curve" smooth="yes"/>
      <point x="628" y="-9"/>
      <point x="632" y="-41"/>
      <point x="655" y="-89" type="curve" smooth="yes"/>
      <point x="675" y="-131"/>
      <point x="704" y="-163"/>
      <point x="742" y="-184" type="curve"/>
      <point x="766" y="-164"/>
      <point x="781" y="-149"/>
      <point x="801" y="-123" type="curve"/>
      <point x="786" y="-106"/>
      <point x="776" y="-87"/>
      <point x="771" y="-68" type="curve" smooth="yes"/>
      <point x="766" y="-47"/>
      <point x="767" y="-27"/>
      <point x="774" y="-11" type="curve" smooth="yes"/>
      <point x="785" y="14"/>
      <point x="807" y="30"/>
      <point x="842" y="30" type="curve" smooth="yes"/>
      <point x="876" y="30"/>
      <point x="887" y="21"/>
      <point x="901" y="13" type="curve" smooth="yes"/>
      <point x="915" y="6"/>
      <point x="927" y="0"/>
      <point x="959" y="0" type="curve" smooth="yes"/>
      <point x="993" y="0" type="line"/>
      <point x="993" y="98" type="line"/>
    </contour>
    <contour>
      <point x="497" y="0" type="move" name="caret_1"/>
    </contour>
    <contour>
      <point x="742" y="-214" type="move" name="bottom_1"/>
    </contour>
    <contour>
      <point x="712" y="259" type="move" name="top_1"/>
    </contour>
    <contour>
      <point x="216" y="35" type="move" name="top_2"/>
    </contour>
    <contour>
      <point x="282" y="-313" type="move" name="bottom_2"/>
    </contour>
  </outline>
</glyph>
